G04 EAGLE Gerber RS-274X export*
G75*
%MOMM*%
%FSLAX34Y34*%
%LPD*%
%INCopper Layer 2*%
%IPPOS*%
%AMOC8*
5,1,8,0,0,1.08239X$1,22.5*%
G01*
%ADD10C,1.400000*%
%ADD11C,3.080000*%
%ADD12C,3.816000*%
%ADD13C,2.590000*%
%ADD14C,1.820000*%
%ADD15C,4.191000*%
%ADD16C,1.137919*%
%ADD17C,0.654800*%

G36*
X417304Y3315D02*
X417304Y3315D01*
X417403Y3318D01*
X417462Y3335D01*
X417522Y3343D01*
X417614Y3379D01*
X417709Y3407D01*
X417761Y3437D01*
X417817Y3460D01*
X417897Y3518D01*
X417983Y3568D01*
X418058Y3634D01*
X418075Y3646D01*
X418083Y3656D01*
X418104Y3674D01*
X440826Y26396D01*
X440886Y26475D01*
X440954Y26547D01*
X440983Y26600D01*
X441020Y26648D01*
X441060Y26739D01*
X441108Y26825D01*
X441123Y26884D01*
X441147Y26939D01*
X441162Y27037D01*
X441187Y27133D01*
X441193Y27233D01*
X441197Y27254D01*
X441195Y27266D01*
X441197Y27294D01*
X441197Y353706D01*
X441185Y353804D01*
X441182Y353903D01*
X441165Y353962D01*
X441157Y354022D01*
X441121Y354114D01*
X441093Y354209D01*
X441063Y354261D01*
X441040Y354317D01*
X440982Y354397D01*
X440932Y354483D01*
X440866Y354558D01*
X440854Y354575D01*
X440844Y354583D01*
X440826Y354604D01*
X418104Y377326D01*
X418025Y377386D01*
X417953Y377454D01*
X417900Y377483D01*
X417852Y377520D01*
X417761Y377560D01*
X417675Y377608D01*
X417616Y377623D01*
X417561Y377647D01*
X417463Y377662D01*
X417367Y377687D01*
X417267Y377693D01*
X417246Y377697D01*
X417234Y377695D01*
X417206Y377697D01*
X27294Y377697D01*
X27196Y377685D01*
X27097Y377682D01*
X27038Y377665D01*
X26978Y377657D01*
X26886Y377621D01*
X26791Y377593D01*
X26739Y377563D01*
X26683Y377540D01*
X26603Y377482D01*
X26517Y377432D01*
X26442Y377366D01*
X26425Y377354D01*
X26417Y377344D01*
X26396Y377326D01*
X3674Y354604D01*
X3614Y354525D01*
X3546Y354453D01*
X3517Y354400D01*
X3480Y354352D01*
X3440Y354261D01*
X3392Y354175D01*
X3377Y354116D01*
X3353Y354061D01*
X3338Y353963D01*
X3313Y353867D01*
X3307Y353767D01*
X3303Y353746D01*
X3305Y353734D01*
X3303Y353706D01*
X3303Y27294D01*
X3315Y27196D01*
X3318Y27097D01*
X3335Y27038D01*
X3343Y26978D01*
X3379Y26886D01*
X3407Y26791D01*
X3437Y26739D01*
X3460Y26683D01*
X3518Y26603D01*
X3568Y26517D01*
X3634Y26442D01*
X3646Y26425D01*
X3656Y26417D01*
X3674Y26396D01*
X26396Y3674D01*
X26475Y3614D01*
X26547Y3546D01*
X26600Y3517D01*
X26648Y3480D01*
X26739Y3440D01*
X26825Y3392D01*
X26884Y3377D01*
X26939Y3353D01*
X27037Y3338D01*
X27133Y3313D01*
X27233Y3307D01*
X27254Y3303D01*
X27266Y3305D01*
X27294Y3303D01*
X417206Y3303D01*
X417304Y3315D01*
G37*
%LPC*%
G36*
X128676Y306704D02*
X128676Y306704D01*
X120041Y310281D01*
X113431Y316891D01*
X109854Y325526D01*
X109854Y334874D01*
X113431Y343509D01*
X120041Y350119D01*
X128676Y353696D01*
X138024Y353696D01*
X146659Y350119D01*
X153269Y343509D01*
X156846Y334874D01*
X156846Y325526D01*
X153269Y316891D01*
X146659Y310281D01*
X138024Y306704D01*
X128676Y306704D01*
G37*
%LPD*%
%LPC*%
G36*
X389026Y14604D02*
X389026Y14604D01*
X380391Y18181D01*
X373781Y24791D01*
X370204Y33426D01*
X370204Y42774D01*
X373781Y51409D01*
X380391Y58019D01*
X389026Y61596D01*
X398374Y61596D01*
X407009Y58019D01*
X413619Y51409D01*
X417196Y42774D01*
X417196Y33426D01*
X413619Y24791D01*
X407009Y18181D01*
X398374Y14604D01*
X389026Y14604D01*
G37*
%LPD*%
%LPC*%
G36*
X33418Y103601D02*
X33418Y103601D01*
X25472Y106893D01*
X19390Y112975D01*
X16098Y120921D01*
X16098Y129523D01*
X19390Y137469D01*
X25472Y143551D01*
X33418Y146843D01*
X42020Y146843D01*
X49966Y143551D01*
X56048Y137469D01*
X59340Y129523D01*
X59340Y120921D01*
X56048Y112975D01*
X49966Y106893D01*
X42020Y103601D01*
X33418Y103601D01*
G37*
%LPD*%
%LPC*%
G36*
X134510Y103601D02*
X134510Y103601D01*
X126564Y106893D01*
X120482Y112975D01*
X117190Y120921D01*
X117190Y129523D01*
X120482Y137469D01*
X126564Y143551D01*
X134510Y146843D01*
X143112Y146843D01*
X151058Y143551D01*
X157140Y137469D01*
X160432Y129523D01*
X160432Y120921D01*
X157140Y112975D01*
X151058Y106893D01*
X143112Y103601D01*
X134510Y103601D01*
G37*
%LPD*%
%LPC*%
G36*
X297293Y70385D02*
X297293Y70385D01*
X295156Y71270D01*
X293520Y72906D01*
X292635Y75043D01*
X292635Y77357D01*
X293520Y79494D01*
X295156Y81129D01*
X295755Y81377D01*
X295875Y81446D01*
X295998Y81511D01*
X296013Y81525D01*
X296031Y81535D01*
X296131Y81631D01*
X296234Y81725D01*
X296245Y81742D01*
X296259Y81756D01*
X296332Y81875D01*
X296408Y81991D01*
X296415Y82010D01*
X296426Y82027D01*
X296466Y82160D01*
X296512Y82292D01*
X296513Y82312D01*
X296519Y82331D01*
X296526Y82470D01*
X296537Y82609D01*
X296533Y82629D01*
X296534Y82649D01*
X296506Y82785D01*
X296482Y82922D01*
X296474Y82941D01*
X296470Y82960D01*
X296409Y83085D01*
X296352Y83212D01*
X296339Y83228D01*
X296330Y83246D01*
X296240Y83352D01*
X296153Y83460D01*
X296137Y83473D01*
X296124Y83488D01*
X296010Y83568D01*
X295899Y83652D01*
X295874Y83664D01*
X295864Y83671D01*
X295845Y83678D01*
X295755Y83723D01*
X295156Y83970D01*
X293520Y85606D01*
X292635Y87743D01*
X292635Y90057D01*
X293520Y92194D01*
X295156Y93830D01*
X295755Y94077D01*
X295875Y94146D01*
X295998Y94211D01*
X296013Y94225D01*
X296031Y94235D01*
X296131Y94332D01*
X296234Y94425D01*
X296245Y94442D01*
X296259Y94456D01*
X296332Y94575D01*
X296408Y94691D01*
X296415Y94710D01*
X296426Y94727D01*
X296466Y94860D01*
X296512Y94992D01*
X296513Y95012D01*
X296519Y95031D01*
X296526Y95170D01*
X296537Y95309D01*
X296533Y95329D01*
X296534Y95349D01*
X296506Y95485D01*
X296482Y95622D01*
X296474Y95641D01*
X296470Y95660D01*
X296409Y95785D01*
X296352Y95912D01*
X296339Y95928D01*
X296330Y95946D01*
X296240Y96052D01*
X296153Y96160D01*
X296137Y96173D01*
X296124Y96188D01*
X296010Y96268D01*
X295899Y96352D01*
X295874Y96364D01*
X295864Y96371D01*
X295845Y96378D01*
X295755Y96423D01*
X295156Y96671D01*
X293520Y98306D01*
X292635Y100443D01*
X292635Y102757D01*
X293520Y104894D01*
X295156Y106530D01*
X297293Y107415D01*
X299607Y107415D01*
X301744Y106530D01*
X303379Y104894D01*
X303627Y104295D01*
X303696Y104175D01*
X303761Y104052D01*
X303775Y104037D01*
X303785Y104019D01*
X303881Y103919D01*
X303975Y103816D01*
X303992Y103805D01*
X304006Y103791D01*
X304125Y103718D01*
X304241Y103642D01*
X304260Y103635D01*
X304277Y103624D01*
X304410Y103584D01*
X304542Y103538D01*
X304562Y103537D01*
X304581Y103531D01*
X304720Y103524D01*
X304859Y103513D01*
X304879Y103517D01*
X304899Y103516D01*
X305035Y103544D01*
X305172Y103568D01*
X305191Y103576D01*
X305210Y103580D01*
X305335Y103641D01*
X305462Y103698D01*
X305478Y103711D01*
X305496Y103720D01*
X305602Y103810D01*
X305710Y103897D01*
X305723Y103913D01*
X305738Y103926D01*
X305818Y104040D01*
X305902Y104151D01*
X305914Y104176D01*
X305921Y104186D01*
X305928Y104205D01*
X305973Y104295D01*
X306220Y104894D01*
X307856Y106530D01*
X309993Y107415D01*
X312307Y107415D01*
X314444Y106530D01*
X316079Y104894D01*
X316327Y104295D01*
X316396Y104175D01*
X316461Y104052D01*
X316475Y104037D01*
X316485Y104019D01*
X316581Y103919D01*
X316675Y103816D01*
X316692Y103805D01*
X316706Y103791D01*
X316825Y103718D01*
X316941Y103642D01*
X316960Y103635D01*
X316977Y103624D01*
X317110Y103584D01*
X317242Y103538D01*
X317262Y103537D01*
X317281Y103531D01*
X317420Y103524D01*
X317559Y103513D01*
X317579Y103517D01*
X317599Y103516D01*
X317735Y103544D01*
X317872Y103568D01*
X317891Y103576D01*
X317910Y103580D01*
X318035Y103641D01*
X318162Y103698D01*
X318178Y103711D01*
X318196Y103720D01*
X318302Y103810D01*
X318410Y103897D01*
X318423Y103913D01*
X318438Y103926D01*
X318518Y104040D01*
X318602Y104151D01*
X318614Y104176D01*
X318621Y104186D01*
X318628Y104205D01*
X318673Y104295D01*
X318920Y104894D01*
X320556Y106530D01*
X322693Y107415D01*
X325007Y107415D01*
X327144Y106530D01*
X328780Y104894D01*
X329665Y102757D01*
X329665Y100443D01*
X328780Y98306D01*
X327144Y96671D01*
X326545Y96423D01*
X326425Y96354D01*
X326302Y96289D01*
X326287Y96275D01*
X326269Y96265D01*
X326169Y96169D01*
X326066Y96075D01*
X326055Y96058D01*
X326041Y96044D01*
X325968Y95925D01*
X325892Y95809D01*
X325885Y95790D01*
X325874Y95773D01*
X325834Y95640D01*
X325788Y95508D01*
X325787Y95488D01*
X325781Y95469D01*
X325774Y95330D01*
X325763Y95191D01*
X325767Y95171D01*
X325766Y95151D01*
X325794Y95015D01*
X325818Y94878D01*
X325826Y94859D01*
X325830Y94840D01*
X325891Y94715D01*
X325948Y94588D01*
X325961Y94572D01*
X325970Y94554D01*
X326060Y94448D01*
X326147Y94340D01*
X326163Y94327D01*
X326176Y94312D01*
X326290Y94232D01*
X326401Y94148D01*
X326426Y94136D01*
X326436Y94129D01*
X326455Y94122D01*
X326545Y94077D01*
X327144Y93830D01*
X328780Y92194D01*
X329665Y90057D01*
X329665Y87743D01*
X328780Y85606D01*
X327144Y83970D01*
X326545Y83723D01*
X326425Y83654D01*
X326302Y83589D01*
X326287Y83575D01*
X326269Y83565D01*
X326169Y83468D01*
X326066Y83375D01*
X326055Y83358D01*
X326041Y83344D01*
X325968Y83225D01*
X325892Y83109D01*
X325885Y83090D01*
X325874Y83073D01*
X325834Y82940D01*
X325788Y82808D01*
X325787Y82788D01*
X325781Y82769D01*
X325774Y82630D01*
X325763Y82491D01*
X325767Y82471D01*
X325766Y82451D01*
X325794Y82315D01*
X325818Y82178D01*
X325826Y82159D01*
X325830Y82140D01*
X325891Y82015D01*
X325948Y81888D01*
X325961Y81872D01*
X325970Y81854D01*
X326060Y81748D01*
X326147Y81640D01*
X326163Y81627D01*
X326176Y81612D01*
X326290Y81532D01*
X326401Y81448D01*
X326426Y81436D01*
X326436Y81429D01*
X326455Y81422D01*
X326545Y81377D01*
X327144Y81129D01*
X328780Y79494D01*
X329665Y77357D01*
X329665Y75043D01*
X328780Y72906D01*
X327144Y71270D01*
X325007Y70385D01*
X322693Y70385D01*
X320556Y71270D01*
X318920Y72906D01*
X318673Y73505D01*
X318604Y73625D01*
X318539Y73748D01*
X318525Y73763D01*
X318515Y73781D01*
X318418Y73881D01*
X318325Y73984D01*
X318308Y73995D01*
X318294Y74009D01*
X318176Y74082D01*
X318059Y74158D01*
X318040Y74165D01*
X318023Y74176D01*
X317890Y74216D01*
X317758Y74262D01*
X317738Y74263D01*
X317719Y74269D01*
X317579Y74276D01*
X317441Y74287D01*
X317421Y74283D01*
X317401Y74284D01*
X317264Y74256D01*
X317128Y74232D01*
X317110Y74224D01*
X317090Y74220D01*
X316964Y74159D01*
X316838Y74102D01*
X316822Y74089D01*
X316804Y74080D01*
X316698Y73990D01*
X316589Y73903D01*
X316577Y73887D01*
X316562Y73874D01*
X316482Y73761D01*
X316398Y73649D01*
X316386Y73624D01*
X316379Y73614D01*
X316372Y73595D01*
X316327Y73505D01*
X316079Y72906D01*
X314444Y71270D01*
X312307Y70385D01*
X309993Y70385D01*
X307856Y71270D01*
X306220Y72906D01*
X305973Y73505D01*
X305904Y73625D01*
X305839Y73748D01*
X305825Y73763D01*
X305815Y73781D01*
X305718Y73881D01*
X305625Y73984D01*
X305608Y73995D01*
X305594Y74009D01*
X305476Y74082D01*
X305359Y74158D01*
X305340Y74165D01*
X305323Y74176D01*
X305190Y74216D01*
X305058Y74262D01*
X305038Y74263D01*
X305019Y74269D01*
X304879Y74276D01*
X304741Y74287D01*
X304721Y74283D01*
X304701Y74284D01*
X304564Y74256D01*
X304428Y74232D01*
X304410Y74224D01*
X304390Y74220D01*
X304264Y74159D01*
X304138Y74102D01*
X304122Y74089D01*
X304104Y74080D01*
X303998Y73990D01*
X303889Y73903D01*
X303877Y73887D01*
X303862Y73874D01*
X303782Y73761D01*
X303698Y73649D01*
X303686Y73624D01*
X303679Y73614D01*
X303672Y73595D01*
X303627Y73505D01*
X303379Y72906D01*
X301744Y71270D01*
X299607Y70385D01*
X297293Y70385D01*
G37*
%LPD*%
%LPC*%
G36*
X199631Y318609D02*
X199631Y318609D01*
X193037Y321341D01*
X187991Y326387D01*
X185259Y332981D01*
X185259Y340119D01*
X187991Y346713D01*
X193037Y351759D01*
X199631Y354491D01*
X206769Y354491D01*
X213363Y351759D01*
X218409Y346713D01*
X221141Y340119D01*
X221141Y332981D01*
X218409Y326387D01*
X213363Y321341D01*
X206769Y318609D01*
X199631Y318609D01*
G37*
%LPD*%
%LPC*%
G36*
X199631Y204309D02*
X199631Y204309D01*
X193037Y207041D01*
X187991Y212087D01*
X185259Y218681D01*
X185259Y225819D01*
X187991Y232413D01*
X193037Y237459D01*
X199631Y240191D01*
X206769Y240191D01*
X213363Y237459D01*
X218409Y232413D01*
X221141Y225819D01*
X221141Y218681D01*
X218409Y212087D01*
X213363Y207041D01*
X206769Y204309D01*
X199631Y204309D01*
G37*
%LPD*%
%LPC*%
G36*
X212819Y158509D02*
X212819Y158509D01*
X207125Y160868D01*
X202768Y165225D01*
X200409Y170919D01*
X200409Y177081D01*
X202768Y182775D01*
X207125Y187132D01*
X212819Y189491D01*
X218981Y189491D01*
X224675Y187132D01*
X229032Y182775D01*
X231391Y177081D01*
X231391Y170919D01*
X229032Y165225D01*
X224675Y160868D01*
X218981Y158509D01*
X212819Y158509D01*
G37*
%LPD*%
%LPC*%
G36*
X212819Y111509D02*
X212819Y111509D01*
X207125Y113868D01*
X202768Y118225D01*
X200409Y123919D01*
X200409Y130081D01*
X202768Y135775D01*
X207125Y140132D01*
X212819Y142491D01*
X218981Y142491D01*
X224675Y140132D01*
X229032Y135775D01*
X231391Y130081D01*
X231391Y123919D01*
X229032Y118225D01*
X224675Y113868D01*
X218981Y111509D01*
X212819Y111509D01*
G37*
%LPD*%
%LPC*%
G36*
X61184Y267759D02*
X61184Y267759D01*
X56906Y269531D01*
X53631Y272806D01*
X51859Y277084D01*
X51859Y281716D01*
X53631Y285994D01*
X56906Y289269D01*
X61184Y291041D01*
X65816Y291041D01*
X70094Y289269D01*
X73369Y285994D01*
X75141Y281716D01*
X75141Y277084D01*
X73369Y272806D01*
X70094Y269531D01*
X65816Y267759D01*
X61184Y267759D01*
G37*
%LPD*%
%LPC*%
G36*
X61184Y217759D02*
X61184Y217759D01*
X56906Y219531D01*
X53631Y222806D01*
X51859Y227084D01*
X51859Y231716D01*
X53631Y235994D01*
X56906Y239269D01*
X61184Y241041D01*
X65816Y241041D01*
X70094Y239269D01*
X73369Y235994D01*
X75141Y231716D01*
X75141Y227084D01*
X73369Y222806D01*
X70094Y219531D01*
X65816Y217759D01*
X61184Y217759D01*
G37*
%LPD*%
%LPC*%
G36*
X357727Y122259D02*
X357727Y122259D01*
X357599Y122387D01*
X357599Y122388D01*
X357511Y122476D01*
X357443Y122528D01*
X357382Y122588D01*
X357268Y122664D01*
X357259Y122671D01*
X357255Y122672D01*
X357248Y122677D01*
X356537Y123087D01*
X356127Y123798D01*
X356076Y123866D01*
X356032Y123940D01*
X355942Y124042D01*
X355935Y124051D01*
X355932Y124054D01*
X355926Y124060D01*
X355709Y124277D01*
X355709Y142423D01*
X355837Y142551D01*
X355838Y142551D01*
X355926Y142639D01*
X355978Y142707D01*
X356038Y142768D01*
X356114Y142882D01*
X356121Y142891D01*
X356122Y142895D01*
X356127Y142902D01*
X356537Y143613D01*
X357248Y144023D01*
X357316Y144074D01*
X357390Y144118D01*
X357492Y144208D01*
X357501Y144215D01*
X357504Y144218D01*
X357510Y144224D01*
X357727Y144441D01*
X368873Y144441D01*
X369001Y144312D01*
X369089Y144224D01*
X369157Y144172D01*
X369218Y144112D01*
X369332Y144036D01*
X369341Y144029D01*
X369345Y144028D01*
X369352Y144023D01*
X370063Y143613D01*
X370473Y142902D01*
X370524Y142834D01*
X370568Y142760D01*
X370658Y142658D01*
X370665Y142649D01*
X370668Y142646D01*
X370674Y142640D01*
X370891Y142423D01*
X370891Y124277D01*
X370674Y124060D01*
X370622Y123993D01*
X370562Y123932D01*
X370486Y123818D01*
X370479Y123809D01*
X370478Y123805D01*
X370473Y123798D01*
X370063Y123087D01*
X369352Y122677D01*
X369284Y122626D01*
X369210Y122582D01*
X369108Y122492D01*
X369099Y122485D01*
X369096Y122482D01*
X369090Y122476D01*
X369002Y122388D01*
X369001Y122387D01*
X368873Y122259D01*
X357727Y122259D01*
G37*
%LPD*%
%LPC*%
G36*
X297727Y122259D02*
X297727Y122259D01*
X297599Y122387D01*
X297511Y122476D01*
X297443Y122528D01*
X297382Y122588D01*
X297268Y122664D01*
X297259Y122671D01*
X297255Y122672D01*
X297248Y122677D01*
X296537Y123087D01*
X296127Y123798D01*
X296076Y123866D01*
X296032Y123940D01*
X295942Y124042D01*
X295935Y124051D01*
X295932Y124054D01*
X295926Y124060D01*
X295709Y124277D01*
X295709Y142423D01*
X295926Y142640D01*
X295978Y142707D01*
X296038Y142768D01*
X296114Y142882D01*
X296121Y142891D01*
X296122Y142895D01*
X296127Y142902D01*
X296537Y143613D01*
X297248Y144023D01*
X297316Y144074D01*
X297390Y144118D01*
X297492Y144208D01*
X297501Y144215D01*
X297504Y144218D01*
X297510Y144224D01*
X297727Y144441D01*
X308873Y144441D01*
X309090Y144224D01*
X309157Y144172D01*
X309218Y144112D01*
X309332Y144036D01*
X309341Y144029D01*
X309345Y144028D01*
X309352Y144023D01*
X310063Y143613D01*
X310473Y142902D01*
X310524Y142834D01*
X310568Y142760D01*
X310658Y142658D01*
X310665Y142649D01*
X310668Y142646D01*
X310674Y142639D01*
X310762Y142552D01*
X310763Y142551D01*
X310891Y142423D01*
X310891Y124277D01*
X310763Y124149D01*
X310762Y124149D01*
X310674Y124061D01*
X310622Y123993D01*
X310562Y123932D01*
X310486Y123818D01*
X310479Y123809D01*
X310478Y123805D01*
X310473Y123798D01*
X310063Y123087D01*
X309352Y122677D01*
X309284Y122626D01*
X309210Y122582D01*
X309108Y122492D01*
X309099Y122485D01*
X309096Y122482D01*
X309090Y122476D01*
X308873Y122259D01*
X297727Y122259D01*
G37*
%LPD*%
%LPC*%
G36*
X324227Y172759D02*
X324227Y172759D01*
X324010Y172976D01*
X323943Y173028D01*
X323882Y173088D01*
X323768Y173164D01*
X323759Y173171D01*
X323755Y173172D01*
X323748Y173177D01*
X323037Y173587D01*
X322627Y174298D01*
X322576Y174366D01*
X322532Y174440D01*
X322442Y174542D01*
X322435Y174551D01*
X322432Y174554D01*
X322426Y174561D01*
X322338Y174648D01*
X322337Y174649D01*
X322209Y174777D01*
X322209Y185923D01*
X322337Y186051D01*
X322338Y186051D01*
X322426Y186139D01*
X322478Y186207D01*
X322538Y186268D01*
X322614Y186382D01*
X322621Y186391D01*
X322622Y186395D01*
X322627Y186402D01*
X323037Y187113D01*
X323748Y187523D01*
X323816Y187574D01*
X323890Y187618D01*
X323992Y187708D01*
X324001Y187715D01*
X324004Y187718D01*
X324010Y187724D01*
X324227Y187941D01*
X342373Y187941D01*
X342501Y187813D01*
X342501Y187812D01*
X342589Y187724D01*
X342657Y187672D01*
X342718Y187612D01*
X342753Y187589D01*
X342755Y187587D01*
X342758Y187585D01*
X342832Y187536D01*
X342841Y187529D01*
X342845Y187528D01*
X342852Y187523D01*
X343563Y187113D01*
X343973Y186402D01*
X344024Y186334D01*
X344068Y186260D01*
X344158Y186158D01*
X344165Y186149D01*
X344168Y186146D01*
X344174Y186140D01*
X344391Y185923D01*
X344391Y174777D01*
X344263Y174649D01*
X344262Y174649D01*
X344174Y174561D01*
X344122Y174493D01*
X344062Y174432D01*
X343986Y174318D01*
X343979Y174309D01*
X343978Y174305D01*
X343973Y174298D01*
X343563Y173587D01*
X342852Y173177D01*
X342784Y173126D01*
X342710Y173082D01*
X342608Y172992D01*
X342599Y172985D01*
X342596Y172982D01*
X342590Y172976D01*
X342373Y172759D01*
X324227Y172759D01*
G37*
%LPD*%
%LPC*%
G36*
X341002Y333105D02*
X341002Y333105D01*
X337496Y334558D01*
X334812Y337242D01*
X333359Y340748D01*
X333359Y344544D01*
X334812Y348050D01*
X337496Y350734D01*
X341002Y352187D01*
X344798Y352187D01*
X348304Y350734D01*
X350988Y348050D01*
X352441Y344544D01*
X352441Y340748D01*
X350988Y337242D01*
X348304Y334558D01*
X344798Y333105D01*
X341002Y333105D01*
G37*
%LPD*%
%LPC*%
G36*
X290202Y333105D02*
X290202Y333105D01*
X286696Y334558D01*
X284012Y337242D01*
X282559Y340748D01*
X282559Y344544D01*
X284012Y348050D01*
X286696Y350734D01*
X290202Y352187D01*
X293998Y352187D01*
X297504Y350734D01*
X300188Y348050D01*
X301641Y344544D01*
X301641Y340748D01*
X300188Y337242D01*
X297504Y334558D01*
X293998Y333105D01*
X290202Y333105D01*
G37*
%LPD*%
%LPC*%
G36*
X264802Y333105D02*
X264802Y333105D01*
X261296Y334558D01*
X258612Y337242D01*
X257159Y340748D01*
X257159Y344544D01*
X258612Y348050D01*
X261296Y350734D01*
X264802Y352187D01*
X268598Y352187D01*
X272104Y350734D01*
X274788Y348050D01*
X276241Y344544D01*
X276241Y340748D01*
X274788Y337242D01*
X272104Y334558D01*
X268598Y333105D01*
X264802Y333105D01*
G37*
%LPD*%
%LPC*%
G36*
X48902Y15859D02*
X48902Y15859D01*
X45396Y17312D01*
X42712Y19996D01*
X41259Y23502D01*
X41259Y27298D01*
X42712Y30804D01*
X45396Y33488D01*
X48902Y34941D01*
X52698Y34941D01*
X56204Y33488D01*
X58888Y30804D01*
X60341Y27298D01*
X60341Y23502D01*
X58888Y19996D01*
X56204Y17312D01*
X52698Y15859D01*
X48902Y15859D01*
G37*
%LPD*%
%LPC*%
G36*
X341002Y206359D02*
X341002Y206359D01*
X337496Y207812D01*
X334812Y210496D01*
X333359Y214002D01*
X333359Y217798D01*
X334812Y221304D01*
X337496Y223988D01*
X341002Y225441D01*
X344798Y225441D01*
X348304Y223988D01*
X350988Y221304D01*
X352441Y217798D01*
X352441Y214002D01*
X350988Y210496D01*
X348304Y207812D01*
X344798Y206359D01*
X341002Y206359D01*
G37*
%LPD*%
%LPC*%
G36*
X315602Y206359D02*
X315602Y206359D01*
X312096Y207812D01*
X309412Y210496D01*
X307959Y214002D01*
X307959Y217798D01*
X309412Y221304D01*
X312096Y223988D01*
X315602Y225441D01*
X319398Y225441D01*
X322904Y223988D01*
X325588Y221304D01*
X327041Y217798D01*
X327041Y214002D01*
X325588Y210496D01*
X322904Y207812D01*
X319398Y206359D01*
X315602Y206359D01*
G37*
%LPD*%
%LPC*%
G36*
X290202Y206359D02*
X290202Y206359D01*
X286696Y207812D01*
X284012Y210496D01*
X282559Y214002D01*
X282559Y217798D01*
X284012Y221304D01*
X286696Y223988D01*
X290202Y225441D01*
X293998Y225441D01*
X297504Y223988D01*
X300188Y221304D01*
X301641Y217798D01*
X301641Y214002D01*
X300188Y210496D01*
X297504Y207812D01*
X293998Y206359D01*
X290202Y206359D01*
G37*
%LPD*%
%LPC*%
G36*
X264802Y206359D02*
X264802Y206359D01*
X261296Y207812D01*
X258612Y210496D01*
X257159Y214002D01*
X257159Y217798D01*
X258612Y221304D01*
X261296Y223988D01*
X264802Y225441D01*
X268598Y225441D01*
X272104Y223988D01*
X274788Y221304D01*
X276241Y217798D01*
X276241Y214002D01*
X274788Y210496D01*
X272104Y207812D01*
X268598Y206359D01*
X264802Y206359D01*
G37*
%LPD*%
%LPC*%
G36*
X239402Y206359D02*
X239402Y206359D01*
X235896Y207812D01*
X233212Y210496D01*
X231759Y214002D01*
X231759Y217798D01*
X233212Y221304D01*
X235896Y223988D01*
X239402Y225441D01*
X243198Y225441D01*
X246704Y223988D01*
X249388Y221304D01*
X250841Y217798D01*
X250841Y214002D01*
X249388Y210496D01*
X246704Y207812D01*
X243198Y206359D01*
X239402Y206359D01*
G37*
%LPD*%
%LPC*%
G36*
X239402Y333105D02*
X239402Y333105D01*
X235896Y334558D01*
X233212Y337242D01*
X231759Y340748D01*
X231759Y344544D01*
X233212Y348050D01*
X235896Y350734D01*
X239402Y352187D01*
X243198Y352187D01*
X246704Y350734D01*
X249388Y348050D01*
X250841Y344544D01*
X250841Y340748D01*
X249388Y337242D01*
X246704Y334558D01*
X243198Y333105D01*
X239402Y333105D01*
G37*
%LPD*%
%LPC*%
G36*
X86367Y15859D02*
X86367Y15859D01*
X82861Y17312D01*
X80177Y19996D01*
X78724Y23502D01*
X78724Y27298D01*
X80177Y30804D01*
X82861Y33488D01*
X86367Y34941D01*
X90163Y34941D01*
X93669Y33488D01*
X96353Y30804D01*
X97806Y27298D01*
X97806Y23502D01*
X96353Y19996D01*
X93669Y17312D01*
X90163Y15859D01*
X86367Y15859D01*
G37*
%LPD*%
%LPC*%
G36*
X265063Y29870D02*
X265063Y29870D01*
X262038Y31123D01*
X259723Y33438D01*
X258470Y36463D01*
X258470Y39737D01*
X259723Y42762D01*
X262038Y45077D01*
X265063Y46330D01*
X268337Y46330D01*
X271362Y45077D01*
X273677Y42762D01*
X274930Y39737D01*
X274930Y36463D01*
X273677Y33438D01*
X271362Y31123D01*
X268337Y29870D01*
X265063Y29870D01*
G37*
%LPD*%
%LPC*%
G36*
X218439Y82539D02*
X218439Y82539D01*
X218439Y95290D01*
X218929Y95226D01*
X220890Y94700D01*
X222766Y93923D01*
X224524Y92908D01*
X226136Y91671D01*
X227571Y90236D01*
X228808Y88624D01*
X229823Y86866D01*
X230600Y84990D01*
X231126Y83029D01*
X231190Y82539D01*
X218439Y82539D01*
G37*
%LPD*%
%LPC*%
G36*
X200610Y82539D02*
X200610Y82539D01*
X200674Y83028D01*
X201200Y84990D01*
X201977Y86866D01*
X202992Y88624D01*
X204229Y90236D01*
X205664Y91671D01*
X207276Y92908D01*
X209034Y93923D01*
X210910Y94700D01*
X212871Y95226D01*
X213361Y95290D01*
X213361Y82539D01*
X200610Y82539D01*
G37*
%LPD*%
%LPC*%
G36*
X218439Y77461D02*
X218439Y77461D01*
X231190Y77461D01*
X231126Y76971D01*
X230600Y75010D01*
X229823Y73134D01*
X228808Y71376D01*
X227571Y69764D01*
X226136Y68329D01*
X224524Y67092D01*
X222766Y66077D01*
X220890Y65300D01*
X218928Y64774D01*
X218439Y64710D01*
X218439Y77461D01*
G37*
%LPD*%
%LPC*%
G36*
X212872Y64774D02*
X212872Y64774D01*
X210910Y65300D01*
X209034Y66077D01*
X207276Y67092D01*
X205664Y68329D01*
X204229Y69764D01*
X202992Y71376D01*
X201977Y73134D01*
X201200Y75010D01*
X200674Y76972D01*
X200610Y77461D01*
X213361Y77461D01*
X213361Y64710D01*
X212872Y64774D01*
G37*
%LPD*%
%LPC*%
G36*
X66039Y331939D02*
X66039Y331939D01*
X66039Y340784D01*
X66226Y340754D01*
X67969Y340188D01*
X69601Y339356D01*
X71083Y338279D01*
X72379Y336983D01*
X73456Y335501D01*
X74288Y333869D01*
X74854Y332126D01*
X74884Y331939D01*
X66039Y331939D01*
G37*
%LPD*%
%LPC*%
G36*
X52116Y331939D02*
X52116Y331939D01*
X52146Y332126D01*
X52712Y333869D01*
X53544Y335501D01*
X54621Y336983D01*
X55917Y338279D01*
X57399Y339356D01*
X59031Y340188D01*
X60774Y340754D01*
X60961Y340784D01*
X60961Y331939D01*
X52116Y331939D01*
G37*
%LPD*%
%LPC*%
G36*
X66039Y326861D02*
X66039Y326861D01*
X74884Y326861D01*
X74854Y326674D01*
X74288Y324931D01*
X73456Y323299D01*
X72379Y321817D01*
X71083Y320521D01*
X69601Y319444D01*
X67969Y318612D01*
X66226Y318046D01*
X66039Y318016D01*
X66039Y326861D01*
G37*
%LPD*%
%LPC*%
G36*
X60774Y318046D02*
X60774Y318046D01*
X59031Y318612D01*
X57399Y319444D01*
X55917Y320521D01*
X54621Y321817D01*
X53544Y323299D01*
X52712Y324931D01*
X52146Y326674D01*
X52116Y326861D01*
X60961Y326861D01*
X60961Y318016D01*
X60774Y318046D01*
G37*
%LPD*%
%LPC*%
G36*
X319999Y345145D02*
X319999Y345145D01*
X319999Y351866D01*
X321162Y351488D01*
X322501Y350806D01*
X323715Y349923D01*
X324777Y348861D01*
X325660Y347647D01*
X326342Y346308D01*
X326720Y345145D01*
X319999Y345145D01*
G37*
%LPD*%
%LPC*%
G36*
X128229Y27899D02*
X128229Y27899D01*
X128229Y34620D01*
X129392Y34242D01*
X130731Y33560D01*
X131945Y32677D01*
X133007Y31615D01*
X133890Y30401D01*
X134572Y29062D01*
X134950Y27899D01*
X128229Y27899D01*
G37*
%LPD*%
%LPC*%
G36*
X319999Y340147D02*
X319999Y340147D01*
X326720Y340147D01*
X326342Y338984D01*
X325660Y337645D01*
X324777Y336431D01*
X323715Y335369D01*
X322501Y334486D01*
X321162Y333804D01*
X319999Y333426D01*
X319999Y340147D01*
G37*
%LPD*%
%LPC*%
G36*
X308280Y345145D02*
X308280Y345145D01*
X308658Y346308D01*
X309340Y347647D01*
X310223Y348861D01*
X311285Y349923D01*
X312499Y350806D01*
X313838Y351488D01*
X315001Y351866D01*
X315001Y345145D01*
X308280Y345145D01*
G37*
%LPD*%
%LPC*%
G36*
X116510Y27899D02*
X116510Y27899D01*
X116888Y29062D01*
X117570Y30401D01*
X118453Y31615D01*
X119515Y32677D01*
X120729Y33560D01*
X122068Y34242D01*
X123231Y34620D01*
X123231Y27899D01*
X116510Y27899D01*
G37*
%LPD*%
%LPC*%
G36*
X128229Y22901D02*
X128229Y22901D01*
X134950Y22901D01*
X134572Y21738D01*
X133890Y20399D01*
X133007Y19185D01*
X131945Y18123D01*
X130731Y17240D01*
X129392Y16558D01*
X128229Y16180D01*
X128229Y22901D01*
G37*
%LPD*%
%LPC*%
G36*
X313838Y333804D02*
X313838Y333804D01*
X312499Y334486D01*
X311285Y335369D01*
X310223Y336431D01*
X309340Y337645D01*
X308658Y338984D01*
X308280Y340147D01*
X315001Y340147D01*
X315001Y333426D01*
X313838Y333804D01*
G37*
%LPD*%
%LPC*%
G36*
X122068Y16558D02*
X122068Y16558D01*
X120729Y17240D01*
X119515Y18123D01*
X118453Y19185D01*
X117570Y20399D01*
X116888Y21738D01*
X116510Y22901D01*
X123231Y22901D01*
X123231Y16180D01*
X122068Y16558D01*
G37*
%LPD*%
%LPC*%
G36*
X167131Y40131D02*
X167131Y40131D01*
X167131Y46088D01*
X167501Y46014D01*
X168998Y45394D01*
X170347Y44493D01*
X171493Y43347D01*
X172394Y41998D01*
X173014Y40501D01*
X173088Y40131D01*
X167131Y40131D01*
G37*
%LPD*%
%LPC*%
G36*
X157112Y40131D02*
X157112Y40131D01*
X157186Y40501D01*
X157806Y41998D01*
X158707Y43347D01*
X159853Y44493D01*
X161202Y45394D01*
X162699Y46014D01*
X163069Y46088D01*
X163069Y40131D01*
X157112Y40131D01*
G37*
%LPD*%
%LPC*%
G36*
X167131Y36069D02*
X167131Y36069D01*
X173088Y36069D01*
X173014Y35699D01*
X172394Y34202D01*
X171493Y32853D01*
X170347Y31707D01*
X168998Y30806D01*
X167501Y30186D01*
X167131Y30112D01*
X167131Y36069D01*
G37*
%LPD*%
%LPC*%
G36*
X162699Y30186D02*
X162699Y30186D01*
X161202Y30806D01*
X159853Y31707D01*
X158707Y32853D01*
X157806Y34202D01*
X157186Y35699D01*
X157112Y36069D01*
X163069Y36069D01*
X163069Y30112D01*
X162699Y30186D01*
G37*
%LPD*%
%LPC*%
G36*
X63499Y329399D02*
X63499Y329399D01*
X63499Y329401D01*
X63501Y329401D01*
X63501Y329399D01*
X63499Y329399D01*
G37*
%LPD*%
%LPC*%
G36*
X215899Y79999D02*
X215899Y79999D01*
X215899Y80001D01*
X215901Y80001D01*
X215901Y79999D01*
X215899Y79999D01*
G37*
%LPD*%
D10*
X342900Y342646D03*
X317500Y342646D03*
X292100Y342646D03*
X266700Y342646D03*
X241300Y342646D03*
X241300Y215900D03*
X266700Y215900D03*
X292100Y215900D03*
X317500Y215900D03*
X342900Y215900D03*
D11*
X203200Y336550D03*
X203200Y222250D03*
D10*
X50800Y25400D03*
X125730Y25400D03*
X88265Y25400D03*
D12*
X138811Y125222D03*
X37719Y125222D03*
D13*
X215900Y174000D03*
X215900Y127000D03*
X215900Y80000D03*
D14*
X63500Y229400D03*
X63500Y279400D03*
X63500Y329400D03*
D15*
X133350Y330200D03*
X393700Y38100D03*
D16*
X165100Y38100D03*
X266700Y38100D03*
D17*
X400050Y120650D03*
X387350Y120650D03*
X387350Y133350D03*
X387350Y146050D03*
X400050Y133350D03*
X400050Y146050D03*
X298450Y101600D03*
X311150Y101600D03*
X323850Y101600D03*
X323850Y88900D03*
X311150Y88900D03*
X298450Y88900D03*
X298450Y76200D03*
X311150Y76200D03*
X323850Y76200D03*
M02*
