G04 EAGLE Gerber RS-274X export*
G75*
%MOMM*%
%FSLAX34Y34*%
%LPD*%
%INBottom Copper*%
%IPPOS*%
%AMOC8*
5,1,8,0,0,1.08239X$1,22.5*%
G01*
%ADD10C,1.930400*%
%ADD11C,3.080000*%
%ADD12C,2.000000*%
%ADD13R,3.816000X3.816000*%
%ADD14R,2.590000X2.590000*%
%ADD15C,2.590000*%
%ADD16C,1.820000*%
%ADD17C,1.000000*%
%ADD18C,4.445000*%
%ADD19P,1.231672X8X22.500000*%
%ADD20C,0.654800*%

G36*
X336668Y62246D02*
X336668Y62246D01*
X336787Y62253D01*
X336825Y62266D01*
X336866Y62271D01*
X336976Y62314D01*
X337089Y62351D01*
X337124Y62373D01*
X337161Y62388D01*
X337257Y62458D01*
X337358Y62521D01*
X337386Y62551D01*
X337419Y62574D01*
X337495Y62666D01*
X337576Y62753D01*
X337596Y62788D01*
X337621Y62819D01*
X337672Y62927D01*
X337730Y63031D01*
X337740Y63071D01*
X337757Y63107D01*
X337779Y63224D01*
X337809Y63339D01*
X337813Y63400D01*
X337817Y63420D01*
X337815Y63440D01*
X337819Y63500D01*
X337819Y139700D01*
X337807Y139798D01*
X337804Y139897D01*
X337787Y139955D01*
X337779Y140016D01*
X337743Y140108D01*
X337715Y140203D01*
X337685Y140255D01*
X337662Y140311D01*
X337604Y140391D01*
X337554Y140477D01*
X337488Y140552D01*
X337476Y140569D01*
X337466Y140576D01*
X337448Y140598D01*
X318398Y159648D01*
X318319Y159708D01*
X318247Y159776D01*
X318194Y159805D01*
X318146Y159842D01*
X318055Y159882D01*
X317969Y159930D01*
X317910Y159945D01*
X317854Y159969D01*
X317756Y159984D01*
X317661Y160009D01*
X317561Y160015D01*
X317540Y160019D01*
X317528Y160017D01*
X317500Y160019D01*
X285750Y160019D01*
X285632Y160004D01*
X285513Y159997D01*
X285475Y159984D01*
X285434Y159979D01*
X285324Y159936D01*
X285211Y159899D01*
X285176Y159877D01*
X285139Y159862D01*
X285043Y159793D01*
X284942Y159729D01*
X284914Y159699D01*
X284881Y159676D01*
X284806Y159584D01*
X284724Y159497D01*
X284704Y159462D01*
X284679Y159431D01*
X284628Y159323D01*
X284570Y159219D01*
X284560Y159179D01*
X284543Y159143D01*
X284521Y159026D01*
X284491Y158911D01*
X284487Y158851D01*
X284483Y158831D01*
X284485Y158810D01*
X284481Y158750D01*
X284481Y63500D01*
X284496Y63382D01*
X284503Y63263D01*
X284516Y63225D01*
X284521Y63184D01*
X284564Y63074D01*
X284601Y62961D01*
X284623Y62926D01*
X284638Y62889D01*
X284708Y62793D01*
X284771Y62692D01*
X284801Y62664D01*
X284824Y62631D01*
X284916Y62556D01*
X285003Y62474D01*
X285038Y62454D01*
X285069Y62429D01*
X285177Y62378D01*
X285281Y62320D01*
X285321Y62310D01*
X285357Y62293D01*
X285474Y62271D01*
X285589Y62241D01*
X285650Y62237D01*
X285670Y62233D01*
X285690Y62235D01*
X285750Y62231D01*
X336550Y62231D01*
X336668Y62246D01*
G37*
G36*
X412868Y106696D02*
X412868Y106696D01*
X412987Y106703D01*
X413025Y106716D01*
X413066Y106721D01*
X413176Y106764D01*
X413289Y106801D01*
X413324Y106823D01*
X413361Y106838D01*
X413457Y106908D01*
X413558Y106971D01*
X413586Y107001D01*
X413619Y107024D01*
X413695Y107116D01*
X413776Y107203D01*
X413796Y107238D01*
X413821Y107269D01*
X413872Y107377D01*
X413930Y107481D01*
X413940Y107521D01*
X413957Y107557D01*
X413979Y107674D01*
X414009Y107789D01*
X414013Y107850D01*
X414017Y107870D01*
X414015Y107890D01*
X414019Y107950D01*
X414019Y158750D01*
X414004Y158868D01*
X413997Y158987D01*
X413984Y159025D01*
X413979Y159066D01*
X413936Y159176D01*
X413899Y159289D01*
X413877Y159324D01*
X413862Y159361D01*
X413793Y159457D01*
X413729Y159558D01*
X413699Y159586D01*
X413676Y159619D01*
X413584Y159695D01*
X413497Y159776D01*
X413462Y159796D01*
X413431Y159821D01*
X413323Y159872D01*
X413219Y159930D01*
X413179Y159940D01*
X413143Y159957D01*
X413026Y159979D01*
X412911Y160009D01*
X412851Y160013D01*
X412831Y160017D01*
X412810Y160015D01*
X412750Y160019D01*
X342900Y160019D01*
X342782Y160004D01*
X342663Y159997D01*
X342625Y159984D01*
X342584Y159979D01*
X342474Y159936D01*
X342361Y159899D01*
X342326Y159877D01*
X342289Y159862D01*
X342193Y159793D01*
X342092Y159729D01*
X342064Y159699D01*
X342031Y159676D01*
X341956Y159584D01*
X341874Y159497D01*
X341854Y159462D01*
X341829Y159431D01*
X341778Y159323D01*
X341720Y159219D01*
X341710Y159179D01*
X341693Y159143D01*
X341671Y159026D01*
X341641Y158911D01*
X341637Y158851D01*
X341633Y158831D01*
X341635Y158810D01*
X341634Y158806D01*
X341633Y158801D01*
X341634Y158795D01*
X341631Y158750D01*
X341631Y107950D01*
X341646Y107832D01*
X341653Y107713D01*
X341666Y107675D01*
X341671Y107634D01*
X341714Y107524D01*
X341751Y107411D01*
X341773Y107376D01*
X341788Y107339D01*
X341858Y107243D01*
X341921Y107142D01*
X341951Y107114D01*
X341974Y107081D01*
X342066Y107006D01*
X342153Y106924D01*
X342188Y106904D01*
X342219Y106879D01*
X342327Y106828D01*
X342431Y106770D01*
X342471Y106760D01*
X342507Y106743D01*
X342624Y106721D01*
X342739Y106691D01*
X342800Y106687D01*
X342820Y106683D01*
X342840Y106685D01*
X342900Y106681D01*
X412750Y106681D01*
X412868Y106696D01*
G37*
%LPC*%
G36*
X305839Y120990D02*
X305839Y120990D01*
X305824Y121108D01*
X305817Y121227D01*
X305804Y121265D01*
X305799Y121306D01*
X305755Y121416D01*
X305719Y121529D01*
X305697Y121564D01*
X305682Y121601D01*
X305612Y121697D01*
X305549Y121798D01*
X305519Y121826D01*
X305495Y121859D01*
X305404Y121935D01*
X305317Y122016D01*
X305282Y122036D01*
X305250Y122061D01*
X305143Y122112D01*
X305039Y122170D01*
X304999Y122180D01*
X304963Y122197D01*
X304846Y122219D01*
X304731Y122249D01*
X304670Y122253D01*
X304650Y122257D01*
X304630Y122255D01*
X304570Y122259D01*
X302030Y122259D01*
X301912Y122244D01*
X301793Y122237D01*
X301755Y122224D01*
X301715Y122219D01*
X301604Y122176D01*
X301491Y122139D01*
X301456Y122117D01*
X301419Y122102D01*
X301323Y122033D01*
X301222Y121969D01*
X301194Y121939D01*
X301161Y121916D01*
X301086Y121824D01*
X301004Y121737D01*
X300984Y121702D01*
X300959Y121671D01*
X300908Y121563D01*
X300850Y121459D01*
X300840Y121419D01*
X300823Y121383D01*
X300801Y121266D01*
X300771Y121151D01*
X300767Y121091D01*
X300763Y121071D01*
X300765Y121050D01*
X300761Y120990D01*
X300761Y115809D01*
X297557Y115809D01*
X296100Y116099D01*
X294728Y116667D01*
X293493Y117493D01*
X292443Y118543D01*
X291617Y119778D01*
X291049Y121150D01*
X290759Y122607D01*
X290759Y130811D01*
X294440Y130811D01*
X294558Y130826D01*
X294677Y130833D01*
X294715Y130846D01*
X294756Y130851D01*
X294866Y130894D01*
X294979Y130931D01*
X295014Y130953D01*
X295051Y130968D01*
X295147Y131038D01*
X295248Y131101D01*
X295276Y131131D01*
X295309Y131155D01*
X295385Y131246D01*
X295466Y131333D01*
X295486Y131368D01*
X295511Y131399D01*
X295562Y131507D01*
X295620Y131611D01*
X295630Y131651D01*
X295647Y131687D01*
X295669Y131804D01*
X295699Y131919D01*
X295703Y131980D01*
X295707Y132000D01*
X295705Y132020D01*
X295709Y132080D01*
X295709Y134620D01*
X295694Y134738D01*
X295687Y134857D01*
X295674Y134895D01*
X295669Y134935D01*
X295626Y135046D01*
X295589Y135159D01*
X295567Y135194D01*
X295552Y135231D01*
X295483Y135327D01*
X295419Y135428D01*
X295389Y135456D01*
X295366Y135488D01*
X295274Y135564D01*
X295187Y135646D01*
X295152Y135665D01*
X295121Y135691D01*
X295013Y135742D01*
X294909Y135799D01*
X294869Y135810D01*
X294833Y135827D01*
X294716Y135849D01*
X294601Y135879D01*
X294541Y135883D01*
X294521Y135887D01*
X294500Y135885D01*
X294440Y135889D01*
X290759Y135889D01*
X290759Y144093D01*
X291049Y145550D01*
X291617Y146922D01*
X292443Y148157D01*
X293493Y149207D01*
X294728Y150033D01*
X296100Y150601D01*
X297557Y150891D01*
X300761Y150891D01*
X300761Y145710D01*
X300776Y145592D01*
X300783Y145473D01*
X300796Y145435D01*
X300801Y145394D01*
X300844Y145284D01*
X300881Y145171D01*
X300903Y145136D01*
X300918Y145099D01*
X300988Y145003D01*
X301051Y144902D01*
X301081Y144874D01*
X301105Y144841D01*
X301196Y144765D01*
X301283Y144684D01*
X301318Y144664D01*
X301349Y144639D01*
X301457Y144588D01*
X301561Y144530D01*
X301601Y144520D01*
X301637Y144503D01*
X301754Y144481D01*
X301869Y144451D01*
X301930Y144447D01*
X301950Y144443D01*
X301970Y144445D01*
X302030Y144441D01*
X304570Y144441D01*
X304688Y144456D01*
X304807Y144463D01*
X304845Y144476D01*
X304885Y144481D01*
X304996Y144524D01*
X305109Y144561D01*
X305144Y144583D01*
X305181Y144598D01*
X305277Y144667D01*
X305378Y144731D01*
X305406Y144761D01*
X305438Y144784D01*
X305514Y144876D01*
X305596Y144963D01*
X305615Y144998D01*
X305641Y145029D01*
X305692Y145137D01*
X305749Y145241D01*
X305760Y145281D01*
X305777Y145317D01*
X305799Y145434D01*
X305829Y145549D01*
X305833Y145609D01*
X305837Y145629D01*
X305835Y145650D01*
X305839Y145710D01*
X305839Y150891D01*
X309043Y150891D01*
X310500Y150601D01*
X311872Y150033D01*
X313107Y149207D01*
X314157Y148157D01*
X314983Y146922D01*
X315551Y145550D01*
X315841Y144093D01*
X315841Y135889D01*
X312160Y135889D01*
X312042Y135874D01*
X311923Y135867D01*
X311885Y135854D01*
X311844Y135849D01*
X311734Y135805D01*
X311621Y135769D01*
X311586Y135747D01*
X311549Y135732D01*
X311453Y135662D01*
X311352Y135599D01*
X311324Y135569D01*
X311291Y135545D01*
X311215Y135454D01*
X311134Y135367D01*
X311114Y135332D01*
X311089Y135300D01*
X311038Y135193D01*
X310980Y135089D01*
X310970Y135049D01*
X310953Y135013D01*
X310931Y134896D01*
X310901Y134781D01*
X310897Y134720D01*
X310893Y134700D01*
X310895Y134680D01*
X310891Y134620D01*
X310891Y132080D01*
X310906Y131962D01*
X310913Y131843D01*
X310926Y131805D01*
X310931Y131765D01*
X310974Y131654D01*
X311011Y131541D01*
X311033Y131506D01*
X311048Y131469D01*
X311117Y131373D01*
X311181Y131272D01*
X311211Y131244D01*
X311234Y131211D01*
X311326Y131136D01*
X311413Y131054D01*
X311448Y131034D01*
X311479Y131009D01*
X311587Y130958D01*
X311691Y130900D01*
X311731Y130890D01*
X311767Y130873D01*
X311884Y130851D01*
X311999Y130821D01*
X312059Y130817D01*
X312079Y130813D01*
X312100Y130815D01*
X312160Y130811D01*
X315841Y130811D01*
X315841Y122607D01*
X315551Y121150D01*
X314983Y119778D01*
X314157Y118543D01*
X313107Y117493D01*
X311872Y116667D01*
X310500Y116099D01*
X309043Y115809D01*
X305839Y115809D01*
X305839Y120990D01*
G37*
%LPD*%
%LPC*%
G36*
X365839Y120990D02*
X365839Y120990D01*
X365824Y121108D01*
X365817Y121227D01*
X365804Y121265D01*
X365799Y121306D01*
X365755Y121416D01*
X365719Y121529D01*
X365697Y121564D01*
X365682Y121601D01*
X365612Y121697D01*
X365549Y121798D01*
X365519Y121826D01*
X365495Y121859D01*
X365404Y121935D01*
X365317Y122016D01*
X365282Y122036D01*
X365250Y122061D01*
X365143Y122112D01*
X365039Y122170D01*
X364999Y122180D01*
X364963Y122197D01*
X364846Y122219D01*
X364731Y122249D01*
X364670Y122253D01*
X364650Y122257D01*
X364630Y122255D01*
X364570Y122259D01*
X362030Y122259D01*
X361912Y122244D01*
X361793Y122237D01*
X361755Y122224D01*
X361715Y122219D01*
X361604Y122176D01*
X361491Y122139D01*
X361456Y122117D01*
X361419Y122102D01*
X361323Y122033D01*
X361222Y121969D01*
X361194Y121939D01*
X361161Y121916D01*
X361086Y121824D01*
X361004Y121737D01*
X360984Y121702D01*
X360959Y121671D01*
X360908Y121563D01*
X360850Y121459D01*
X360840Y121419D01*
X360823Y121383D01*
X360801Y121266D01*
X360771Y121151D01*
X360767Y121091D01*
X360763Y121071D01*
X360765Y121050D01*
X360761Y120990D01*
X360761Y115809D01*
X357557Y115809D01*
X356100Y116099D01*
X354728Y116667D01*
X353493Y117493D01*
X352443Y118543D01*
X351617Y119778D01*
X351049Y121150D01*
X350759Y122607D01*
X350759Y130811D01*
X354440Y130811D01*
X354558Y130826D01*
X354677Y130833D01*
X354715Y130846D01*
X354756Y130851D01*
X354866Y130894D01*
X354979Y130931D01*
X355014Y130953D01*
X355051Y130968D01*
X355147Y131038D01*
X355248Y131101D01*
X355276Y131131D01*
X355309Y131155D01*
X355385Y131246D01*
X355466Y131333D01*
X355486Y131368D01*
X355511Y131399D01*
X355562Y131507D01*
X355620Y131611D01*
X355630Y131651D01*
X355647Y131687D01*
X355669Y131804D01*
X355699Y131919D01*
X355703Y131980D01*
X355707Y132000D01*
X355705Y132020D01*
X355709Y132080D01*
X355709Y134620D01*
X355694Y134738D01*
X355687Y134857D01*
X355674Y134895D01*
X355669Y134935D01*
X355626Y135046D01*
X355589Y135159D01*
X355567Y135194D01*
X355552Y135231D01*
X355483Y135327D01*
X355419Y135428D01*
X355389Y135456D01*
X355366Y135488D01*
X355274Y135564D01*
X355187Y135646D01*
X355152Y135665D01*
X355121Y135691D01*
X355013Y135742D01*
X354909Y135799D01*
X354869Y135810D01*
X354833Y135827D01*
X354716Y135849D01*
X354601Y135879D01*
X354541Y135883D01*
X354521Y135887D01*
X354500Y135885D01*
X354440Y135889D01*
X350759Y135889D01*
X350759Y144093D01*
X351049Y145550D01*
X351617Y146922D01*
X352443Y148157D01*
X353493Y149207D01*
X354728Y150033D01*
X356100Y150601D01*
X357557Y150891D01*
X360761Y150891D01*
X360761Y145710D01*
X360776Y145592D01*
X360783Y145473D01*
X360796Y145435D01*
X360801Y145394D01*
X360844Y145284D01*
X360881Y145171D01*
X360903Y145136D01*
X360918Y145099D01*
X360988Y145003D01*
X361051Y144902D01*
X361081Y144874D01*
X361105Y144841D01*
X361196Y144765D01*
X361283Y144684D01*
X361318Y144664D01*
X361349Y144639D01*
X361457Y144588D01*
X361561Y144530D01*
X361601Y144520D01*
X361637Y144503D01*
X361754Y144481D01*
X361869Y144451D01*
X361930Y144447D01*
X361950Y144443D01*
X361970Y144445D01*
X362030Y144441D01*
X364570Y144441D01*
X364688Y144456D01*
X364807Y144463D01*
X364845Y144476D01*
X364885Y144481D01*
X364996Y144524D01*
X365109Y144561D01*
X365144Y144583D01*
X365181Y144598D01*
X365277Y144667D01*
X365378Y144731D01*
X365406Y144761D01*
X365438Y144784D01*
X365514Y144876D01*
X365596Y144963D01*
X365615Y144998D01*
X365641Y145029D01*
X365692Y145137D01*
X365749Y145241D01*
X365760Y145281D01*
X365777Y145317D01*
X365799Y145434D01*
X365829Y145549D01*
X365833Y145609D01*
X365837Y145629D01*
X365835Y145650D01*
X365839Y145710D01*
X365839Y150891D01*
X369043Y150891D01*
X370500Y150601D01*
X371872Y150033D01*
X373107Y149207D01*
X374157Y148157D01*
X374983Y146922D01*
X375551Y145550D01*
X375841Y144093D01*
X375841Y135889D01*
X372160Y135889D01*
X372042Y135874D01*
X371923Y135867D01*
X371885Y135854D01*
X371844Y135849D01*
X371734Y135805D01*
X371621Y135769D01*
X371586Y135747D01*
X371549Y135732D01*
X371453Y135662D01*
X371352Y135599D01*
X371324Y135569D01*
X371291Y135545D01*
X371215Y135454D01*
X371134Y135367D01*
X371114Y135332D01*
X371089Y135300D01*
X371038Y135193D01*
X370980Y135089D01*
X370970Y135049D01*
X370953Y135013D01*
X370931Y134896D01*
X370901Y134781D01*
X370897Y134720D01*
X370893Y134700D01*
X370894Y134689D01*
X370893Y134685D01*
X370894Y134672D01*
X370891Y134620D01*
X370891Y132080D01*
X370906Y131962D01*
X370913Y131843D01*
X370926Y131805D01*
X370931Y131765D01*
X370974Y131654D01*
X371011Y131541D01*
X371033Y131506D01*
X371048Y131469D01*
X371117Y131373D01*
X371181Y131272D01*
X371211Y131244D01*
X371234Y131211D01*
X371326Y131136D01*
X371413Y131054D01*
X371448Y131034D01*
X371479Y131009D01*
X371587Y130958D01*
X371691Y130900D01*
X371731Y130890D01*
X371767Y130873D01*
X371884Y130851D01*
X371999Y130821D01*
X372059Y130817D01*
X372079Y130813D01*
X372100Y130815D01*
X372160Y130811D01*
X375841Y130811D01*
X375841Y122607D01*
X375551Y121150D01*
X374983Y119778D01*
X374157Y118543D01*
X373107Y117493D01*
X371872Y116667D01*
X370500Y116099D01*
X369043Y115809D01*
X365839Y115809D01*
X365839Y120990D01*
G37*
%LPD*%
D10*
X342900Y342646D03*
X317500Y342646D03*
X292100Y342646D03*
X266700Y342646D03*
X241300Y342646D03*
X241300Y215900D03*
X266700Y215900D03*
X292100Y215900D03*
X317500Y215900D03*
X342900Y215900D03*
D11*
X203200Y336550D03*
X203200Y222250D03*
D12*
X50800Y25400D03*
X125730Y25400D03*
X88265Y25400D03*
D13*
X138811Y125222D03*
X37719Y125222D03*
D14*
X215900Y174000D03*
D15*
X215900Y127000D03*
X215900Y80000D03*
D16*
X63500Y229400D03*
X63500Y279400D03*
X63500Y329400D03*
D17*
X308300Y143350D02*
X308300Y123350D01*
X298300Y123350D01*
X298300Y143350D01*
X308300Y143350D01*
X308300Y132850D02*
X298300Y132850D01*
X298300Y142350D02*
X308300Y142350D01*
X368300Y143350D02*
X368300Y123350D01*
X358300Y123350D01*
X358300Y143350D01*
X368300Y143350D01*
X368300Y132850D02*
X358300Y132850D01*
X358300Y142350D02*
X368300Y142350D01*
X343300Y175350D02*
X323300Y175350D01*
X323300Y185350D01*
X343300Y185350D01*
X343300Y175350D01*
X343300Y184850D02*
X323300Y184850D01*
D18*
X133350Y330200D03*
X393700Y38100D03*
D19*
X165100Y38100D03*
X266700Y38100D03*
D20*
X400050Y120650D03*
X387350Y120650D03*
X387350Y133350D03*
X387350Y146050D03*
X400050Y133350D03*
X400050Y146050D03*
X298450Y101600D03*
X311150Y101600D03*
X323850Y101600D03*
X323850Y88900D03*
X311150Y88900D03*
X298450Y88900D03*
X298450Y76200D03*
X311150Y76200D03*
X323850Y76200D03*
M02*
