G04 EAGLE Gerber RS-274X export*
G75*
%MOMM*%
%FSLAX34Y34*%
%LPD*%
%INSilkscreen Top*%
%IPPOS*%
%AMOC8*
5,1,8,0,0,1.08239X$1,22.5*%
G01*
%ADD10C,0.152400*%
%ADD11R,1.346200X0.012700*%
%ADD12R,1.435100X0.012700*%
%ADD13R,1.447800X0.012700*%
%ADD14R,1.460500X0.012700*%
%ADD15R,1.473200X0.012700*%
%ADD16R,1.485900X0.012700*%
%ADD17R,3.886200X0.012700*%
%ADD18R,3.873500X0.012700*%
%ADD19R,3.860800X0.012700*%
%ADD20R,3.848100X0.012700*%
%ADD21R,3.835400X0.012700*%
%ADD22R,3.822700X0.012700*%
%ADD23R,3.810000X0.012700*%
%ADD24R,3.797300X0.012700*%
%ADD25R,3.784600X0.012700*%
%ADD26R,3.771900X0.012700*%
%ADD27R,3.759200X0.012700*%
%ADD28R,3.746500X0.012700*%
%ADD29R,3.733800X0.012700*%
%ADD30R,3.721100X0.012700*%
%ADD31R,3.708400X0.012700*%
%ADD32R,3.695700X0.012700*%
%ADD33R,3.683000X0.012700*%
%ADD34R,3.670300X0.012700*%
%ADD35R,3.657600X0.012700*%
%ADD36R,3.644900X0.012700*%
%ADD37R,3.632200X0.012700*%
%ADD38R,3.619500X0.012700*%
%ADD39R,3.606800X0.012700*%
%ADD40R,3.594100X0.012700*%
%ADD41R,3.581400X0.012700*%
%ADD42R,3.568700X0.012700*%
%ADD43R,3.556000X0.012700*%
%ADD44R,3.543300X0.012700*%
%ADD45R,3.530600X0.012700*%
%ADD46R,3.517900X0.012700*%
%ADD47R,3.505200X0.012700*%
%ADD48R,3.492500X0.012700*%
%ADD49R,3.479800X0.012700*%
%ADD50R,3.467100X0.012700*%
%ADD51R,3.454400X0.012700*%
%ADD52R,3.441700X0.012700*%
%ADD53R,3.429000X0.012700*%
%ADD54R,3.416300X0.012700*%
%ADD55R,1.333500X0.012700*%
%ADD56R,1.358900X0.012700*%
%ADD57R,1.371600X0.012700*%
%ADD58R,1.384300X0.012700*%
%ADD59R,1.397000X0.012700*%
%ADD60R,1.409700X0.012700*%
%ADD61R,1.422400X0.012700*%
%ADD62R,1.498600X0.012700*%
%ADD63R,1.511300X0.012700*%
%ADD64R,1.524000X0.012700*%
%ADD65R,1.536700X0.012700*%
%ADD66R,1.549400X0.012700*%
%ADD67R,1.574800X0.012700*%
%ADD68R,1.587500X0.012700*%
%ADD69R,1.600200X0.012700*%
%ADD70R,1.625600X0.012700*%
%ADD71R,1.651000X0.012700*%
%ADD72R,1.676400X0.012700*%
%ADD73R,1.701800X0.012700*%
%ADD74R,1.714500X0.012700*%
%ADD75R,1.739900X0.012700*%
%ADD76R,1.765300X0.012700*%
%ADD77R,1.790700X0.012700*%
%ADD78R,1.828800X0.012700*%
%ADD79R,1.866900X0.012700*%
%ADD80R,1.892300X0.012700*%
%ADD81R,1.943100X0.012700*%
%ADD82R,2.019300X0.012700*%
%ADD83R,2.082800X0.012700*%
%ADD84R,2.222500X0.012700*%
%ADD85R,4.622800X0.012700*%
%ADD86R,4.610100X0.012700*%
%ADD87R,4.597400X0.012700*%
%ADD88R,4.584700X0.012700*%
%ADD89R,4.572000X0.012700*%
%ADD90R,4.559300X0.012700*%
%ADD91R,4.546600X0.012700*%
%ADD92R,4.533900X0.012700*%
%ADD93R,4.521200X0.012700*%
%ADD94R,4.508500X0.012700*%
%ADD95R,4.495800X0.012700*%
%ADD96R,4.483100X0.012700*%
%ADD97R,4.470400X0.012700*%
%ADD98R,4.457700X0.012700*%
%ADD99R,4.445000X0.012700*%
%ADD100R,4.432300X0.012700*%
%ADD101R,4.419600X0.012700*%
%ADD102R,4.406900X0.012700*%
%ADD103R,4.394200X0.012700*%
%ADD104R,4.381500X0.012700*%
%ADD105R,4.368800X0.012700*%
%ADD106R,4.356100X0.012700*%
%ADD107R,4.343400X0.012700*%
%ADD108R,4.330700X0.012700*%
%ADD109R,4.318000X0.012700*%
%ADD110R,4.305300X0.012700*%
%ADD111R,4.292600X0.012700*%
%ADD112R,4.279900X0.012700*%
%ADD113R,4.267200X0.012700*%
%ADD114R,4.254500X0.012700*%
%ADD115R,4.241800X0.012700*%
%ADD116R,4.229100X0.012700*%
%ADD117R,4.203700X0.012700*%
%ADD118R,4.191000X0.012700*%
%ADD119R,4.178300X0.012700*%
%ADD120R,4.165600X0.012700*%
%ADD121R,4.140200X0.012700*%
%ADD122R,4.127500X0.012700*%
%ADD123R,4.114800X0.012700*%
%ADD124R,4.089400X0.012700*%
%ADD125R,4.076700X0.012700*%
%ADD126R,4.051300X0.012700*%
%ADD127R,4.038600X0.012700*%
%ADD128R,4.013200X0.012700*%
%ADD129R,4.000500X0.012700*%
%ADD130R,3.975100X0.012700*%
%ADD131R,3.949700X0.012700*%
%ADD132R,3.924300X0.012700*%
%ADD133R,3.898900X0.012700*%
%ADD134R,3.378200X0.012700*%
%ADD135R,3.327400X0.012700*%
%ADD136R,3.263900X0.012700*%
%ADD137R,3.200400X0.012700*%
%ADD138R,3.124200X0.012700*%
%ADD139R,3.048000X0.012700*%
%ADD140R,2.933700X0.012700*%
%ADD141R,2.794000X0.012700*%
%ADD142R,2.552700X0.012700*%
%ADD143C,0.254000*%
%ADD144C,0.355600*%
%ADD145C,0.203200*%
%ADD146C,0.000000*%
%ADD147C,0.127000*%
%ADD148C,0.200000*%
%ADD149C,0.400000*%
%ADD150R,0.863600X0.609600*%


D10*
X47639Y41402D02*
X42672Y41402D01*
X42672Y52578D01*
X47639Y52578D01*
X46397Y47611D02*
X42672Y47611D01*
X52550Y52578D02*
X52550Y41402D01*
X58759Y41402D02*
X52550Y52578D01*
X58759Y52578D02*
X58759Y41402D01*
X69088Y47611D02*
X70951Y47611D01*
X70951Y41402D01*
X67225Y41402D01*
X67127Y41404D01*
X67030Y41410D01*
X66933Y41419D01*
X66836Y41433D01*
X66740Y41450D01*
X66645Y41471D01*
X66551Y41495D01*
X66457Y41524D01*
X66365Y41556D01*
X66274Y41591D01*
X66185Y41630D01*
X66097Y41673D01*
X66011Y41719D01*
X65927Y41768D01*
X65845Y41821D01*
X65765Y41876D01*
X65687Y41935D01*
X65612Y41997D01*
X65539Y42062D01*
X65469Y42130D01*
X65401Y42200D01*
X65336Y42273D01*
X65274Y42348D01*
X65215Y42426D01*
X65160Y42506D01*
X65107Y42588D01*
X65058Y42672D01*
X65012Y42758D01*
X64969Y42846D01*
X64930Y42935D01*
X64895Y43026D01*
X64863Y43118D01*
X64834Y43212D01*
X64810Y43306D01*
X64789Y43401D01*
X64772Y43497D01*
X64758Y43594D01*
X64749Y43691D01*
X64743Y43788D01*
X64741Y43886D01*
X64742Y43886D02*
X64742Y50094D01*
X64741Y50094D02*
X64743Y50192D01*
X64749Y50289D01*
X64758Y50386D01*
X64772Y50483D01*
X64789Y50579D01*
X64810Y50674D01*
X64834Y50768D01*
X64863Y50862D01*
X64895Y50954D01*
X64930Y51045D01*
X64969Y51134D01*
X65012Y51222D01*
X65058Y51308D01*
X65107Y51392D01*
X65160Y51474D01*
X65215Y51554D01*
X65274Y51632D01*
X65336Y51707D01*
X65401Y51780D01*
X65469Y51850D01*
X65539Y51918D01*
X65612Y51983D01*
X65687Y52045D01*
X65765Y52104D01*
X65845Y52159D01*
X65927Y52212D01*
X66011Y52261D01*
X66097Y52307D01*
X66185Y52350D01*
X66274Y52389D01*
X66365Y52424D01*
X66457Y52456D01*
X66551Y52485D01*
X66645Y52509D01*
X66740Y52530D01*
X66836Y52547D01*
X66933Y52561D01*
X67030Y52570D01*
X67127Y52576D01*
X67225Y52578D01*
X70951Y52578D01*
X77371Y52578D02*
X77371Y41402D01*
X76129Y41402D02*
X78613Y41402D01*
X78613Y52578D02*
X76129Y52578D01*
X89507Y41402D02*
X92611Y41402D01*
X92722Y41404D01*
X92832Y41410D01*
X92943Y41420D01*
X93053Y41434D01*
X93162Y41451D01*
X93271Y41473D01*
X93379Y41498D01*
X93485Y41528D01*
X93591Y41561D01*
X93696Y41598D01*
X93799Y41638D01*
X93900Y41683D01*
X94000Y41730D01*
X94099Y41782D01*
X94195Y41837D01*
X94289Y41895D01*
X94381Y41956D01*
X94471Y42021D01*
X94559Y42089D01*
X94644Y42160D01*
X94726Y42234D01*
X94806Y42311D01*
X94883Y42391D01*
X94957Y42473D01*
X95028Y42558D01*
X95096Y42646D01*
X95161Y42736D01*
X95222Y42828D01*
X95280Y42922D01*
X95335Y43018D01*
X95387Y43117D01*
X95434Y43217D01*
X95479Y43318D01*
X95519Y43421D01*
X95556Y43526D01*
X95589Y43632D01*
X95619Y43738D01*
X95644Y43846D01*
X95666Y43955D01*
X95683Y44064D01*
X95697Y44174D01*
X95707Y44285D01*
X95713Y44395D01*
X95715Y44506D01*
X95713Y44617D01*
X95707Y44727D01*
X95697Y44838D01*
X95683Y44948D01*
X95666Y45057D01*
X95644Y45166D01*
X95619Y45274D01*
X95589Y45380D01*
X95556Y45486D01*
X95519Y45591D01*
X95479Y45694D01*
X95434Y45795D01*
X95387Y45895D01*
X95335Y45994D01*
X95280Y46090D01*
X95222Y46184D01*
X95161Y46276D01*
X95096Y46366D01*
X95028Y46454D01*
X94957Y46539D01*
X94883Y46621D01*
X94806Y46701D01*
X94726Y46778D01*
X94644Y46852D01*
X94559Y46923D01*
X94471Y46991D01*
X94381Y47056D01*
X94289Y47117D01*
X94195Y47175D01*
X94099Y47230D01*
X94000Y47282D01*
X93900Y47329D01*
X93799Y47374D01*
X93696Y47414D01*
X93591Y47451D01*
X93485Y47484D01*
X93379Y47514D01*
X93271Y47539D01*
X93162Y47561D01*
X93053Y47578D01*
X92943Y47592D01*
X92832Y47602D01*
X92722Y47608D01*
X92611Y47610D01*
X93232Y52578D02*
X89507Y52578D01*
X93232Y52578D02*
X93331Y52576D01*
X93429Y52570D01*
X93528Y52560D01*
X93625Y52547D01*
X93723Y52529D01*
X93819Y52508D01*
X93915Y52482D01*
X94009Y52453D01*
X94102Y52421D01*
X94194Y52384D01*
X94284Y52344D01*
X94373Y52300D01*
X94460Y52253D01*
X94545Y52203D01*
X94627Y52149D01*
X94708Y52092D01*
X94786Y52032D01*
X94862Y51968D01*
X94935Y51902D01*
X95006Y51833D01*
X95074Y51761D01*
X95138Y51686D01*
X95200Y51609D01*
X95259Y51530D01*
X95314Y51448D01*
X95367Y51364D01*
X95415Y51279D01*
X95461Y51191D01*
X95503Y51101D01*
X95541Y51010D01*
X95575Y50918D01*
X95606Y50824D01*
X95633Y50729D01*
X95657Y50633D01*
X95676Y50536D01*
X95692Y50439D01*
X95704Y50341D01*
X95712Y50242D01*
X95716Y50143D01*
X95716Y50045D01*
X95712Y49946D01*
X95704Y49847D01*
X95692Y49749D01*
X95676Y49652D01*
X95657Y49555D01*
X95633Y49459D01*
X95606Y49364D01*
X95575Y49270D01*
X95541Y49178D01*
X95503Y49087D01*
X95461Y48997D01*
X95415Y48909D01*
X95367Y48824D01*
X95314Y48740D01*
X95259Y48658D01*
X95200Y48579D01*
X95138Y48502D01*
X95074Y48427D01*
X95006Y48355D01*
X94935Y48286D01*
X94862Y48220D01*
X94786Y48156D01*
X94708Y48096D01*
X94627Y48039D01*
X94545Y47985D01*
X94460Y47935D01*
X94373Y47888D01*
X94284Y47844D01*
X94194Y47804D01*
X94102Y47767D01*
X94009Y47735D01*
X93915Y47706D01*
X93819Y47680D01*
X93723Y47659D01*
X93625Y47641D01*
X93528Y47628D01*
X93429Y47618D01*
X93331Y47612D01*
X93232Y47610D01*
X93232Y47611D02*
X90748Y47611D01*
X100937Y46990D02*
X100940Y47210D01*
X100947Y47430D01*
X100961Y47649D01*
X100979Y47868D01*
X101003Y48087D01*
X101031Y48305D01*
X101065Y48522D01*
X101104Y48738D01*
X101149Y48954D01*
X101198Y49168D01*
X101253Y49381D01*
X101312Y49593D01*
X101377Y49803D01*
X101447Y50011D01*
X101521Y50218D01*
X101601Y50423D01*
X101685Y50626D01*
X101774Y50827D01*
X101868Y51026D01*
X101901Y51115D01*
X101937Y51203D01*
X101977Y51289D01*
X102020Y51374D01*
X102067Y51456D01*
X102118Y51537D01*
X102171Y51615D01*
X102228Y51691D01*
X102288Y51765D01*
X102351Y51836D01*
X102416Y51905D01*
X102485Y51971D01*
X102556Y52033D01*
X102630Y52093D01*
X102706Y52150D01*
X102784Y52204D01*
X102865Y52254D01*
X102947Y52301D01*
X103032Y52344D01*
X103118Y52384D01*
X103206Y52421D01*
X103295Y52453D01*
X103385Y52482D01*
X103477Y52508D01*
X103569Y52529D01*
X103663Y52547D01*
X103757Y52560D01*
X103851Y52570D01*
X103946Y52576D01*
X104041Y52578D01*
X104136Y52576D01*
X104231Y52570D01*
X104325Y52560D01*
X104419Y52547D01*
X104513Y52529D01*
X104605Y52508D01*
X104697Y52482D01*
X104787Y52453D01*
X104876Y52421D01*
X104964Y52384D01*
X105050Y52344D01*
X105135Y52301D01*
X105217Y52254D01*
X105298Y52204D01*
X105376Y52150D01*
X105452Y52093D01*
X105526Y52033D01*
X105597Y51971D01*
X105666Y51905D01*
X105731Y51836D01*
X105794Y51765D01*
X105854Y51691D01*
X105911Y51615D01*
X105964Y51537D01*
X106015Y51456D01*
X106062Y51373D01*
X106105Y51289D01*
X106145Y51203D01*
X106181Y51115D01*
X106214Y51026D01*
X106215Y51026D02*
X106309Y50827D01*
X106398Y50626D01*
X106482Y50423D01*
X106562Y50218D01*
X106636Y50011D01*
X106706Y49803D01*
X106771Y49593D01*
X106830Y49381D01*
X106885Y49168D01*
X106934Y48954D01*
X106979Y48738D01*
X107018Y48522D01*
X107052Y48305D01*
X107080Y48087D01*
X107104Y47868D01*
X107122Y47649D01*
X107136Y47430D01*
X107143Y47210D01*
X107146Y46990D01*
X100937Y46990D02*
X100940Y46770D01*
X100947Y46550D01*
X100961Y46331D01*
X100979Y46112D01*
X101003Y45893D01*
X101031Y45675D01*
X101065Y45458D01*
X101104Y45242D01*
X101149Y45026D01*
X101198Y44812D01*
X101253Y44599D01*
X101312Y44388D01*
X101377Y44177D01*
X101447Y43969D01*
X101521Y43762D01*
X101601Y43557D01*
X101685Y43354D01*
X101774Y43153D01*
X101868Y42954D01*
X101901Y42865D01*
X101937Y42777D01*
X101977Y42691D01*
X102020Y42606D01*
X102067Y42524D01*
X102118Y42443D01*
X102171Y42365D01*
X102228Y42289D01*
X102288Y42215D01*
X102351Y42144D01*
X102416Y42075D01*
X102485Y42009D01*
X102556Y41947D01*
X102630Y41887D01*
X102706Y41830D01*
X102784Y41776D01*
X102865Y41726D01*
X102947Y41679D01*
X103032Y41636D01*
X103118Y41596D01*
X103206Y41559D01*
X103295Y41527D01*
X103385Y41498D01*
X103477Y41472D01*
X103569Y41451D01*
X103663Y41433D01*
X103757Y41420D01*
X103851Y41410D01*
X103946Y41404D01*
X104041Y41402D01*
X106215Y42954D02*
X106309Y43153D01*
X106398Y43354D01*
X106482Y43557D01*
X106562Y43762D01*
X106636Y43969D01*
X106706Y44177D01*
X106771Y44387D01*
X106830Y44599D01*
X106885Y44812D01*
X106934Y45026D01*
X106979Y45242D01*
X107018Y45458D01*
X107052Y45675D01*
X107080Y45893D01*
X107104Y46112D01*
X107122Y46331D01*
X107136Y46550D01*
X107143Y46770D01*
X107146Y46990D01*
X106214Y42954D02*
X106181Y42865D01*
X106145Y42777D01*
X106105Y42691D01*
X106062Y42606D01*
X106015Y42524D01*
X105964Y42443D01*
X105911Y42365D01*
X105854Y42289D01*
X105794Y42215D01*
X105731Y42144D01*
X105666Y42075D01*
X105597Y42009D01*
X105526Y41947D01*
X105452Y41887D01*
X105376Y41830D01*
X105298Y41776D01*
X105217Y41726D01*
X105135Y41679D01*
X105050Y41636D01*
X104964Y41596D01*
X104876Y41559D01*
X104787Y41527D01*
X104697Y41498D01*
X104605Y41472D01*
X104513Y41451D01*
X104419Y41433D01*
X104325Y41420D01*
X104231Y41410D01*
X104136Y41404D01*
X104041Y41402D01*
X101558Y43886D02*
X106525Y50094D01*
X112367Y50094D02*
X115471Y52578D01*
X115471Y41402D01*
X112367Y41402D02*
X118576Y41402D01*
X149352Y18288D02*
X149352Y7112D01*
X154319Y7112D01*
X159258Y7112D02*
X164225Y7112D01*
X159258Y7112D02*
X159258Y18288D01*
X164225Y18288D01*
X162983Y13321D02*
X159258Y13321D01*
X169136Y18288D02*
X169136Y7112D01*
X169136Y18288D02*
X172240Y18288D01*
X172351Y18286D01*
X172461Y18280D01*
X172572Y18270D01*
X172682Y18256D01*
X172791Y18239D01*
X172900Y18217D01*
X173008Y18192D01*
X173114Y18162D01*
X173220Y18129D01*
X173325Y18092D01*
X173428Y18052D01*
X173529Y18007D01*
X173629Y17960D01*
X173728Y17908D01*
X173824Y17853D01*
X173918Y17795D01*
X174010Y17734D01*
X174100Y17669D01*
X174188Y17601D01*
X174273Y17530D01*
X174355Y17456D01*
X174435Y17379D01*
X174512Y17299D01*
X174586Y17217D01*
X174657Y17132D01*
X174725Y17044D01*
X174790Y16954D01*
X174851Y16862D01*
X174909Y16768D01*
X174964Y16672D01*
X175016Y16573D01*
X175063Y16473D01*
X175108Y16372D01*
X175148Y16269D01*
X175185Y16164D01*
X175218Y16058D01*
X175248Y15952D01*
X175273Y15844D01*
X175295Y15735D01*
X175312Y15626D01*
X175326Y15516D01*
X175336Y15405D01*
X175342Y15295D01*
X175344Y15184D01*
X175345Y15184D02*
X175345Y10216D01*
X175344Y10216D02*
X175342Y10105D01*
X175336Y9995D01*
X175326Y9884D01*
X175312Y9774D01*
X175295Y9665D01*
X175273Y9556D01*
X175248Y9448D01*
X175218Y9342D01*
X175185Y9236D01*
X175148Y9131D01*
X175108Y9028D01*
X175063Y8927D01*
X175016Y8827D01*
X174964Y8728D01*
X174909Y8632D01*
X174851Y8538D01*
X174790Y8446D01*
X174725Y8356D01*
X174657Y8268D01*
X174586Y8183D01*
X174512Y8101D01*
X174435Y8021D01*
X174355Y7944D01*
X174273Y7870D01*
X174188Y7799D01*
X174100Y7731D01*
X174010Y7666D01*
X173918Y7605D01*
X173824Y7547D01*
X173728Y7492D01*
X173629Y7440D01*
X173529Y7393D01*
X173428Y7348D01*
X173325Y7308D01*
X173220Y7271D01*
X173114Y7238D01*
X173008Y7208D01*
X172900Y7183D01*
X172791Y7161D01*
X172682Y7144D01*
X172572Y7130D01*
X172461Y7120D01*
X172351Y7114D01*
X172240Y7112D01*
X169136Y7112D01*
X189485Y7112D02*
X191968Y7112D01*
X189485Y7112D02*
X189387Y7114D01*
X189290Y7120D01*
X189193Y7129D01*
X189096Y7143D01*
X189000Y7160D01*
X188905Y7181D01*
X188811Y7205D01*
X188717Y7234D01*
X188625Y7266D01*
X188534Y7301D01*
X188445Y7340D01*
X188357Y7383D01*
X188271Y7429D01*
X188187Y7478D01*
X188105Y7531D01*
X188025Y7586D01*
X187947Y7645D01*
X187872Y7707D01*
X187799Y7772D01*
X187729Y7840D01*
X187661Y7910D01*
X187596Y7983D01*
X187534Y8058D01*
X187475Y8136D01*
X187420Y8216D01*
X187367Y8298D01*
X187318Y8382D01*
X187272Y8468D01*
X187229Y8556D01*
X187190Y8645D01*
X187155Y8736D01*
X187123Y8828D01*
X187094Y8922D01*
X187070Y9016D01*
X187049Y9111D01*
X187032Y9207D01*
X187018Y9304D01*
X187009Y9401D01*
X187003Y9498D01*
X187001Y9596D01*
X187001Y15804D01*
X187003Y15902D01*
X187009Y15999D01*
X187018Y16096D01*
X187032Y16193D01*
X187049Y16289D01*
X187070Y16384D01*
X187094Y16478D01*
X187123Y16572D01*
X187155Y16664D01*
X187190Y16755D01*
X187229Y16844D01*
X187272Y16932D01*
X187318Y17018D01*
X187367Y17102D01*
X187420Y17184D01*
X187475Y17264D01*
X187534Y17342D01*
X187596Y17417D01*
X187661Y17490D01*
X187729Y17560D01*
X187799Y17628D01*
X187872Y17693D01*
X187947Y17755D01*
X188025Y17814D01*
X188105Y17869D01*
X188187Y17922D01*
X188271Y17971D01*
X188357Y18017D01*
X188445Y18060D01*
X188534Y18099D01*
X188625Y18134D01*
X188717Y18166D01*
X188811Y18195D01*
X188905Y18219D01*
X189000Y18240D01*
X189096Y18257D01*
X189193Y18271D01*
X189290Y18280D01*
X189387Y18286D01*
X189485Y18288D01*
X191968Y18288D01*
X196427Y12079D02*
X196427Y9596D01*
X196426Y12079D02*
X196428Y12178D01*
X196434Y12276D01*
X196444Y12375D01*
X196457Y12472D01*
X196475Y12570D01*
X196496Y12666D01*
X196522Y12762D01*
X196551Y12856D01*
X196583Y12949D01*
X196620Y13041D01*
X196660Y13131D01*
X196704Y13220D01*
X196751Y13307D01*
X196801Y13392D01*
X196855Y13474D01*
X196912Y13555D01*
X196972Y13633D01*
X197036Y13709D01*
X197102Y13782D01*
X197171Y13853D01*
X197243Y13921D01*
X197318Y13985D01*
X197395Y14047D01*
X197474Y14106D01*
X197556Y14161D01*
X197640Y14214D01*
X197725Y14262D01*
X197813Y14308D01*
X197903Y14350D01*
X197994Y14388D01*
X198086Y14422D01*
X198180Y14453D01*
X198275Y14480D01*
X198371Y14504D01*
X198468Y14523D01*
X198565Y14539D01*
X198663Y14551D01*
X198762Y14559D01*
X198861Y14563D01*
X198959Y14563D01*
X199058Y14559D01*
X199157Y14551D01*
X199255Y14539D01*
X199352Y14523D01*
X199449Y14504D01*
X199545Y14480D01*
X199640Y14453D01*
X199734Y14422D01*
X199826Y14388D01*
X199917Y14350D01*
X200007Y14308D01*
X200095Y14262D01*
X200180Y14214D01*
X200264Y14161D01*
X200346Y14106D01*
X200425Y14047D01*
X200502Y13985D01*
X200577Y13921D01*
X200649Y13853D01*
X200718Y13782D01*
X200784Y13709D01*
X200848Y13633D01*
X200908Y13555D01*
X200965Y13474D01*
X201019Y13392D01*
X201069Y13307D01*
X201116Y13220D01*
X201160Y13131D01*
X201200Y13041D01*
X201237Y12949D01*
X201269Y12856D01*
X201298Y12762D01*
X201324Y12666D01*
X201345Y12570D01*
X201363Y12472D01*
X201376Y12375D01*
X201386Y12276D01*
X201392Y12178D01*
X201394Y12079D01*
X201394Y9596D01*
X201392Y9497D01*
X201386Y9399D01*
X201376Y9300D01*
X201363Y9203D01*
X201345Y9105D01*
X201324Y9009D01*
X201298Y8913D01*
X201269Y8819D01*
X201237Y8726D01*
X201200Y8634D01*
X201160Y8544D01*
X201116Y8455D01*
X201069Y8368D01*
X201019Y8283D01*
X200965Y8201D01*
X200908Y8120D01*
X200848Y8042D01*
X200784Y7966D01*
X200718Y7893D01*
X200649Y7822D01*
X200577Y7754D01*
X200502Y7690D01*
X200425Y7628D01*
X200346Y7569D01*
X200264Y7514D01*
X200180Y7461D01*
X200095Y7413D01*
X200007Y7367D01*
X199917Y7325D01*
X199826Y7287D01*
X199734Y7253D01*
X199640Y7222D01*
X199545Y7195D01*
X199449Y7171D01*
X199352Y7152D01*
X199255Y7136D01*
X199157Y7124D01*
X199058Y7116D01*
X198959Y7112D01*
X198861Y7112D01*
X198762Y7116D01*
X198663Y7124D01*
X198565Y7136D01*
X198468Y7152D01*
X198371Y7171D01*
X198275Y7195D01*
X198180Y7222D01*
X198086Y7253D01*
X197994Y7287D01*
X197903Y7325D01*
X197813Y7367D01*
X197725Y7413D01*
X197640Y7461D01*
X197556Y7514D01*
X197474Y7569D01*
X197395Y7628D01*
X197318Y7690D01*
X197243Y7754D01*
X197171Y7822D01*
X197102Y7893D01*
X197036Y7966D01*
X196972Y8042D01*
X196912Y8120D01*
X196855Y8201D01*
X196801Y8283D01*
X196751Y8368D01*
X196704Y8455D01*
X196660Y8544D01*
X196620Y8634D01*
X196583Y8726D01*
X196551Y8819D01*
X196522Y8913D01*
X196496Y9009D01*
X196475Y9105D01*
X196457Y9203D01*
X196444Y9300D01*
X196434Y9399D01*
X196428Y9497D01*
X196426Y9596D01*
X206714Y7112D02*
X206714Y14563D01*
X209818Y14563D01*
X209902Y14561D01*
X209985Y14556D01*
X210068Y14546D01*
X210151Y14533D01*
X210233Y14516D01*
X210314Y14496D01*
X210394Y14472D01*
X210473Y14444D01*
X210550Y14413D01*
X210626Y14379D01*
X210701Y14341D01*
X210774Y14299D01*
X210844Y14255D01*
X210913Y14207D01*
X210980Y14157D01*
X211044Y14103D01*
X211105Y14047D01*
X211165Y13987D01*
X211221Y13926D01*
X211275Y13862D01*
X211325Y13795D01*
X211373Y13726D01*
X211417Y13656D01*
X211459Y13583D01*
X211497Y13508D01*
X211531Y13432D01*
X211562Y13355D01*
X211590Y13276D01*
X211614Y13196D01*
X211634Y13115D01*
X211651Y13033D01*
X211664Y12950D01*
X211674Y12867D01*
X211679Y12784D01*
X211681Y12700D01*
X211681Y7112D01*
X215982Y14563D02*
X219707Y14563D01*
X217224Y18288D02*
X217224Y8975D01*
X217223Y8975D02*
X217225Y8891D01*
X217230Y8808D01*
X217240Y8725D01*
X217253Y8642D01*
X217270Y8560D01*
X217290Y8479D01*
X217314Y8399D01*
X217342Y8320D01*
X217373Y8243D01*
X217407Y8167D01*
X217445Y8092D01*
X217487Y8019D01*
X217531Y7949D01*
X217579Y7880D01*
X217629Y7813D01*
X217683Y7749D01*
X217739Y7688D01*
X217799Y7628D01*
X217860Y7572D01*
X217924Y7518D01*
X217991Y7468D01*
X218060Y7420D01*
X218130Y7376D01*
X218203Y7334D01*
X218278Y7296D01*
X218354Y7262D01*
X218431Y7231D01*
X218510Y7203D01*
X218590Y7179D01*
X218671Y7159D01*
X218753Y7142D01*
X218836Y7129D01*
X218919Y7119D01*
X219002Y7114D01*
X219086Y7112D01*
X219707Y7112D01*
X224703Y7112D02*
X224703Y14563D01*
X228429Y14563D01*
X228429Y13321D01*
X232240Y12079D02*
X232240Y9596D01*
X232240Y12079D02*
X232242Y12178D01*
X232248Y12276D01*
X232258Y12375D01*
X232271Y12472D01*
X232289Y12570D01*
X232310Y12666D01*
X232336Y12762D01*
X232365Y12856D01*
X232397Y12949D01*
X232434Y13041D01*
X232474Y13131D01*
X232518Y13220D01*
X232565Y13307D01*
X232615Y13392D01*
X232669Y13474D01*
X232726Y13555D01*
X232786Y13633D01*
X232850Y13709D01*
X232916Y13782D01*
X232985Y13853D01*
X233057Y13921D01*
X233132Y13985D01*
X233209Y14047D01*
X233288Y14106D01*
X233370Y14161D01*
X233454Y14214D01*
X233539Y14262D01*
X233627Y14308D01*
X233717Y14350D01*
X233808Y14388D01*
X233900Y14422D01*
X233994Y14453D01*
X234089Y14480D01*
X234185Y14504D01*
X234282Y14523D01*
X234379Y14539D01*
X234477Y14551D01*
X234576Y14559D01*
X234675Y14563D01*
X234773Y14563D01*
X234872Y14559D01*
X234971Y14551D01*
X235069Y14539D01*
X235166Y14523D01*
X235263Y14504D01*
X235359Y14480D01*
X235454Y14453D01*
X235548Y14422D01*
X235640Y14388D01*
X235731Y14350D01*
X235821Y14308D01*
X235909Y14262D01*
X235994Y14214D01*
X236078Y14161D01*
X236160Y14106D01*
X236239Y14047D01*
X236316Y13985D01*
X236391Y13921D01*
X236463Y13853D01*
X236532Y13782D01*
X236598Y13709D01*
X236662Y13633D01*
X236722Y13555D01*
X236779Y13474D01*
X236833Y13392D01*
X236883Y13307D01*
X236930Y13220D01*
X236974Y13131D01*
X237014Y13041D01*
X237051Y12949D01*
X237083Y12856D01*
X237112Y12762D01*
X237138Y12666D01*
X237159Y12570D01*
X237177Y12472D01*
X237190Y12375D01*
X237200Y12276D01*
X237206Y12178D01*
X237208Y12079D01*
X237208Y9596D01*
X237206Y9497D01*
X237200Y9399D01*
X237190Y9300D01*
X237177Y9203D01*
X237159Y9105D01*
X237138Y9009D01*
X237112Y8913D01*
X237083Y8819D01*
X237051Y8726D01*
X237014Y8634D01*
X236974Y8544D01*
X236930Y8455D01*
X236883Y8368D01*
X236833Y8283D01*
X236779Y8201D01*
X236722Y8120D01*
X236662Y8042D01*
X236598Y7966D01*
X236532Y7893D01*
X236463Y7822D01*
X236391Y7754D01*
X236316Y7690D01*
X236239Y7628D01*
X236160Y7569D01*
X236078Y7514D01*
X235994Y7461D01*
X235909Y7413D01*
X235821Y7367D01*
X235731Y7325D01*
X235640Y7287D01*
X235548Y7253D01*
X235454Y7222D01*
X235359Y7195D01*
X235263Y7171D01*
X235166Y7152D01*
X235069Y7136D01*
X234971Y7124D01*
X234872Y7116D01*
X234773Y7112D01*
X234675Y7112D01*
X234576Y7116D01*
X234477Y7124D01*
X234379Y7136D01*
X234282Y7152D01*
X234185Y7171D01*
X234089Y7195D01*
X233994Y7222D01*
X233900Y7253D01*
X233808Y7287D01*
X233717Y7325D01*
X233627Y7367D01*
X233539Y7413D01*
X233454Y7461D01*
X233370Y7514D01*
X233288Y7569D01*
X233209Y7628D01*
X233132Y7690D01*
X233057Y7754D01*
X232985Y7822D01*
X232916Y7893D01*
X232850Y7966D01*
X232786Y8042D01*
X232726Y8120D01*
X232669Y8201D01*
X232615Y8283D01*
X232565Y8368D01*
X232518Y8455D01*
X232474Y8544D01*
X232434Y8634D01*
X232397Y8726D01*
X232365Y8819D01*
X232336Y8913D01*
X232310Y9009D01*
X232289Y9105D01*
X232271Y9203D01*
X232258Y9300D01*
X232248Y9399D01*
X232242Y9497D01*
X232240Y9596D01*
X242238Y8975D02*
X242238Y18288D01*
X242238Y8975D02*
X242240Y8891D01*
X242245Y8808D01*
X242255Y8725D01*
X242268Y8642D01*
X242285Y8560D01*
X242305Y8479D01*
X242329Y8399D01*
X242357Y8320D01*
X242388Y8243D01*
X242422Y8167D01*
X242460Y8092D01*
X242502Y8019D01*
X242546Y7949D01*
X242594Y7880D01*
X242644Y7813D01*
X242698Y7749D01*
X242754Y7688D01*
X242814Y7628D01*
X242875Y7572D01*
X242939Y7518D01*
X243006Y7468D01*
X243075Y7420D01*
X243145Y7376D01*
X243218Y7334D01*
X243293Y7296D01*
X243369Y7262D01*
X243446Y7231D01*
X243525Y7203D01*
X243605Y7179D01*
X243686Y7159D01*
X243768Y7142D01*
X243851Y7129D01*
X243934Y7119D01*
X244017Y7114D01*
X244101Y7112D01*
X248334Y8975D02*
X248334Y18288D01*
X248334Y8975D02*
X248336Y8891D01*
X248341Y8808D01*
X248351Y8725D01*
X248364Y8642D01*
X248381Y8560D01*
X248401Y8479D01*
X248425Y8399D01*
X248453Y8320D01*
X248484Y8243D01*
X248518Y8167D01*
X248556Y8092D01*
X248598Y8019D01*
X248642Y7949D01*
X248690Y7880D01*
X248740Y7813D01*
X248794Y7749D01*
X248850Y7688D01*
X248910Y7628D01*
X248971Y7572D01*
X249035Y7518D01*
X249102Y7468D01*
X249171Y7420D01*
X249241Y7376D01*
X249314Y7334D01*
X249389Y7296D01*
X249465Y7262D01*
X249542Y7231D01*
X249621Y7203D01*
X249701Y7179D01*
X249782Y7159D01*
X249864Y7142D01*
X249947Y7129D01*
X250030Y7119D01*
X250113Y7114D01*
X250197Y7112D01*
X256201Y7112D02*
X259305Y7112D01*
X256201Y7112D02*
X256117Y7114D01*
X256034Y7119D01*
X255951Y7129D01*
X255868Y7142D01*
X255786Y7159D01*
X255705Y7179D01*
X255625Y7203D01*
X255546Y7231D01*
X255469Y7262D01*
X255393Y7296D01*
X255318Y7334D01*
X255245Y7376D01*
X255175Y7420D01*
X255106Y7468D01*
X255039Y7518D01*
X254975Y7572D01*
X254914Y7628D01*
X254854Y7688D01*
X254798Y7749D01*
X254744Y7813D01*
X254694Y7880D01*
X254646Y7949D01*
X254602Y8019D01*
X254560Y8092D01*
X254522Y8167D01*
X254488Y8243D01*
X254457Y8320D01*
X254429Y8399D01*
X254405Y8479D01*
X254385Y8560D01*
X254368Y8642D01*
X254355Y8725D01*
X254345Y8808D01*
X254340Y8891D01*
X254338Y8975D01*
X254338Y12079D01*
X254340Y12178D01*
X254346Y12276D01*
X254356Y12375D01*
X254369Y12472D01*
X254387Y12570D01*
X254408Y12666D01*
X254434Y12762D01*
X254463Y12856D01*
X254495Y12949D01*
X254532Y13041D01*
X254572Y13131D01*
X254616Y13220D01*
X254663Y13307D01*
X254713Y13392D01*
X254767Y13474D01*
X254824Y13555D01*
X254884Y13633D01*
X254948Y13709D01*
X255014Y13782D01*
X255083Y13853D01*
X255155Y13921D01*
X255230Y13985D01*
X255307Y14047D01*
X255386Y14106D01*
X255468Y14161D01*
X255552Y14214D01*
X255637Y14262D01*
X255725Y14308D01*
X255815Y14350D01*
X255906Y14388D01*
X255998Y14422D01*
X256092Y14453D01*
X256187Y14480D01*
X256283Y14504D01*
X256380Y14523D01*
X256477Y14539D01*
X256575Y14551D01*
X256674Y14559D01*
X256773Y14563D01*
X256871Y14563D01*
X256970Y14559D01*
X257069Y14551D01*
X257167Y14539D01*
X257264Y14523D01*
X257361Y14504D01*
X257457Y14480D01*
X257552Y14453D01*
X257646Y14422D01*
X257738Y14388D01*
X257829Y14350D01*
X257919Y14308D01*
X258007Y14262D01*
X258092Y14214D01*
X258176Y14161D01*
X258258Y14106D01*
X258337Y14047D01*
X258414Y13985D01*
X258489Y13921D01*
X258561Y13853D01*
X258630Y13782D01*
X258696Y13709D01*
X258760Y13633D01*
X258820Y13555D01*
X258877Y13474D01*
X258931Y13392D01*
X258981Y13307D01*
X259028Y13220D01*
X259072Y13131D01*
X259112Y13041D01*
X259149Y12949D01*
X259181Y12856D01*
X259210Y12762D01*
X259236Y12666D01*
X259257Y12570D01*
X259275Y12472D01*
X259288Y12375D01*
X259298Y12276D01*
X259304Y12178D01*
X259306Y12079D01*
X259305Y12079D02*
X259305Y10837D01*
X254338Y10837D01*
X264708Y7112D02*
X264708Y14563D01*
X268434Y14563D01*
X268434Y13321D01*
X283972Y18288D02*
X283972Y7112D01*
X283972Y18288D02*
X287076Y18288D01*
X287187Y18286D01*
X287297Y18280D01*
X287408Y18270D01*
X287518Y18256D01*
X287627Y18239D01*
X287736Y18217D01*
X287844Y18192D01*
X287950Y18162D01*
X288056Y18129D01*
X288161Y18092D01*
X288264Y18052D01*
X288365Y18007D01*
X288465Y17960D01*
X288564Y17908D01*
X288660Y17853D01*
X288754Y17795D01*
X288846Y17734D01*
X288936Y17669D01*
X289024Y17601D01*
X289109Y17530D01*
X289191Y17456D01*
X289271Y17379D01*
X289348Y17299D01*
X289422Y17217D01*
X289493Y17132D01*
X289561Y17044D01*
X289626Y16954D01*
X289687Y16862D01*
X289745Y16768D01*
X289800Y16672D01*
X289852Y16573D01*
X289899Y16473D01*
X289944Y16372D01*
X289984Y16269D01*
X290021Y16164D01*
X290054Y16058D01*
X290084Y15952D01*
X290109Y15844D01*
X290131Y15735D01*
X290148Y15626D01*
X290162Y15516D01*
X290172Y15405D01*
X290178Y15295D01*
X290180Y15184D01*
X290178Y15073D01*
X290172Y14963D01*
X290162Y14852D01*
X290148Y14742D01*
X290131Y14633D01*
X290109Y14524D01*
X290084Y14416D01*
X290054Y14310D01*
X290021Y14204D01*
X289984Y14099D01*
X289944Y13996D01*
X289899Y13895D01*
X289852Y13795D01*
X289800Y13696D01*
X289745Y13600D01*
X289687Y13506D01*
X289626Y13414D01*
X289561Y13324D01*
X289493Y13236D01*
X289422Y13151D01*
X289348Y13069D01*
X289271Y12989D01*
X289191Y12912D01*
X289109Y12838D01*
X289024Y12767D01*
X288936Y12699D01*
X288846Y12634D01*
X288754Y12573D01*
X288660Y12515D01*
X288564Y12460D01*
X288465Y12408D01*
X288365Y12361D01*
X288264Y12316D01*
X288161Y12276D01*
X288056Y12239D01*
X287950Y12206D01*
X287844Y12176D01*
X287736Y12151D01*
X287627Y12129D01*
X287518Y12112D01*
X287408Y12098D01*
X287297Y12088D01*
X287187Y12082D01*
X287076Y12080D01*
X287076Y12079D02*
X283972Y12079D01*
X287697Y12079D02*
X290181Y7112D01*
X297032Y7112D02*
X300136Y7112D01*
X297032Y7112D02*
X296948Y7114D01*
X296865Y7119D01*
X296782Y7129D01*
X296699Y7142D01*
X296617Y7159D01*
X296536Y7179D01*
X296456Y7203D01*
X296377Y7231D01*
X296300Y7262D01*
X296224Y7296D01*
X296149Y7334D01*
X296076Y7376D01*
X296006Y7420D01*
X295937Y7468D01*
X295870Y7518D01*
X295806Y7572D01*
X295745Y7628D01*
X295685Y7688D01*
X295629Y7749D01*
X295575Y7813D01*
X295525Y7880D01*
X295477Y7949D01*
X295433Y8019D01*
X295391Y8092D01*
X295353Y8167D01*
X295319Y8243D01*
X295288Y8320D01*
X295260Y8399D01*
X295236Y8479D01*
X295216Y8560D01*
X295199Y8642D01*
X295186Y8725D01*
X295176Y8808D01*
X295171Y8891D01*
X295169Y8975D01*
X295169Y12079D01*
X295168Y12079D02*
X295170Y12178D01*
X295176Y12276D01*
X295186Y12375D01*
X295199Y12472D01*
X295217Y12570D01*
X295238Y12666D01*
X295264Y12762D01*
X295293Y12856D01*
X295325Y12949D01*
X295362Y13041D01*
X295402Y13131D01*
X295446Y13220D01*
X295493Y13307D01*
X295543Y13392D01*
X295597Y13474D01*
X295654Y13555D01*
X295714Y13633D01*
X295778Y13709D01*
X295844Y13782D01*
X295913Y13853D01*
X295985Y13921D01*
X296060Y13985D01*
X296137Y14047D01*
X296216Y14106D01*
X296298Y14161D01*
X296382Y14214D01*
X296467Y14262D01*
X296555Y14308D01*
X296645Y14350D01*
X296736Y14388D01*
X296828Y14422D01*
X296922Y14453D01*
X297017Y14480D01*
X297113Y14504D01*
X297210Y14523D01*
X297307Y14539D01*
X297405Y14551D01*
X297504Y14559D01*
X297603Y14563D01*
X297701Y14563D01*
X297800Y14559D01*
X297899Y14551D01*
X297997Y14539D01*
X298094Y14523D01*
X298191Y14504D01*
X298287Y14480D01*
X298382Y14453D01*
X298476Y14422D01*
X298568Y14388D01*
X298659Y14350D01*
X298749Y14308D01*
X298837Y14262D01*
X298922Y14214D01*
X299006Y14161D01*
X299088Y14106D01*
X299167Y14047D01*
X299244Y13985D01*
X299319Y13921D01*
X299391Y13853D01*
X299460Y13782D01*
X299526Y13709D01*
X299590Y13633D01*
X299650Y13555D01*
X299707Y13474D01*
X299761Y13392D01*
X299811Y13307D01*
X299858Y13220D01*
X299902Y13131D01*
X299942Y13041D01*
X299979Y12949D01*
X300011Y12856D01*
X300040Y12762D01*
X300066Y12666D01*
X300087Y12570D01*
X300105Y12472D01*
X300118Y12375D01*
X300128Y12276D01*
X300134Y12178D01*
X300136Y12079D01*
X300136Y10837D01*
X295169Y10837D01*
X304694Y14563D02*
X307177Y7112D01*
X309661Y14563D01*
X320456Y15804D02*
X323560Y18288D01*
X323560Y7112D01*
X320456Y7112D02*
X326665Y7112D01*
X331251Y7112D02*
X331251Y7733D01*
X331872Y7733D01*
X331872Y7112D01*
X331251Y7112D01*
X336458Y12700D02*
X336461Y12920D01*
X336468Y13140D01*
X336482Y13359D01*
X336500Y13578D01*
X336524Y13797D01*
X336552Y14015D01*
X336586Y14232D01*
X336625Y14448D01*
X336670Y14664D01*
X336719Y14878D01*
X336774Y15091D01*
X336833Y15303D01*
X336898Y15513D01*
X336968Y15721D01*
X337042Y15928D01*
X337122Y16133D01*
X337206Y16336D01*
X337295Y16537D01*
X337389Y16736D01*
X337422Y16825D01*
X337458Y16913D01*
X337498Y16999D01*
X337541Y17084D01*
X337588Y17166D01*
X337639Y17247D01*
X337692Y17325D01*
X337749Y17401D01*
X337809Y17475D01*
X337872Y17546D01*
X337937Y17615D01*
X338006Y17681D01*
X338077Y17743D01*
X338151Y17803D01*
X338227Y17860D01*
X338305Y17914D01*
X338386Y17964D01*
X338468Y18011D01*
X338553Y18054D01*
X338639Y18094D01*
X338727Y18131D01*
X338816Y18163D01*
X338906Y18192D01*
X338998Y18218D01*
X339090Y18239D01*
X339184Y18257D01*
X339278Y18270D01*
X339372Y18280D01*
X339467Y18286D01*
X339562Y18288D01*
X339657Y18286D01*
X339752Y18280D01*
X339846Y18270D01*
X339940Y18257D01*
X340034Y18239D01*
X340126Y18218D01*
X340218Y18192D01*
X340308Y18163D01*
X340397Y18131D01*
X340485Y18094D01*
X340571Y18054D01*
X340656Y18011D01*
X340738Y17964D01*
X340819Y17914D01*
X340897Y17860D01*
X340973Y17803D01*
X341047Y17743D01*
X341118Y17681D01*
X341187Y17615D01*
X341252Y17546D01*
X341315Y17475D01*
X341375Y17401D01*
X341432Y17325D01*
X341485Y17247D01*
X341536Y17166D01*
X341583Y17083D01*
X341626Y16999D01*
X341666Y16913D01*
X341702Y16825D01*
X341735Y16736D01*
X341736Y16736D02*
X341830Y16537D01*
X341919Y16336D01*
X342003Y16133D01*
X342083Y15928D01*
X342157Y15721D01*
X342227Y15513D01*
X342292Y15303D01*
X342351Y15091D01*
X342406Y14878D01*
X342455Y14664D01*
X342500Y14448D01*
X342539Y14232D01*
X342573Y14015D01*
X342601Y13797D01*
X342625Y13578D01*
X342643Y13359D01*
X342657Y13140D01*
X342664Y12920D01*
X342667Y12700D01*
X336458Y12700D02*
X336461Y12480D01*
X336468Y12260D01*
X336482Y12041D01*
X336500Y11822D01*
X336524Y11603D01*
X336552Y11385D01*
X336586Y11168D01*
X336625Y10952D01*
X336670Y10736D01*
X336719Y10522D01*
X336774Y10309D01*
X336833Y10098D01*
X336898Y9887D01*
X336968Y9679D01*
X337042Y9472D01*
X337122Y9267D01*
X337206Y9064D01*
X337295Y8863D01*
X337389Y8664D01*
X337422Y8575D01*
X337458Y8487D01*
X337498Y8401D01*
X337541Y8316D01*
X337588Y8234D01*
X337639Y8153D01*
X337692Y8075D01*
X337749Y7999D01*
X337809Y7925D01*
X337872Y7854D01*
X337937Y7785D01*
X338006Y7719D01*
X338077Y7657D01*
X338151Y7597D01*
X338227Y7540D01*
X338305Y7486D01*
X338386Y7436D01*
X338468Y7389D01*
X338553Y7346D01*
X338639Y7306D01*
X338727Y7269D01*
X338816Y7237D01*
X338906Y7208D01*
X338998Y7182D01*
X339090Y7161D01*
X339184Y7143D01*
X339278Y7130D01*
X339372Y7120D01*
X339467Y7114D01*
X339562Y7112D01*
X341736Y8664D02*
X341830Y8863D01*
X341919Y9064D01*
X342003Y9267D01*
X342083Y9472D01*
X342157Y9679D01*
X342227Y9887D01*
X342292Y10097D01*
X342351Y10309D01*
X342406Y10522D01*
X342455Y10736D01*
X342500Y10952D01*
X342539Y11168D01*
X342573Y11385D01*
X342601Y11603D01*
X342625Y11822D01*
X342643Y12041D01*
X342657Y12260D01*
X342664Y12480D01*
X342667Y12700D01*
X341735Y8664D02*
X341702Y8575D01*
X341666Y8487D01*
X341626Y8401D01*
X341583Y8316D01*
X341536Y8234D01*
X341485Y8153D01*
X341432Y8075D01*
X341375Y7999D01*
X341315Y7925D01*
X341252Y7854D01*
X341187Y7785D01*
X341118Y7719D01*
X341047Y7657D01*
X340973Y7597D01*
X340897Y7540D01*
X340819Y7486D01*
X340738Y7436D01*
X340656Y7389D01*
X340571Y7346D01*
X340485Y7306D01*
X340397Y7269D01*
X340308Y7237D01*
X340218Y7208D01*
X340126Y7182D01*
X340034Y7161D01*
X339940Y7143D01*
X339846Y7130D01*
X339752Y7120D01*
X339657Y7114D01*
X339562Y7112D01*
X337079Y9596D02*
X342046Y15804D01*
X305506Y45889D02*
X305506Y55203D01*
X305506Y45889D02*
X305504Y45803D01*
X305498Y45717D01*
X305488Y45632D01*
X305474Y45547D01*
X305457Y45462D01*
X305435Y45379D01*
X305409Y45297D01*
X305380Y45216D01*
X305347Y45137D01*
X305311Y45059D01*
X305271Y44982D01*
X305227Y44908D01*
X305180Y44836D01*
X305130Y44766D01*
X305076Y44699D01*
X305020Y44634D01*
X304960Y44572D01*
X304898Y44512D01*
X304833Y44456D01*
X304766Y44402D01*
X304696Y44352D01*
X304624Y44305D01*
X304550Y44261D01*
X304473Y44221D01*
X304396Y44185D01*
X304316Y44152D01*
X304235Y44123D01*
X304153Y44097D01*
X304070Y44075D01*
X303985Y44058D01*
X303900Y44044D01*
X303815Y44034D01*
X303729Y44028D01*
X303643Y44026D01*
X303643Y44027D02*
X303022Y44027D01*
X305195Y58307D02*
X305195Y58928D01*
X305816Y58928D01*
X305816Y58307D01*
X305195Y58307D01*
X315094Y55203D02*
X310127Y47752D01*
X315094Y47752D02*
X310127Y55203D01*
D11*
X117285Y206756D03*
D12*
X152019Y206756D03*
D11*
X117285Y206883D03*
D13*
X151956Y206883D03*
D11*
X117285Y207010D03*
D13*
X151956Y207010D03*
D11*
X117285Y207137D03*
D12*
X151892Y207137D03*
D11*
X117285Y207264D03*
D13*
X151829Y207264D03*
D11*
X117285Y207391D03*
D12*
X151765Y207391D03*
D11*
X117285Y207518D03*
D13*
X151702Y207518D03*
D11*
X117285Y207645D03*
D13*
X151702Y207645D03*
D11*
X117285Y207772D03*
D13*
X151575Y207772D03*
D11*
X117285Y207899D03*
D13*
X151575Y207899D03*
D11*
X117285Y208026D03*
D12*
X151511Y208026D03*
D11*
X117285Y208153D03*
D13*
X151448Y208153D03*
D11*
X117285Y208280D03*
D13*
X151448Y208280D03*
D11*
X117285Y208407D03*
D13*
X151321Y208407D03*
D11*
X117285Y208534D03*
D13*
X151321Y208534D03*
D11*
X117285Y208661D03*
D13*
X151194Y208661D03*
D11*
X117285Y208788D03*
D13*
X151194Y208788D03*
D11*
X117285Y208915D03*
D13*
X151194Y208915D03*
D11*
X117285Y209042D03*
D13*
X151067Y209042D03*
D11*
X117285Y209169D03*
D13*
X151067Y209169D03*
D11*
X117285Y209296D03*
D13*
X150940Y209296D03*
D11*
X117285Y209423D03*
D13*
X150940Y209423D03*
D11*
X117285Y209550D03*
D13*
X150813Y209550D03*
D11*
X117285Y209677D03*
D13*
X150813Y209677D03*
D11*
X117285Y209804D03*
D13*
X150813Y209804D03*
D11*
X117285Y209931D03*
D13*
X150686Y209931D03*
D11*
X117285Y210058D03*
D13*
X150686Y210058D03*
D11*
X117285Y210185D03*
D13*
X150559Y210185D03*
D11*
X117285Y210312D03*
D13*
X150559Y210312D03*
D11*
X117285Y210439D03*
D13*
X150559Y210439D03*
D11*
X117285Y210566D03*
D13*
X150432Y210566D03*
D11*
X117285Y210693D03*
D13*
X150432Y210693D03*
D11*
X117285Y210820D03*
D13*
X150305Y210820D03*
D11*
X117285Y210947D03*
D13*
X150305Y210947D03*
D11*
X117285Y211074D03*
D14*
X150241Y211074D03*
D11*
X117285Y211201D03*
D13*
X150178Y211201D03*
D11*
X117285Y211328D03*
D13*
X150178Y211328D03*
D11*
X117285Y211455D03*
D13*
X150051Y211455D03*
D11*
X117285Y211582D03*
D13*
X150051Y211582D03*
D11*
X117285Y211709D03*
D14*
X149987Y211709D03*
D11*
X117285Y211836D03*
D13*
X149924Y211836D03*
D11*
X117285Y211963D03*
D14*
X149860Y211963D03*
D11*
X117285Y212090D03*
D13*
X149797Y212090D03*
D11*
X117285Y212217D03*
D13*
X149797Y212217D03*
D11*
X117285Y212344D03*
D13*
X149670Y212344D03*
D11*
X117285Y212471D03*
D13*
X149670Y212471D03*
D11*
X117285Y212598D03*
D14*
X149606Y212598D03*
D11*
X117285Y212725D03*
D13*
X149543Y212725D03*
D11*
X117285Y212852D03*
D14*
X149479Y212852D03*
D11*
X117285Y212979D03*
D13*
X149416Y212979D03*
D11*
X117285Y213106D03*
D13*
X149416Y213106D03*
D11*
X117285Y213233D03*
D14*
X149352Y213233D03*
D11*
X117285Y213360D03*
D13*
X149289Y213360D03*
D11*
X117285Y213487D03*
D14*
X149225Y213487D03*
D11*
X117285Y213614D03*
D13*
X149162Y213614D03*
D11*
X117285Y213741D03*
D13*
X149162Y213741D03*
D11*
X117285Y213868D03*
D14*
X149098Y213868D03*
D11*
X117285Y213995D03*
D13*
X149035Y213995D03*
D11*
X117285Y214122D03*
D14*
X148971Y214122D03*
D11*
X117285Y214249D03*
D13*
X148908Y214249D03*
D11*
X117285Y214376D03*
D14*
X148844Y214376D03*
D11*
X117285Y214503D03*
D14*
X148844Y214503D03*
D11*
X117285Y214630D03*
D13*
X148781Y214630D03*
D11*
X117285Y214757D03*
D14*
X148717Y214757D03*
D11*
X117285Y214884D03*
D13*
X148654Y214884D03*
D11*
X117285Y215011D03*
D14*
X148590Y215011D03*
D11*
X117285Y215138D03*
D13*
X148527Y215138D03*
D11*
X117285Y215265D03*
D14*
X148463Y215265D03*
D11*
X117285Y215392D03*
D14*
X148463Y215392D03*
D11*
X117285Y215519D03*
D13*
X148400Y215519D03*
D11*
X117285Y215646D03*
D14*
X148336Y215646D03*
D11*
X117285Y215773D03*
D13*
X148273Y215773D03*
D11*
X117285Y215900D03*
D14*
X148209Y215900D03*
D11*
X117285Y216027D03*
D14*
X148209Y216027D03*
D11*
X117285Y216154D03*
D14*
X148082Y216154D03*
D11*
X117285Y216281D03*
D14*
X148082Y216281D03*
D11*
X117285Y216408D03*
D13*
X148019Y216408D03*
D11*
X117285Y216535D03*
D14*
X147955Y216535D03*
D11*
X117285Y216662D03*
D14*
X147955Y216662D03*
D11*
X117285Y216789D03*
D14*
X147828Y216789D03*
D11*
X117285Y216916D03*
D14*
X147828Y216916D03*
D11*
X117285Y217043D03*
D13*
X147765Y217043D03*
D11*
X117285Y217170D03*
D14*
X147701Y217170D03*
D11*
X117285Y217297D03*
D14*
X147701Y217297D03*
D11*
X117285Y217424D03*
D14*
X147574Y217424D03*
D11*
X117285Y217551D03*
D14*
X147574Y217551D03*
D11*
X117285Y217678D03*
D14*
X147447Y217678D03*
D11*
X117285Y217805D03*
D14*
X147447Y217805D03*
D11*
X117285Y217932D03*
D13*
X147384Y217932D03*
D11*
X117285Y218059D03*
D14*
X147320Y218059D03*
D11*
X117285Y218186D03*
D14*
X147320Y218186D03*
D11*
X117285Y218313D03*
D14*
X147193Y218313D03*
D11*
X117285Y218440D03*
D14*
X147193Y218440D03*
D11*
X117285Y218567D03*
D14*
X147066Y218567D03*
D11*
X117285Y218694D03*
D14*
X147066Y218694D03*
D11*
X117285Y218821D03*
D14*
X147066Y218821D03*
D11*
X117285Y218948D03*
D14*
X146939Y218948D03*
D11*
X117285Y219075D03*
D14*
X146939Y219075D03*
D11*
X117285Y219202D03*
D14*
X146812Y219202D03*
D11*
X117285Y219329D03*
D14*
X146812Y219329D03*
D11*
X117285Y219456D03*
D15*
X146749Y219456D03*
D11*
X117285Y219583D03*
D14*
X146685Y219583D03*
D11*
X117285Y219710D03*
D14*
X146685Y219710D03*
D11*
X117285Y219837D03*
D14*
X146558Y219837D03*
D11*
X117285Y219964D03*
D14*
X146558Y219964D03*
D11*
X117285Y220091D03*
D14*
X146431Y220091D03*
D11*
X117285Y220218D03*
D14*
X146431Y220218D03*
D11*
X117285Y220345D03*
D14*
X146431Y220345D03*
D11*
X117285Y220472D03*
D14*
X146304Y220472D03*
D11*
X117285Y220599D03*
D14*
X146304Y220599D03*
D11*
X117285Y220726D03*
D14*
X146177Y220726D03*
D11*
X117285Y220853D03*
D14*
X146177Y220853D03*
D11*
X117285Y220980D03*
D15*
X146114Y220980D03*
D11*
X117285Y221107D03*
D14*
X146050Y221107D03*
D11*
X117285Y221234D03*
D14*
X146050Y221234D03*
D11*
X117285Y221361D03*
D14*
X145923Y221361D03*
D11*
X117285Y221488D03*
D14*
X145923Y221488D03*
D11*
X117285Y221615D03*
D15*
X145860Y221615D03*
D11*
X117285Y221742D03*
D14*
X145796Y221742D03*
D11*
X117285Y221869D03*
D15*
X145733Y221869D03*
D11*
X117285Y221996D03*
D14*
X145669Y221996D03*
D11*
X117285Y222123D03*
D14*
X145669Y222123D03*
D11*
X117285Y222250D03*
D15*
X145606Y222250D03*
D11*
X117285Y222377D03*
D14*
X145542Y222377D03*
D11*
X117285Y222504D03*
D15*
X145479Y222504D03*
D11*
X117285Y222631D03*
D14*
X145415Y222631D03*
D11*
X117285Y222758D03*
D15*
X145352Y222758D03*
D11*
X117285Y222885D03*
D14*
X145288Y222885D03*
D11*
X117285Y223012D03*
D14*
X145288Y223012D03*
D11*
X117285Y223139D03*
D15*
X145225Y223139D03*
D11*
X117285Y223266D03*
D14*
X145161Y223266D03*
D11*
X117285Y223393D03*
D15*
X145098Y223393D03*
D11*
X117285Y223520D03*
D14*
X145034Y223520D03*
D11*
X117285Y223647D03*
D14*
X145034Y223647D03*
D11*
X117285Y223774D03*
D15*
X144971Y223774D03*
D11*
X117285Y223901D03*
D14*
X144907Y223901D03*
D11*
X117285Y224028D03*
D15*
X144844Y224028D03*
D11*
X117285Y224155D03*
D14*
X144780Y224155D03*
D11*
X117285Y224282D03*
D15*
X144717Y224282D03*
D11*
X117285Y224409D03*
D15*
X144717Y224409D03*
D11*
X117285Y224536D03*
D14*
X144653Y224536D03*
D11*
X117285Y224663D03*
D15*
X144590Y224663D03*
D11*
X117285Y224790D03*
D14*
X144526Y224790D03*
D11*
X117285Y224917D03*
D15*
X144463Y224917D03*
D11*
X117285Y225044D03*
D15*
X144463Y225044D03*
D11*
X117285Y225171D03*
D15*
X144336Y225171D03*
D11*
X117285Y225298D03*
D15*
X144336Y225298D03*
D11*
X117285Y225425D03*
D14*
X144272Y225425D03*
D11*
X117285Y225552D03*
D15*
X144209Y225552D03*
D11*
X117285Y225679D03*
D14*
X144145Y225679D03*
D11*
X117285Y225806D03*
D15*
X144082Y225806D03*
D11*
X117285Y225933D03*
D15*
X144082Y225933D03*
D11*
X117285Y226060D03*
D15*
X143955Y226060D03*
D11*
X117285Y226187D03*
D15*
X143955Y226187D03*
D11*
X117285Y226314D03*
D14*
X143891Y226314D03*
D11*
X117285Y226441D03*
D15*
X143828Y226441D03*
D11*
X117285Y226568D03*
D15*
X143828Y226568D03*
D11*
X117285Y226695D03*
D15*
X143701Y226695D03*
D11*
X117285Y226822D03*
D15*
X143701Y226822D03*
D11*
X117285Y226949D03*
D14*
X143637Y226949D03*
D11*
X117285Y227076D03*
D15*
X143574Y227076D03*
D11*
X117285Y227203D03*
D15*
X143574Y227203D03*
D11*
X117285Y227330D03*
D15*
X143447Y227330D03*
D11*
X117285Y227457D03*
D15*
X143447Y227457D03*
D11*
X117285Y227584D03*
D15*
X143320Y227584D03*
D11*
X117285Y227711D03*
D15*
X143320Y227711D03*
D11*
X117285Y227838D03*
D15*
X143320Y227838D03*
D11*
X117285Y227965D03*
D15*
X143193Y227965D03*
D11*
X117285Y228092D03*
D15*
X143193Y228092D03*
D11*
X117285Y228219D03*
D15*
X143066Y228219D03*
D11*
X117285Y228346D03*
D15*
X143066Y228346D03*
D11*
X117285Y228473D03*
D15*
X142939Y228473D03*
D11*
X117285Y228600D03*
D15*
X142939Y228600D03*
D11*
X117285Y228727D03*
D15*
X142939Y228727D03*
D11*
X117285Y228854D03*
D15*
X142812Y228854D03*
D11*
X117285Y228981D03*
D15*
X142812Y228981D03*
D11*
X117285Y229108D03*
D15*
X142685Y229108D03*
D11*
X117285Y229235D03*
D15*
X142685Y229235D03*
D11*
X117285Y229362D03*
D16*
X142621Y229362D03*
D11*
X117285Y229489D03*
D15*
X142558Y229489D03*
D11*
X117285Y229616D03*
D15*
X142558Y229616D03*
D11*
X117285Y229743D03*
D15*
X142431Y229743D03*
D11*
X117285Y229870D03*
D15*
X142431Y229870D03*
D11*
X117285Y229997D03*
D16*
X142367Y229997D03*
D11*
X117285Y230124D03*
D15*
X142304Y230124D03*
D11*
X117285Y230251D03*
D15*
X142304Y230251D03*
D11*
X117285Y230378D03*
D15*
X142177Y230378D03*
D11*
X117285Y230505D03*
D15*
X142177Y230505D03*
D11*
X117285Y230632D03*
D16*
X142113Y230632D03*
D17*
X129985Y230759D03*
X129985Y230886D03*
D18*
X129921Y231013D03*
X129921Y231140D03*
D19*
X129858Y231267D03*
X129858Y231394D03*
X129858Y231521D03*
D20*
X129794Y231648D03*
X129794Y231775D03*
D21*
X129731Y231902D03*
X129731Y232029D03*
X129731Y232156D03*
D22*
X129667Y232283D03*
X129667Y232410D03*
D23*
X129604Y232537D03*
X129604Y232664D03*
X129604Y232791D03*
D24*
X129540Y232918D03*
X129540Y233045D03*
D25*
X129477Y233172D03*
X129477Y233299D03*
D26*
X129413Y233426D03*
X129413Y233553D03*
X129413Y233680D03*
D27*
X129350Y233807D03*
X129350Y233934D03*
D28*
X129286Y234061D03*
X129286Y234188D03*
X129286Y234315D03*
D29*
X129223Y234442D03*
X129223Y234569D03*
D30*
X129159Y234696D03*
X129159Y234823D03*
X129159Y234950D03*
D31*
X129096Y235077D03*
X129096Y235204D03*
D32*
X129032Y235331D03*
X129032Y235458D03*
X129032Y235585D03*
D33*
X128969Y235712D03*
X128969Y235839D03*
D34*
X128905Y235966D03*
X128905Y236093D03*
D35*
X128842Y236220D03*
X128842Y236347D03*
X128842Y236474D03*
D36*
X128778Y236601D03*
X128778Y236728D03*
D37*
X128715Y236855D03*
X128715Y236982D03*
X128715Y237109D03*
D38*
X128651Y237236D03*
X128651Y237363D03*
D39*
X128588Y237490D03*
X128588Y237617D03*
X128588Y237744D03*
D40*
X128524Y237871D03*
X128524Y237998D03*
D41*
X128461Y238125D03*
X128461Y238252D03*
X128461Y238379D03*
D42*
X128397Y238506D03*
X128397Y238633D03*
D43*
X128334Y238760D03*
X128334Y238887D03*
D44*
X128270Y239014D03*
X128270Y239141D03*
X128270Y239268D03*
D45*
X128207Y239395D03*
X128207Y239522D03*
D46*
X128143Y239649D03*
X128143Y239776D03*
X128143Y239903D03*
D47*
X128080Y240030D03*
X128080Y240157D03*
D48*
X128016Y240284D03*
X128016Y240411D03*
X128016Y240538D03*
D49*
X127953Y240665D03*
X127953Y240792D03*
D50*
X127889Y240919D03*
X127889Y241046D03*
X127889Y241173D03*
D51*
X127826Y241300D03*
X127826Y241427D03*
D52*
X127762Y241554D03*
X127762Y241681D03*
D53*
X127699Y241808D03*
X127699Y241935D03*
X127699Y242062D03*
D54*
X127635Y242189D03*
D11*
X117285Y242316D03*
D55*
X151511Y242316D03*
D11*
X117285Y242443D03*
D55*
X151511Y242443D03*
D11*
X117285Y242570D03*
D55*
X151511Y242570D03*
D11*
X117285Y242697D03*
D55*
X151511Y242697D03*
D11*
X117285Y242824D03*
D55*
X151511Y242824D03*
D11*
X117285Y242951D03*
D55*
X151511Y242951D03*
D11*
X117285Y243078D03*
D55*
X151511Y243078D03*
D11*
X117285Y243205D03*
D55*
X151511Y243205D03*
D11*
X117285Y243332D03*
D55*
X151511Y243332D03*
D11*
X117285Y243459D03*
D55*
X151511Y243459D03*
D11*
X117285Y243586D03*
D55*
X151511Y243586D03*
D11*
X117285Y243713D03*
D55*
X151511Y243713D03*
D11*
X117285Y243840D03*
D55*
X151511Y243840D03*
D11*
X117285Y243967D03*
D55*
X151511Y243967D03*
D11*
X117285Y244094D03*
D55*
X151511Y244094D03*
D11*
X117285Y244221D03*
D55*
X151511Y244221D03*
D11*
X117285Y244348D03*
D55*
X151511Y244348D03*
D11*
X117285Y244475D03*
D55*
X151511Y244475D03*
D11*
X117285Y244602D03*
D55*
X151511Y244602D03*
D11*
X117285Y244729D03*
D55*
X151511Y244729D03*
D11*
X117285Y244856D03*
D55*
X151511Y244856D03*
D11*
X117285Y244983D03*
D55*
X151511Y244983D03*
D11*
X117285Y245110D03*
D55*
X151511Y245110D03*
D11*
X117285Y245237D03*
D55*
X151511Y245237D03*
D11*
X117285Y245364D03*
D55*
X151511Y245364D03*
D11*
X117285Y245491D03*
D55*
X151511Y245491D03*
D11*
X117285Y245618D03*
D55*
X151511Y245618D03*
D11*
X117285Y245745D03*
D55*
X151511Y245745D03*
D11*
X117285Y245872D03*
D55*
X151511Y245872D03*
D11*
X117285Y245999D03*
D55*
X151511Y245999D03*
D11*
X117285Y246126D03*
D55*
X151511Y246126D03*
D11*
X117285Y246253D03*
D55*
X151511Y246253D03*
D11*
X117285Y246380D03*
D55*
X151511Y246380D03*
D11*
X117285Y246507D03*
D55*
X151511Y246507D03*
D11*
X117285Y246634D03*
D55*
X151511Y246634D03*
D11*
X117285Y246761D03*
D55*
X151511Y246761D03*
D11*
X117285Y246888D03*
D55*
X151511Y246888D03*
D11*
X117285Y247015D03*
D55*
X151511Y247015D03*
D11*
X117285Y247142D03*
D55*
X151511Y247142D03*
D11*
X117285Y247269D03*
D55*
X151511Y247269D03*
D11*
X117285Y247396D03*
D55*
X151511Y247396D03*
D11*
X117285Y247523D03*
D55*
X151511Y247523D03*
D11*
X117285Y247650D03*
D55*
X151511Y247650D03*
D11*
X117285Y247777D03*
D55*
X151511Y247777D03*
D11*
X117285Y247904D03*
D55*
X151511Y247904D03*
D11*
X117285Y248031D03*
D55*
X151511Y248031D03*
D11*
X117285Y248158D03*
D55*
X151511Y248158D03*
D11*
X117285Y248285D03*
D55*
X151511Y248285D03*
D11*
X117285Y248412D03*
D55*
X151511Y248412D03*
D11*
X117285Y248539D03*
D55*
X151511Y248539D03*
D11*
X117285Y248666D03*
D55*
X151511Y248666D03*
D11*
X117285Y248793D03*
D55*
X151511Y248793D03*
D11*
X117285Y248920D03*
D55*
X151511Y248920D03*
D11*
X117285Y249047D03*
D55*
X151511Y249047D03*
D11*
X117285Y249174D03*
D55*
X151511Y249174D03*
D11*
X117285Y249301D03*
D55*
X151511Y249301D03*
D11*
X117285Y249428D03*
D55*
X151511Y249428D03*
D11*
X117285Y249555D03*
D55*
X151511Y249555D03*
D11*
X117285Y249682D03*
D55*
X151511Y249682D03*
D11*
X117285Y249809D03*
D55*
X151511Y249809D03*
D11*
X117285Y249936D03*
D55*
X151511Y249936D03*
D11*
X117285Y250063D03*
D55*
X151511Y250063D03*
D11*
X117285Y250190D03*
D55*
X151511Y250190D03*
D11*
X117285Y250317D03*
D55*
X151511Y250317D03*
D11*
X117285Y250444D03*
D55*
X151511Y250444D03*
D11*
X117285Y250571D03*
D55*
X151511Y250571D03*
D11*
X117285Y250698D03*
D55*
X151511Y250698D03*
D11*
X117285Y250825D03*
D55*
X151511Y250825D03*
D11*
X117285Y250952D03*
D55*
X151511Y250952D03*
D11*
X117285Y251079D03*
D55*
X151511Y251079D03*
D11*
X117285Y251206D03*
D55*
X151511Y251206D03*
D11*
X117285Y251333D03*
D55*
X151511Y251333D03*
D11*
X117285Y251460D03*
D55*
X151511Y251460D03*
D11*
X117285Y251587D03*
D55*
X151511Y251587D03*
D11*
X117285Y251714D03*
D55*
X151511Y251714D03*
D11*
X117285Y251841D03*
D55*
X151511Y251841D03*
D11*
X117285Y251968D03*
D55*
X151511Y251968D03*
D11*
X117285Y252095D03*
D55*
X151511Y252095D03*
D11*
X117285Y252222D03*
D55*
X151511Y252222D03*
D11*
X117285Y252349D03*
X151448Y252349D03*
X117285Y252476D03*
X151448Y252476D03*
X117285Y252603D03*
X151448Y252603D03*
X117285Y252730D03*
X151448Y252730D03*
X117285Y252857D03*
X151448Y252857D03*
X117285Y252984D03*
X151448Y252984D03*
X117285Y253111D03*
X151448Y253111D03*
X117285Y253238D03*
X151448Y253238D03*
X117285Y253365D03*
X151448Y253365D03*
X117285Y253492D03*
X151448Y253492D03*
X117285Y253619D03*
D56*
X151384Y253619D03*
D11*
X117285Y253746D03*
D56*
X151384Y253746D03*
D11*
X117285Y253873D03*
D56*
X151384Y253873D03*
D11*
X117285Y254000D03*
D56*
X151384Y254000D03*
D11*
X117285Y254127D03*
D56*
X151384Y254127D03*
D11*
X117285Y254254D03*
D57*
X151321Y254254D03*
D11*
X117285Y254381D03*
D57*
X151321Y254381D03*
D11*
X117285Y254508D03*
D57*
X151321Y254508D03*
D11*
X117285Y254635D03*
D57*
X151321Y254635D03*
D11*
X117285Y254762D03*
D58*
X151257Y254762D03*
D11*
X117285Y254889D03*
D58*
X151257Y254889D03*
D11*
X117285Y255016D03*
D58*
X151257Y255016D03*
D11*
X117285Y255143D03*
D59*
X151194Y255143D03*
D11*
X117285Y255270D03*
D58*
X151130Y255270D03*
D11*
X117285Y255397D03*
D58*
X151130Y255397D03*
D11*
X117285Y255524D03*
D59*
X151067Y255524D03*
D11*
X117285Y255651D03*
D59*
X151067Y255651D03*
D11*
X117285Y255778D03*
D60*
X151003Y255778D03*
D11*
X117285Y255905D03*
D60*
X151003Y255905D03*
D11*
X117285Y256032D03*
D60*
X151003Y256032D03*
D11*
X117285Y256159D03*
D61*
X150940Y256159D03*
D11*
X117285Y256286D03*
D61*
X150940Y256286D03*
D11*
X117285Y256413D03*
D12*
X150876Y256413D03*
D11*
X117285Y256540D03*
D12*
X150749Y256540D03*
D11*
X117285Y256667D03*
D12*
X150749Y256667D03*
D11*
X117285Y256794D03*
D13*
X150686Y256794D03*
D11*
X117285Y256921D03*
D14*
X150622Y256921D03*
D11*
X117285Y257048D03*
D14*
X150622Y257048D03*
D11*
X117285Y257175D03*
D15*
X150559Y257175D03*
D11*
X117285Y257302D03*
D16*
X150495Y257302D03*
D11*
X117285Y257429D03*
D16*
X150368Y257429D03*
D11*
X117285Y257556D03*
D16*
X150368Y257556D03*
D11*
X117285Y257683D03*
D62*
X150305Y257683D03*
D11*
X117285Y257810D03*
D63*
X150241Y257810D03*
D11*
X117285Y257937D03*
D64*
X150178Y257937D03*
D11*
X117285Y258064D03*
D64*
X150051Y258064D03*
D11*
X117285Y258191D03*
D65*
X149987Y258191D03*
D11*
X117285Y258318D03*
D66*
X149924Y258318D03*
D11*
X117285Y258445D03*
D67*
X149797Y258445D03*
D11*
X117285Y258572D03*
D68*
X149733Y258572D03*
D11*
X117285Y258699D03*
D68*
X149606Y258699D03*
D11*
X117285Y258826D03*
D69*
X149543Y258826D03*
D11*
X117285Y258953D03*
D70*
X149416Y258953D03*
D11*
X117285Y259080D03*
D70*
X149289Y259080D03*
D11*
X117285Y259207D03*
D71*
X149162Y259207D03*
D11*
X117285Y259334D03*
D72*
X149035Y259334D03*
D11*
X117285Y259461D03*
D73*
X148908Y259461D03*
D11*
X117285Y259588D03*
D74*
X148717Y259588D03*
D11*
X117285Y259715D03*
D75*
X148590Y259715D03*
D11*
X117285Y259842D03*
D76*
X148463Y259842D03*
D11*
X117285Y259969D03*
D77*
X148209Y259969D03*
D11*
X117285Y260096D03*
D78*
X148019Y260096D03*
D11*
X117285Y260223D03*
D79*
X147828Y260223D03*
D11*
X117285Y260350D03*
D80*
X147574Y260350D03*
D11*
X117285Y260477D03*
D81*
X147320Y260477D03*
D11*
X117285Y260604D03*
D82*
X146939Y260604D03*
D11*
X117285Y260731D03*
D83*
X146495Y260731D03*
D11*
X117285Y260858D03*
D84*
X145796Y260858D03*
D85*
X133668Y260985D03*
X133668Y261112D03*
X133668Y261239D03*
D86*
X133604Y261366D03*
X133604Y261493D03*
D87*
X133541Y261620D03*
X133541Y261747D03*
D88*
X133477Y261874D03*
X133477Y262001D03*
D89*
X133414Y262128D03*
X133414Y262255D03*
D90*
X133350Y262382D03*
X133350Y262509D03*
D91*
X133287Y262636D03*
D92*
X133223Y262763D03*
X133223Y262890D03*
D93*
X133160Y263017D03*
X133160Y263144D03*
D94*
X133096Y263271D03*
D95*
X133033Y263398D03*
X133033Y263525D03*
D96*
X132969Y263652D03*
D97*
X132906Y263779D03*
X132906Y263906D03*
D98*
X132842Y264033D03*
D99*
X132779Y264160D03*
D100*
X132715Y264287D03*
X132715Y264414D03*
D101*
X132652Y264541D03*
D102*
X132588Y264668D03*
D103*
X132525Y264795D03*
D104*
X132461Y264922D03*
X132461Y265049D03*
D105*
X132398Y265176D03*
D106*
X132334Y265303D03*
D107*
X132271Y265430D03*
D108*
X132207Y265557D03*
D109*
X132144Y265684D03*
D110*
X132080Y265811D03*
D111*
X132017Y265938D03*
D112*
X131953Y266065D03*
D113*
X131890Y266192D03*
D114*
X131826Y266319D03*
D115*
X131763Y266446D03*
D116*
X131699Y266573D03*
D117*
X131572Y266700D03*
D118*
X131509Y266827D03*
D119*
X131445Y266954D03*
D120*
X131382Y267081D03*
D121*
X131255Y267208D03*
D122*
X131191Y267335D03*
D123*
X131128Y267462D03*
D124*
X131001Y267589D03*
D125*
X130937Y267716D03*
D126*
X130810Y267843D03*
D127*
X130747Y267970D03*
D128*
X130620Y268097D03*
D129*
X130556Y268224D03*
D130*
X130429Y268351D03*
D131*
X130302Y268478D03*
D132*
X130175Y268605D03*
D133*
X130048Y268732D03*
D18*
X129921Y268859D03*
D20*
X129794Y268986D03*
D22*
X129667Y269113D03*
D24*
X129540Y269240D03*
D26*
X129413Y269367D03*
D29*
X129223Y269494D03*
D31*
X129096Y269621D03*
D34*
X128905Y269748D03*
D36*
X128778Y269875D03*
D39*
X128588Y270002D03*
D42*
X128397Y270129D03*
D46*
X128143Y270256D03*
D49*
X127953Y270383D03*
D53*
X127699Y270510D03*
D134*
X127445Y270637D03*
D135*
X127191Y270764D03*
D136*
X126873Y270891D03*
D137*
X126556Y271018D03*
D138*
X126175Y271145D03*
D139*
X125794Y271272D03*
D140*
X125222Y271399D03*
D141*
X124524Y271526D03*
D142*
X123317Y271653D03*
D10*
X18288Y266404D02*
X7112Y266404D01*
X18288Y266404D02*
X18288Y271371D01*
X18288Y276310D02*
X18288Y281277D01*
X18288Y276310D02*
X7112Y276310D01*
X7112Y281277D01*
X12079Y280035D02*
X12079Y276310D01*
X7112Y286187D02*
X18288Y286187D01*
X7112Y286187D02*
X7112Y289292D01*
X7114Y289400D01*
X7120Y289509D01*
X7129Y289616D01*
X7142Y289724D01*
X7159Y289831D01*
X7180Y289937D01*
X7204Y290043D01*
X7232Y290148D01*
X7264Y290251D01*
X7299Y290354D01*
X7338Y290455D01*
X7380Y290555D01*
X7426Y290653D01*
X7475Y290749D01*
X7528Y290844D01*
X7584Y290937D01*
X7643Y291028D01*
X7705Y291116D01*
X7770Y291203D01*
X7838Y291287D01*
X7909Y291369D01*
X7983Y291448D01*
X8060Y291525D01*
X8139Y291599D01*
X8221Y291670D01*
X8305Y291738D01*
X8392Y291803D01*
X8480Y291865D01*
X8571Y291924D01*
X8664Y291980D01*
X8759Y292033D01*
X8855Y292082D01*
X8954Y292128D01*
X9053Y292170D01*
X9154Y292209D01*
X9257Y292244D01*
X9360Y292276D01*
X9465Y292304D01*
X9571Y292328D01*
X9677Y292349D01*
X9784Y292366D01*
X9892Y292379D01*
X10000Y292388D01*
X10108Y292394D01*
X10216Y292396D01*
X15184Y292396D01*
X15295Y292394D01*
X15405Y292388D01*
X15516Y292378D01*
X15626Y292364D01*
X15735Y292347D01*
X15844Y292325D01*
X15952Y292300D01*
X16058Y292270D01*
X16164Y292237D01*
X16269Y292200D01*
X16372Y292160D01*
X16473Y292115D01*
X16573Y292068D01*
X16672Y292016D01*
X16768Y291961D01*
X16862Y291903D01*
X16954Y291842D01*
X17044Y291777D01*
X17132Y291709D01*
X17217Y291638D01*
X17299Y291564D01*
X17379Y291487D01*
X17456Y291407D01*
X17530Y291325D01*
X17601Y291240D01*
X17669Y291152D01*
X17734Y291062D01*
X17795Y290970D01*
X17853Y290876D01*
X17908Y290780D01*
X17960Y290681D01*
X18007Y290581D01*
X18052Y290480D01*
X18092Y290377D01*
X18129Y290272D01*
X18162Y290166D01*
X18192Y290060D01*
X18217Y289952D01*
X18239Y289843D01*
X18256Y289734D01*
X18270Y289624D01*
X18280Y289513D01*
X18286Y289403D01*
X18288Y289292D01*
X18288Y286187D01*
D143*
X19050Y228600D02*
X6350Y228600D01*
X12700Y234950D02*
X12700Y222250D01*
X12700Y323850D02*
X12700Y336550D01*
D10*
X254762Y82494D02*
X254762Y77526D01*
X254762Y82494D02*
X254764Y82605D01*
X254770Y82715D01*
X254780Y82826D01*
X254794Y82936D01*
X254811Y83045D01*
X254833Y83154D01*
X254858Y83262D01*
X254888Y83368D01*
X254921Y83474D01*
X254958Y83579D01*
X254998Y83682D01*
X255043Y83783D01*
X255090Y83883D01*
X255142Y83982D01*
X255197Y84078D01*
X255255Y84172D01*
X255316Y84264D01*
X255381Y84354D01*
X255449Y84442D01*
X255520Y84527D01*
X255594Y84609D01*
X255671Y84689D01*
X255751Y84766D01*
X255833Y84840D01*
X255918Y84911D01*
X256006Y84979D01*
X256096Y85044D01*
X256188Y85105D01*
X256282Y85163D01*
X256378Y85218D01*
X256477Y85270D01*
X256577Y85317D01*
X256678Y85362D01*
X256781Y85402D01*
X256886Y85439D01*
X256992Y85472D01*
X257098Y85502D01*
X257206Y85527D01*
X257315Y85549D01*
X257424Y85566D01*
X257534Y85580D01*
X257645Y85590D01*
X257755Y85596D01*
X257866Y85598D01*
X257977Y85596D01*
X258087Y85590D01*
X258198Y85580D01*
X258308Y85566D01*
X258417Y85549D01*
X258526Y85527D01*
X258634Y85502D01*
X258740Y85472D01*
X258846Y85439D01*
X258951Y85402D01*
X259054Y85362D01*
X259155Y85317D01*
X259255Y85270D01*
X259354Y85218D01*
X259450Y85163D01*
X259544Y85105D01*
X259636Y85044D01*
X259726Y84979D01*
X259814Y84911D01*
X259899Y84840D01*
X259981Y84766D01*
X260061Y84689D01*
X260138Y84609D01*
X260212Y84527D01*
X260283Y84442D01*
X260351Y84354D01*
X260416Y84264D01*
X260477Y84172D01*
X260535Y84078D01*
X260590Y83982D01*
X260642Y83883D01*
X260689Y83783D01*
X260734Y83682D01*
X260774Y83579D01*
X260811Y83474D01*
X260844Y83368D01*
X260874Y83262D01*
X260899Y83154D01*
X260921Y83045D01*
X260938Y82936D01*
X260952Y82826D01*
X260962Y82715D01*
X260968Y82605D01*
X260970Y82494D01*
X260971Y82494D02*
X260971Y77526D01*
X260970Y77526D02*
X260968Y77415D01*
X260962Y77305D01*
X260952Y77194D01*
X260938Y77084D01*
X260921Y76975D01*
X260899Y76866D01*
X260874Y76758D01*
X260844Y76652D01*
X260811Y76546D01*
X260774Y76441D01*
X260734Y76338D01*
X260689Y76237D01*
X260642Y76137D01*
X260590Y76038D01*
X260535Y75942D01*
X260477Y75848D01*
X260416Y75756D01*
X260351Y75666D01*
X260283Y75578D01*
X260212Y75493D01*
X260138Y75411D01*
X260061Y75331D01*
X259981Y75254D01*
X259899Y75180D01*
X259814Y75109D01*
X259726Y75041D01*
X259636Y74976D01*
X259544Y74915D01*
X259450Y74857D01*
X259354Y74802D01*
X259255Y74750D01*
X259155Y74703D01*
X259054Y74658D01*
X258951Y74618D01*
X258846Y74581D01*
X258740Y74548D01*
X258634Y74518D01*
X258526Y74493D01*
X258417Y74471D01*
X258308Y74454D01*
X258198Y74440D01*
X258087Y74430D01*
X257977Y74424D01*
X257866Y74422D01*
X257755Y74424D01*
X257645Y74430D01*
X257534Y74440D01*
X257424Y74454D01*
X257315Y74471D01*
X257206Y74493D01*
X257098Y74518D01*
X256992Y74548D01*
X256886Y74581D01*
X256781Y74618D01*
X256678Y74658D01*
X256577Y74703D01*
X256477Y74750D01*
X256378Y74802D01*
X256282Y74857D01*
X256188Y74915D01*
X256096Y74976D01*
X256006Y75041D01*
X255918Y75109D01*
X255833Y75180D01*
X255751Y75254D01*
X255671Y75331D01*
X255594Y75411D01*
X255520Y75493D01*
X255449Y75578D01*
X255381Y75666D01*
X255316Y75756D01*
X255255Y75848D01*
X255197Y75942D01*
X255142Y76038D01*
X255090Y76137D01*
X255043Y76237D01*
X254998Y76338D01*
X254958Y76441D01*
X254921Y76546D01*
X254888Y76652D01*
X254858Y76758D01*
X254833Y76866D01*
X254811Y76975D01*
X254794Y77084D01*
X254780Y77194D01*
X254770Y77305D01*
X254764Y77415D01*
X254762Y77526D01*
X266601Y74422D02*
X266601Y85598D01*
X271568Y85598D01*
X271568Y80631D02*
X266601Y80631D01*
X276507Y85598D02*
X276507Y74422D01*
X276507Y85598D02*
X281474Y85598D01*
X281474Y80631D02*
X276507Y80631D01*
X254762Y171506D02*
X254762Y176474D01*
X254764Y176585D01*
X254770Y176695D01*
X254780Y176806D01*
X254794Y176916D01*
X254811Y177025D01*
X254833Y177134D01*
X254858Y177242D01*
X254888Y177348D01*
X254921Y177454D01*
X254958Y177559D01*
X254998Y177662D01*
X255043Y177763D01*
X255090Y177863D01*
X255142Y177962D01*
X255197Y178058D01*
X255255Y178152D01*
X255316Y178244D01*
X255381Y178334D01*
X255449Y178422D01*
X255520Y178507D01*
X255594Y178589D01*
X255671Y178669D01*
X255751Y178746D01*
X255833Y178820D01*
X255918Y178891D01*
X256006Y178959D01*
X256096Y179024D01*
X256188Y179085D01*
X256282Y179143D01*
X256378Y179198D01*
X256477Y179250D01*
X256577Y179297D01*
X256678Y179342D01*
X256781Y179382D01*
X256886Y179419D01*
X256992Y179452D01*
X257098Y179482D01*
X257206Y179507D01*
X257315Y179529D01*
X257424Y179546D01*
X257534Y179560D01*
X257645Y179570D01*
X257755Y179576D01*
X257866Y179578D01*
X257977Y179576D01*
X258087Y179570D01*
X258198Y179560D01*
X258308Y179546D01*
X258417Y179529D01*
X258526Y179507D01*
X258634Y179482D01*
X258740Y179452D01*
X258846Y179419D01*
X258951Y179382D01*
X259054Y179342D01*
X259155Y179297D01*
X259255Y179250D01*
X259354Y179198D01*
X259450Y179143D01*
X259544Y179085D01*
X259636Y179024D01*
X259726Y178959D01*
X259814Y178891D01*
X259899Y178820D01*
X259981Y178746D01*
X260061Y178669D01*
X260138Y178589D01*
X260212Y178507D01*
X260283Y178422D01*
X260351Y178334D01*
X260416Y178244D01*
X260477Y178152D01*
X260535Y178058D01*
X260590Y177962D01*
X260642Y177863D01*
X260689Y177763D01*
X260734Y177662D01*
X260774Y177559D01*
X260811Y177454D01*
X260844Y177348D01*
X260874Y177242D01*
X260899Y177134D01*
X260921Y177025D01*
X260938Y176916D01*
X260952Y176806D01*
X260962Y176695D01*
X260968Y176585D01*
X260970Y176474D01*
X260971Y176474D02*
X260971Y171506D01*
X260970Y171506D02*
X260968Y171395D01*
X260962Y171285D01*
X260952Y171174D01*
X260938Y171064D01*
X260921Y170955D01*
X260899Y170846D01*
X260874Y170738D01*
X260844Y170632D01*
X260811Y170526D01*
X260774Y170421D01*
X260734Y170318D01*
X260689Y170217D01*
X260642Y170117D01*
X260590Y170018D01*
X260535Y169922D01*
X260477Y169828D01*
X260416Y169736D01*
X260351Y169646D01*
X260283Y169558D01*
X260212Y169473D01*
X260138Y169391D01*
X260061Y169311D01*
X259981Y169234D01*
X259899Y169160D01*
X259814Y169089D01*
X259726Y169021D01*
X259636Y168956D01*
X259544Y168895D01*
X259450Y168837D01*
X259354Y168782D01*
X259255Y168730D01*
X259155Y168683D01*
X259054Y168638D01*
X258951Y168598D01*
X258846Y168561D01*
X258740Y168528D01*
X258634Y168498D01*
X258526Y168473D01*
X258417Y168451D01*
X258308Y168434D01*
X258198Y168420D01*
X258087Y168410D01*
X257977Y168404D01*
X257866Y168402D01*
X257755Y168404D01*
X257645Y168410D01*
X257534Y168420D01*
X257424Y168434D01*
X257315Y168451D01*
X257206Y168473D01*
X257098Y168498D01*
X256992Y168528D01*
X256886Y168561D01*
X256781Y168598D01*
X256678Y168638D01*
X256577Y168683D01*
X256477Y168730D01*
X256378Y168782D01*
X256282Y168837D01*
X256188Y168895D01*
X256096Y168956D01*
X256006Y169021D01*
X255918Y169089D01*
X255833Y169160D01*
X255751Y169234D01*
X255671Y169311D01*
X255594Y169391D01*
X255520Y169473D01*
X255449Y169558D01*
X255381Y169646D01*
X255316Y169736D01*
X255255Y169828D01*
X255197Y169922D01*
X255142Y170018D01*
X255090Y170117D01*
X255043Y170217D01*
X254998Y170318D01*
X254958Y170421D01*
X254921Y170526D01*
X254888Y170632D01*
X254858Y170738D01*
X254833Y170846D01*
X254811Y170955D01*
X254794Y171064D01*
X254780Y171174D01*
X254770Y171285D01*
X254764Y171395D01*
X254762Y171506D01*
X266573Y168402D02*
X266573Y179578D01*
X272782Y168402D01*
X272782Y179578D01*
D144*
X411988Y65278D02*
X416729Y65278D01*
X416839Y65280D01*
X416950Y65286D01*
X417059Y65295D01*
X417169Y65309D01*
X417278Y65326D01*
X417386Y65347D01*
X417494Y65372D01*
X417600Y65400D01*
X417706Y65433D01*
X417810Y65469D01*
X417913Y65508D01*
X418015Y65551D01*
X418115Y65598D01*
X418213Y65648D01*
X418310Y65701D01*
X418404Y65758D01*
X418497Y65818D01*
X418587Y65882D01*
X418675Y65948D01*
X418761Y66018D01*
X418844Y66090D01*
X418925Y66165D01*
X419003Y66243D01*
X419078Y66324D01*
X419150Y66407D01*
X419220Y66493D01*
X419286Y66581D01*
X419350Y66671D01*
X419410Y66764D01*
X419467Y66858D01*
X419520Y66955D01*
X419570Y67053D01*
X419617Y67153D01*
X419660Y67255D01*
X419699Y67358D01*
X419735Y67462D01*
X419768Y67568D01*
X419796Y67674D01*
X419821Y67782D01*
X419842Y67890D01*
X419859Y67999D01*
X419873Y68109D01*
X419882Y68218D01*
X419888Y68329D01*
X419890Y68439D01*
X419890Y70019D01*
X419888Y70129D01*
X419882Y70240D01*
X419873Y70349D01*
X419859Y70459D01*
X419842Y70568D01*
X419821Y70676D01*
X419796Y70784D01*
X419768Y70890D01*
X419735Y70996D01*
X419699Y71100D01*
X419660Y71203D01*
X419617Y71305D01*
X419570Y71405D01*
X419520Y71503D01*
X419467Y71600D01*
X419410Y71694D01*
X419350Y71787D01*
X419286Y71877D01*
X419220Y71965D01*
X419150Y72051D01*
X419078Y72134D01*
X419003Y72215D01*
X418925Y72293D01*
X418844Y72368D01*
X418761Y72440D01*
X418675Y72510D01*
X418587Y72576D01*
X418497Y72640D01*
X418404Y72700D01*
X418310Y72757D01*
X418213Y72810D01*
X418115Y72860D01*
X418015Y72907D01*
X417913Y72950D01*
X417810Y72989D01*
X417706Y73025D01*
X417600Y73058D01*
X417494Y73086D01*
X417386Y73111D01*
X417278Y73132D01*
X417169Y73149D01*
X417059Y73163D01*
X416950Y73172D01*
X416839Y73178D01*
X416729Y73180D01*
X411988Y73180D01*
X411988Y79502D01*
X419890Y79502D01*
X426829Y79502D02*
X431570Y65278D01*
X436312Y79502D01*
D145*
X185200Y336550D02*
X185205Y336992D01*
X185222Y337433D01*
X185249Y337874D01*
X185287Y338314D01*
X185335Y338753D01*
X185395Y339191D01*
X185465Y339627D01*
X185546Y340062D01*
X185637Y340494D01*
X185739Y340924D01*
X185852Y341351D01*
X185975Y341775D01*
X186108Y342196D01*
X186252Y342614D01*
X186406Y343028D01*
X186570Y343438D01*
X186744Y343844D01*
X186928Y344246D01*
X187122Y344643D01*
X187325Y345035D01*
X187538Y345422D01*
X187761Y345804D01*
X187993Y346180D01*
X188234Y346550D01*
X188483Y346915D01*
X188742Y347273D01*
X189010Y347624D01*
X189286Y347969D01*
X189570Y348307D01*
X189863Y348638D01*
X190164Y348962D01*
X190472Y349278D01*
X190788Y349586D01*
X191112Y349887D01*
X191443Y350180D01*
X191781Y350464D01*
X192126Y350740D01*
X192477Y351008D01*
X192835Y351267D01*
X193200Y351516D01*
X193570Y351757D01*
X193946Y351989D01*
X194328Y352212D01*
X194715Y352425D01*
X195107Y352628D01*
X195504Y352822D01*
X195906Y353006D01*
X196312Y353180D01*
X196722Y353344D01*
X197136Y353498D01*
X197554Y353642D01*
X197975Y353775D01*
X198399Y353898D01*
X198826Y354011D01*
X199256Y354113D01*
X199688Y354204D01*
X200123Y354285D01*
X200559Y354355D01*
X200997Y354415D01*
X201436Y354463D01*
X201876Y354501D01*
X202317Y354528D01*
X202758Y354545D01*
X203200Y354550D01*
X203642Y354545D01*
X204083Y354528D01*
X204524Y354501D01*
X204964Y354463D01*
X205403Y354415D01*
X205841Y354355D01*
X206277Y354285D01*
X206712Y354204D01*
X207144Y354113D01*
X207574Y354011D01*
X208001Y353898D01*
X208425Y353775D01*
X208846Y353642D01*
X209264Y353498D01*
X209678Y353344D01*
X210088Y353180D01*
X210494Y353006D01*
X210896Y352822D01*
X211293Y352628D01*
X211685Y352425D01*
X212072Y352212D01*
X212454Y351989D01*
X212830Y351757D01*
X213200Y351516D01*
X213565Y351267D01*
X213923Y351008D01*
X214274Y350740D01*
X214619Y350464D01*
X214957Y350180D01*
X215288Y349887D01*
X215612Y349586D01*
X215928Y349278D01*
X216236Y348962D01*
X216537Y348638D01*
X216830Y348307D01*
X217114Y347969D01*
X217390Y347624D01*
X217658Y347273D01*
X217917Y346915D01*
X218166Y346550D01*
X218407Y346180D01*
X218639Y345804D01*
X218862Y345422D01*
X219075Y345035D01*
X219278Y344643D01*
X219472Y344246D01*
X219656Y343844D01*
X219830Y343438D01*
X219994Y343028D01*
X220148Y342614D01*
X220292Y342196D01*
X220425Y341775D01*
X220548Y341351D01*
X220661Y340924D01*
X220763Y340494D01*
X220854Y340062D01*
X220935Y339627D01*
X221005Y339191D01*
X221065Y338753D01*
X221113Y338314D01*
X221151Y337874D01*
X221178Y337433D01*
X221195Y336992D01*
X221200Y336550D01*
X221195Y336108D01*
X221178Y335667D01*
X221151Y335226D01*
X221113Y334786D01*
X221065Y334347D01*
X221005Y333909D01*
X220935Y333473D01*
X220854Y333038D01*
X220763Y332606D01*
X220661Y332176D01*
X220548Y331749D01*
X220425Y331325D01*
X220292Y330904D01*
X220148Y330486D01*
X219994Y330072D01*
X219830Y329662D01*
X219656Y329256D01*
X219472Y328854D01*
X219278Y328457D01*
X219075Y328065D01*
X218862Y327678D01*
X218639Y327296D01*
X218407Y326920D01*
X218166Y326550D01*
X217917Y326185D01*
X217658Y325827D01*
X217390Y325476D01*
X217114Y325131D01*
X216830Y324793D01*
X216537Y324462D01*
X216236Y324138D01*
X215928Y323822D01*
X215612Y323514D01*
X215288Y323213D01*
X214957Y322920D01*
X214619Y322636D01*
X214274Y322360D01*
X213923Y322092D01*
X213565Y321833D01*
X213200Y321584D01*
X212830Y321343D01*
X212454Y321111D01*
X212072Y320888D01*
X211685Y320675D01*
X211293Y320472D01*
X210896Y320278D01*
X210494Y320094D01*
X210088Y319920D01*
X209678Y319756D01*
X209264Y319602D01*
X208846Y319458D01*
X208425Y319325D01*
X208001Y319202D01*
X207574Y319089D01*
X207144Y318987D01*
X206712Y318896D01*
X206277Y318815D01*
X205841Y318745D01*
X205403Y318685D01*
X204964Y318637D01*
X204524Y318599D01*
X204083Y318572D01*
X203642Y318555D01*
X203200Y318550D01*
X202758Y318555D01*
X202317Y318572D01*
X201876Y318599D01*
X201436Y318637D01*
X200997Y318685D01*
X200559Y318745D01*
X200123Y318815D01*
X199688Y318896D01*
X199256Y318987D01*
X198826Y319089D01*
X198399Y319202D01*
X197975Y319325D01*
X197554Y319458D01*
X197136Y319602D01*
X196722Y319756D01*
X196312Y319920D01*
X195906Y320094D01*
X195504Y320278D01*
X195107Y320472D01*
X194715Y320675D01*
X194328Y320888D01*
X193946Y321111D01*
X193570Y321343D01*
X193200Y321584D01*
X192835Y321833D01*
X192477Y322092D01*
X192126Y322360D01*
X191781Y322636D01*
X191443Y322920D01*
X191112Y323213D01*
X190788Y323514D01*
X190472Y323822D01*
X190164Y324138D01*
X189863Y324462D01*
X189570Y324793D01*
X189286Y325131D01*
X189010Y325476D01*
X188742Y325827D01*
X188483Y326185D01*
X188234Y326550D01*
X187993Y326920D01*
X187761Y327296D01*
X187538Y327678D01*
X187325Y328065D01*
X187122Y328457D01*
X186928Y328854D01*
X186744Y329256D01*
X186570Y329662D01*
X186406Y330072D01*
X186252Y330486D01*
X186108Y330904D01*
X185975Y331325D01*
X185852Y331749D01*
X185739Y332176D01*
X185637Y332606D01*
X185546Y333038D01*
X185465Y333473D01*
X185395Y333909D01*
X185335Y334347D01*
X185287Y334786D01*
X185249Y335226D01*
X185222Y335667D01*
X185205Y336108D01*
X185200Y336550D01*
X185200Y222250D02*
X185205Y222692D01*
X185222Y223133D01*
X185249Y223574D01*
X185287Y224014D01*
X185335Y224453D01*
X185395Y224891D01*
X185465Y225327D01*
X185546Y225762D01*
X185637Y226194D01*
X185739Y226624D01*
X185852Y227051D01*
X185975Y227475D01*
X186108Y227896D01*
X186252Y228314D01*
X186406Y228728D01*
X186570Y229138D01*
X186744Y229544D01*
X186928Y229946D01*
X187122Y230343D01*
X187325Y230735D01*
X187538Y231122D01*
X187761Y231504D01*
X187993Y231880D01*
X188234Y232250D01*
X188483Y232615D01*
X188742Y232973D01*
X189010Y233324D01*
X189286Y233669D01*
X189570Y234007D01*
X189863Y234338D01*
X190164Y234662D01*
X190472Y234978D01*
X190788Y235286D01*
X191112Y235587D01*
X191443Y235880D01*
X191781Y236164D01*
X192126Y236440D01*
X192477Y236708D01*
X192835Y236967D01*
X193200Y237216D01*
X193570Y237457D01*
X193946Y237689D01*
X194328Y237912D01*
X194715Y238125D01*
X195107Y238328D01*
X195504Y238522D01*
X195906Y238706D01*
X196312Y238880D01*
X196722Y239044D01*
X197136Y239198D01*
X197554Y239342D01*
X197975Y239475D01*
X198399Y239598D01*
X198826Y239711D01*
X199256Y239813D01*
X199688Y239904D01*
X200123Y239985D01*
X200559Y240055D01*
X200997Y240115D01*
X201436Y240163D01*
X201876Y240201D01*
X202317Y240228D01*
X202758Y240245D01*
X203200Y240250D01*
X203642Y240245D01*
X204083Y240228D01*
X204524Y240201D01*
X204964Y240163D01*
X205403Y240115D01*
X205841Y240055D01*
X206277Y239985D01*
X206712Y239904D01*
X207144Y239813D01*
X207574Y239711D01*
X208001Y239598D01*
X208425Y239475D01*
X208846Y239342D01*
X209264Y239198D01*
X209678Y239044D01*
X210088Y238880D01*
X210494Y238706D01*
X210896Y238522D01*
X211293Y238328D01*
X211685Y238125D01*
X212072Y237912D01*
X212454Y237689D01*
X212830Y237457D01*
X213200Y237216D01*
X213565Y236967D01*
X213923Y236708D01*
X214274Y236440D01*
X214619Y236164D01*
X214957Y235880D01*
X215288Y235587D01*
X215612Y235286D01*
X215928Y234978D01*
X216236Y234662D01*
X216537Y234338D01*
X216830Y234007D01*
X217114Y233669D01*
X217390Y233324D01*
X217658Y232973D01*
X217917Y232615D01*
X218166Y232250D01*
X218407Y231880D01*
X218639Y231504D01*
X218862Y231122D01*
X219075Y230735D01*
X219278Y230343D01*
X219472Y229946D01*
X219656Y229544D01*
X219830Y229138D01*
X219994Y228728D01*
X220148Y228314D01*
X220292Y227896D01*
X220425Y227475D01*
X220548Y227051D01*
X220661Y226624D01*
X220763Y226194D01*
X220854Y225762D01*
X220935Y225327D01*
X221005Y224891D01*
X221065Y224453D01*
X221113Y224014D01*
X221151Y223574D01*
X221178Y223133D01*
X221195Y222692D01*
X221200Y222250D01*
X221195Y221808D01*
X221178Y221367D01*
X221151Y220926D01*
X221113Y220486D01*
X221065Y220047D01*
X221005Y219609D01*
X220935Y219173D01*
X220854Y218738D01*
X220763Y218306D01*
X220661Y217876D01*
X220548Y217449D01*
X220425Y217025D01*
X220292Y216604D01*
X220148Y216186D01*
X219994Y215772D01*
X219830Y215362D01*
X219656Y214956D01*
X219472Y214554D01*
X219278Y214157D01*
X219075Y213765D01*
X218862Y213378D01*
X218639Y212996D01*
X218407Y212620D01*
X218166Y212250D01*
X217917Y211885D01*
X217658Y211527D01*
X217390Y211176D01*
X217114Y210831D01*
X216830Y210493D01*
X216537Y210162D01*
X216236Y209838D01*
X215928Y209522D01*
X215612Y209214D01*
X215288Y208913D01*
X214957Y208620D01*
X214619Y208336D01*
X214274Y208060D01*
X213923Y207792D01*
X213565Y207533D01*
X213200Y207284D01*
X212830Y207043D01*
X212454Y206811D01*
X212072Y206588D01*
X211685Y206375D01*
X211293Y206172D01*
X210896Y205978D01*
X210494Y205794D01*
X210088Y205620D01*
X209678Y205456D01*
X209264Y205302D01*
X208846Y205158D01*
X208425Y205025D01*
X208001Y204902D01*
X207574Y204789D01*
X207144Y204687D01*
X206712Y204596D01*
X206277Y204515D01*
X205841Y204445D01*
X205403Y204385D01*
X204964Y204337D01*
X204524Y204299D01*
X204083Y204272D01*
X203642Y204255D01*
X203200Y204250D01*
X202758Y204255D01*
X202317Y204272D01*
X201876Y204299D01*
X201436Y204337D01*
X200997Y204385D01*
X200559Y204445D01*
X200123Y204515D01*
X199688Y204596D01*
X199256Y204687D01*
X198826Y204789D01*
X198399Y204902D01*
X197975Y205025D01*
X197554Y205158D01*
X197136Y205302D01*
X196722Y205456D01*
X196312Y205620D01*
X195906Y205794D01*
X195504Y205978D01*
X195107Y206172D01*
X194715Y206375D01*
X194328Y206588D01*
X193946Y206811D01*
X193570Y207043D01*
X193200Y207284D01*
X192835Y207533D01*
X192477Y207792D01*
X192126Y208060D01*
X191781Y208336D01*
X191443Y208620D01*
X191112Y208913D01*
X190788Y209214D01*
X190472Y209522D01*
X190164Y209838D01*
X189863Y210162D01*
X189570Y210493D01*
X189286Y210831D01*
X189010Y211176D01*
X188742Y211527D01*
X188483Y211885D01*
X188234Y212250D01*
X187993Y212620D01*
X187761Y212996D01*
X187538Y213378D01*
X187325Y213765D01*
X187122Y214157D01*
X186928Y214554D01*
X186744Y214956D01*
X186570Y215362D01*
X186406Y215772D01*
X186252Y216186D01*
X186108Y216604D01*
X185975Y217025D01*
X185852Y217449D01*
X185739Y217876D01*
X185637Y218306D01*
X185546Y218738D01*
X185465Y219173D01*
X185395Y219609D01*
X185335Y220047D01*
X185287Y220486D01*
X185249Y220926D01*
X185222Y221367D01*
X185205Y221808D01*
X185200Y222250D01*
D143*
X187960Y203200D02*
X419100Y203200D01*
X187960Y203200D02*
X180340Y210820D01*
X180340Y243840D01*
X165100Y259080D01*
X165100Y330200D01*
X182880Y347980D01*
X182880Y355600D01*
X419100Y355600D01*
X419407Y355596D01*
X419714Y355585D01*
X420020Y355567D01*
X420326Y355541D01*
X420631Y355507D01*
X420935Y355467D01*
X421238Y355419D01*
X421540Y355363D01*
X421840Y355301D01*
X422139Y355231D01*
X422436Y355154D01*
X422732Y355070D01*
X423025Y354978D01*
X423315Y354880D01*
X423603Y354775D01*
X423889Y354662D01*
X424172Y354543D01*
X424452Y354417D01*
X424729Y354285D01*
X425002Y354145D01*
X425272Y353999D01*
X425538Y353847D01*
X425801Y353688D01*
X426060Y353523D01*
X426314Y353352D01*
X426565Y353175D01*
X426811Y352991D01*
X427053Y352802D01*
X427289Y352607D01*
X427522Y352406D01*
X427749Y352200D01*
X427971Y351988D01*
X428188Y351771D01*
X428400Y351549D01*
X428606Y351322D01*
X428807Y351089D01*
X429002Y350853D01*
X429191Y350611D01*
X429375Y350365D01*
X429552Y350114D01*
X429723Y349860D01*
X429888Y349601D01*
X430047Y349338D01*
X430199Y349072D01*
X430345Y348802D01*
X430485Y348529D01*
X430617Y348252D01*
X430743Y347972D01*
X430862Y347689D01*
X430975Y347403D01*
X431080Y347115D01*
X431178Y346825D01*
X431270Y346532D01*
X431354Y346236D01*
X431431Y345939D01*
X431501Y345640D01*
X431563Y345340D01*
X431619Y345038D01*
X431667Y344735D01*
X431707Y344431D01*
X431741Y344126D01*
X431767Y343820D01*
X431785Y343514D01*
X431796Y343207D01*
X431800Y342900D01*
X431800Y307340D01*
X427990Y303530D01*
X427990Y255270D01*
X431800Y251460D01*
X431800Y215900D01*
X431796Y215593D01*
X431785Y215286D01*
X431767Y214980D01*
X431741Y214674D01*
X431707Y214369D01*
X431667Y214065D01*
X431619Y213762D01*
X431563Y213460D01*
X431501Y213160D01*
X431431Y212861D01*
X431354Y212564D01*
X431270Y212268D01*
X431178Y211975D01*
X431080Y211685D01*
X430975Y211397D01*
X430862Y211111D01*
X430743Y210828D01*
X430617Y210548D01*
X430485Y210271D01*
X430345Y209998D01*
X430199Y209728D01*
X430047Y209462D01*
X429888Y209199D01*
X429723Y208940D01*
X429552Y208686D01*
X429375Y208435D01*
X429191Y208189D01*
X429002Y207947D01*
X428807Y207711D01*
X428606Y207478D01*
X428400Y207251D01*
X428188Y207029D01*
X427971Y206812D01*
X427749Y206600D01*
X427522Y206394D01*
X427289Y206193D01*
X427053Y205998D01*
X426811Y205809D01*
X426565Y205625D01*
X426314Y205448D01*
X426060Y205277D01*
X425801Y205112D01*
X425538Y204953D01*
X425272Y204801D01*
X425002Y204655D01*
X424729Y204515D01*
X424452Y204383D01*
X424172Y204257D01*
X423889Y204138D01*
X423603Y204025D01*
X423315Y203920D01*
X423025Y203822D01*
X422732Y203730D01*
X422436Y203646D01*
X422139Y203569D01*
X421840Y203499D01*
X421540Y203437D01*
X421238Y203381D01*
X420935Y203333D01*
X420631Y203293D01*
X420326Y203259D01*
X420020Y203233D01*
X419714Y203215D01*
X419407Y203204D01*
X419100Y203200D01*
D10*
X418338Y242351D02*
X410887Y242351D01*
X410887Y247939D01*
X410889Y248023D01*
X410895Y248106D01*
X410904Y248189D01*
X410917Y248272D01*
X410934Y248354D01*
X410954Y248435D01*
X410978Y248515D01*
X411006Y248594D01*
X411037Y248671D01*
X411071Y248747D01*
X411109Y248822D01*
X411151Y248895D01*
X411195Y248965D01*
X411243Y249034D01*
X411293Y249101D01*
X411347Y249165D01*
X411403Y249226D01*
X411463Y249286D01*
X411524Y249342D01*
X411588Y249396D01*
X411655Y249446D01*
X411724Y249494D01*
X411794Y249538D01*
X411867Y249580D01*
X411942Y249618D01*
X412018Y249652D01*
X412095Y249683D01*
X412174Y249711D01*
X412254Y249735D01*
X412335Y249755D01*
X412417Y249772D01*
X412500Y249785D01*
X412583Y249795D01*
X412666Y249800D01*
X412750Y249802D01*
X418338Y249802D01*
X418338Y246077D02*
X410887Y246077D01*
X410887Y255221D02*
X418338Y255221D01*
X407783Y254910D02*
X407162Y254910D01*
X407162Y255531D01*
X407783Y255531D01*
X407783Y254910D01*
X418338Y261855D02*
X418338Y264339D01*
X418338Y261855D02*
X418336Y261769D01*
X418330Y261683D01*
X418320Y261598D01*
X418306Y261513D01*
X418289Y261428D01*
X418267Y261345D01*
X418241Y261263D01*
X418212Y261182D01*
X418179Y261103D01*
X418143Y261025D01*
X418103Y260948D01*
X418059Y260874D01*
X418012Y260802D01*
X417962Y260732D01*
X417908Y260665D01*
X417852Y260600D01*
X417792Y260538D01*
X417730Y260478D01*
X417665Y260422D01*
X417598Y260368D01*
X417528Y260318D01*
X417456Y260271D01*
X417382Y260227D01*
X417305Y260187D01*
X417228Y260151D01*
X417148Y260118D01*
X417067Y260089D01*
X416985Y260063D01*
X416902Y260041D01*
X416817Y260024D01*
X416732Y260010D01*
X416647Y260000D01*
X416561Y259994D01*
X416475Y259992D01*
X416475Y259993D02*
X412750Y259993D01*
X412750Y259992D02*
X412666Y259994D01*
X412583Y259999D01*
X412500Y260009D01*
X412417Y260022D01*
X412335Y260039D01*
X412254Y260059D01*
X412174Y260083D01*
X412095Y260111D01*
X412018Y260142D01*
X411942Y260176D01*
X411867Y260214D01*
X411794Y260256D01*
X411724Y260300D01*
X411655Y260348D01*
X411588Y260398D01*
X411524Y260452D01*
X411463Y260508D01*
X411403Y260568D01*
X411347Y260629D01*
X411293Y260693D01*
X411243Y260760D01*
X411195Y260829D01*
X411151Y260899D01*
X411109Y260972D01*
X411071Y261047D01*
X411037Y261123D01*
X411006Y261200D01*
X410978Y261279D01*
X410954Y261359D01*
X410934Y261440D01*
X410917Y261522D01*
X410904Y261605D01*
X410894Y261688D01*
X410889Y261771D01*
X410887Y261855D01*
X410887Y264339D01*
X410887Y269203D02*
X418338Y269203D01*
X410887Y269203D02*
X410887Y272928D01*
X412129Y272928D01*
X413371Y276740D02*
X415854Y276740D01*
X413371Y276740D02*
X413272Y276742D01*
X413174Y276748D01*
X413075Y276758D01*
X412978Y276771D01*
X412880Y276789D01*
X412784Y276810D01*
X412688Y276836D01*
X412594Y276865D01*
X412501Y276897D01*
X412409Y276934D01*
X412319Y276974D01*
X412230Y277018D01*
X412143Y277065D01*
X412058Y277115D01*
X411976Y277169D01*
X411895Y277226D01*
X411817Y277286D01*
X411741Y277350D01*
X411668Y277416D01*
X411597Y277485D01*
X411529Y277557D01*
X411465Y277632D01*
X411403Y277709D01*
X411344Y277788D01*
X411289Y277870D01*
X411236Y277954D01*
X411188Y278039D01*
X411142Y278127D01*
X411100Y278217D01*
X411062Y278308D01*
X411028Y278400D01*
X410997Y278494D01*
X410970Y278589D01*
X410946Y278685D01*
X410927Y278782D01*
X410911Y278879D01*
X410899Y278977D01*
X410891Y279076D01*
X410887Y279175D01*
X410887Y279273D01*
X410891Y279372D01*
X410899Y279471D01*
X410911Y279569D01*
X410927Y279666D01*
X410946Y279763D01*
X410970Y279859D01*
X410997Y279954D01*
X411028Y280048D01*
X411062Y280140D01*
X411100Y280231D01*
X411142Y280321D01*
X411188Y280409D01*
X411236Y280494D01*
X411289Y280578D01*
X411344Y280660D01*
X411403Y280739D01*
X411465Y280816D01*
X411529Y280891D01*
X411597Y280963D01*
X411668Y281032D01*
X411741Y281098D01*
X411817Y281162D01*
X411895Y281222D01*
X411976Y281279D01*
X412058Y281333D01*
X412143Y281383D01*
X412230Y281430D01*
X412319Y281474D01*
X412409Y281514D01*
X412501Y281551D01*
X412594Y281583D01*
X412688Y281612D01*
X412784Y281638D01*
X412880Y281659D01*
X412978Y281677D01*
X413075Y281690D01*
X413174Y281700D01*
X413272Y281706D01*
X413371Y281708D01*
X413371Y281707D02*
X415854Y281707D01*
X415854Y281708D02*
X415953Y281706D01*
X416051Y281700D01*
X416150Y281690D01*
X416247Y281677D01*
X416345Y281659D01*
X416441Y281638D01*
X416537Y281612D01*
X416631Y281583D01*
X416724Y281551D01*
X416816Y281514D01*
X416906Y281474D01*
X416995Y281430D01*
X417082Y281383D01*
X417167Y281333D01*
X417249Y281279D01*
X417330Y281222D01*
X417408Y281162D01*
X417484Y281098D01*
X417557Y281032D01*
X417628Y280963D01*
X417696Y280891D01*
X417760Y280816D01*
X417822Y280739D01*
X417881Y280660D01*
X417936Y280578D01*
X417989Y280494D01*
X418037Y280409D01*
X418083Y280321D01*
X418125Y280231D01*
X418163Y280140D01*
X418197Y280048D01*
X418228Y279954D01*
X418255Y279859D01*
X418279Y279763D01*
X418298Y279666D01*
X418314Y279569D01*
X418326Y279471D01*
X418334Y279372D01*
X418338Y279273D01*
X418338Y279175D01*
X418334Y279076D01*
X418326Y278977D01*
X418314Y278879D01*
X418298Y278782D01*
X418279Y278685D01*
X418255Y278589D01*
X418228Y278494D01*
X418197Y278400D01*
X418163Y278308D01*
X418125Y278217D01*
X418083Y278127D01*
X418037Y278039D01*
X417989Y277954D01*
X417936Y277870D01*
X417881Y277788D01*
X417822Y277709D01*
X417760Y277632D01*
X417696Y277557D01*
X417628Y277485D01*
X417557Y277416D01*
X417484Y277350D01*
X417408Y277286D01*
X417330Y277226D01*
X417249Y277169D01*
X417167Y277115D01*
X417082Y277065D01*
X416995Y277018D01*
X416906Y276974D01*
X416816Y276934D01*
X416724Y276897D01*
X416631Y276865D01*
X416537Y276836D01*
X416441Y276810D01*
X416345Y276789D01*
X416247Y276771D01*
X416150Y276758D01*
X416051Y276748D01*
X415953Y276742D01*
X415854Y276740D01*
X415234Y287168D02*
X407162Y287168D01*
X415234Y287169D02*
X415345Y287171D01*
X415455Y287177D01*
X415566Y287187D01*
X415676Y287201D01*
X415785Y287218D01*
X415894Y287240D01*
X416002Y287265D01*
X416108Y287295D01*
X416214Y287328D01*
X416319Y287365D01*
X416422Y287405D01*
X416523Y287450D01*
X416623Y287497D01*
X416722Y287549D01*
X416818Y287604D01*
X416912Y287662D01*
X417004Y287723D01*
X417094Y287788D01*
X417182Y287856D01*
X417267Y287927D01*
X417349Y288001D01*
X417429Y288078D01*
X417506Y288158D01*
X417580Y288240D01*
X417651Y288325D01*
X417719Y288413D01*
X417784Y288503D01*
X417845Y288595D01*
X417903Y288689D01*
X417958Y288785D01*
X418010Y288884D01*
X418057Y288984D01*
X418102Y289085D01*
X418142Y289188D01*
X418179Y289293D01*
X418212Y289399D01*
X418242Y289505D01*
X418267Y289613D01*
X418289Y289722D01*
X418306Y289831D01*
X418320Y289941D01*
X418330Y290052D01*
X418336Y290162D01*
X418338Y290273D01*
X418336Y290384D01*
X418330Y290494D01*
X418320Y290605D01*
X418306Y290715D01*
X418289Y290824D01*
X418267Y290933D01*
X418242Y291041D01*
X418212Y291147D01*
X418179Y291253D01*
X418142Y291358D01*
X418102Y291461D01*
X418057Y291562D01*
X418010Y291662D01*
X417958Y291761D01*
X417903Y291857D01*
X417845Y291951D01*
X417784Y292043D01*
X417719Y292133D01*
X417651Y292221D01*
X417580Y292306D01*
X417506Y292388D01*
X417429Y292468D01*
X417349Y292545D01*
X417267Y292619D01*
X417182Y292690D01*
X417094Y292758D01*
X417004Y292823D01*
X416912Y292884D01*
X416818Y292942D01*
X416722Y292997D01*
X416623Y293049D01*
X416523Y293096D01*
X416422Y293141D01*
X416319Y293181D01*
X416214Y293218D01*
X416108Y293251D01*
X416002Y293281D01*
X415894Y293306D01*
X415785Y293328D01*
X415676Y293345D01*
X415566Y293359D01*
X415455Y293369D01*
X415345Y293375D01*
X415234Y293377D01*
X407162Y293377D01*
X418338Y302323D02*
X418336Y302420D01*
X418330Y302518D01*
X418321Y302615D01*
X418307Y302712D01*
X418290Y302808D01*
X418269Y302903D01*
X418245Y302997D01*
X418216Y303091D01*
X418184Y303183D01*
X418149Y303274D01*
X418110Y303363D01*
X418067Y303451D01*
X418021Y303537D01*
X417972Y303621D01*
X417919Y303703D01*
X417864Y303783D01*
X417805Y303861D01*
X417743Y303936D01*
X417678Y304009D01*
X417610Y304079D01*
X417540Y304147D01*
X417467Y304212D01*
X417392Y304274D01*
X417314Y304333D01*
X417234Y304388D01*
X417152Y304441D01*
X417068Y304490D01*
X416982Y304536D01*
X416894Y304579D01*
X416805Y304618D01*
X416714Y304653D01*
X416622Y304685D01*
X416528Y304714D01*
X416434Y304738D01*
X416339Y304759D01*
X416243Y304776D01*
X416146Y304790D01*
X416049Y304799D01*
X415952Y304805D01*
X415854Y304807D01*
X418338Y302324D02*
X418336Y302181D01*
X418330Y302038D01*
X418321Y301896D01*
X418307Y301754D01*
X418289Y301612D01*
X418268Y301471D01*
X418243Y301330D01*
X418214Y301190D01*
X418181Y301051D01*
X418145Y300913D01*
X418104Y300776D01*
X418060Y300640D01*
X418013Y300505D01*
X417961Y300372D01*
X417906Y300240D01*
X417848Y300110D01*
X417786Y299981D01*
X417720Y299854D01*
X417651Y299729D01*
X417579Y299606D01*
X417503Y299485D01*
X417425Y299366D01*
X417342Y299249D01*
X417257Y299134D01*
X417169Y299022D01*
X417077Y298912D01*
X416983Y298805D01*
X416886Y298700D01*
X416786Y298598D01*
X409646Y298908D02*
X409548Y298910D01*
X409451Y298916D01*
X409354Y298925D01*
X409257Y298939D01*
X409161Y298956D01*
X409066Y298977D01*
X408972Y299001D01*
X408878Y299030D01*
X408786Y299062D01*
X408695Y299097D01*
X408606Y299136D01*
X408518Y299179D01*
X408432Y299225D01*
X408348Y299274D01*
X408266Y299327D01*
X408186Y299382D01*
X408108Y299441D01*
X408033Y299503D01*
X407960Y299568D01*
X407890Y299636D01*
X407822Y299706D01*
X407757Y299779D01*
X407695Y299854D01*
X407636Y299932D01*
X407581Y300012D01*
X407528Y300094D01*
X407479Y300178D01*
X407433Y300264D01*
X407390Y300352D01*
X407351Y300441D01*
X407316Y300532D01*
X407284Y300624D01*
X407255Y300718D01*
X407231Y300812D01*
X407210Y300907D01*
X407193Y301003D01*
X407179Y301100D01*
X407170Y301197D01*
X407164Y301294D01*
X407162Y301392D01*
X407164Y301522D01*
X407169Y301652D01*
X407178Y301782D01*
X407191Y301912D01*
X407207Y302041D01*
X407227Y302170D01*
X407251Y302298D01*
X407278Y302426D01*
X407309Y302552D01*
X407343Y302678D01*
X407381Y302803D01*
X407422Y302926D01*
X407467Y303049D01*
X407515Y303170D01*
X407566Y303290D01*
X407621Y303408D01*
X407679Y303524D01*
X407740Y303639D01*
X407805Y303753D01*
X407872Y303864D01*
X407943Y303973D01*
X408017Y304081D01*
X408093Y304186D01*
X411819Y300151D02*
X411768Y300068D01*
X411714Y299987D01*
X411657Y299909D01*
X411597Y299833D01*
X411534Y299759D01*
X411468Y299688D01*
X411400Y299619D01*
X411329Y299553D01*
X411256Y299489D01*
X411180Y299429D01*
X411102Y299372D01*
X411021Y299317D01*
X410939Y299266D01*
X410855Y299218D01*
X410769Y299173D01*
X410681Y299131D01*
X410592Y299093D01*
X410502Y299059D01*
X410410Y299027D01*
X410317Y299000D01*
X410223Y298976D01*
X410128Y298955D01*
X410032Y298939D01*
X409936Y298926D01*
X409840Y298916D01*
X409743Y298911D01*
X409646Y298909D01*
X413681Y303565D02*
X413732Y303648D01*
X413786Y303729D01*
X413843Y303807D01*
X413903Y303883D01*
X413966Y303957D01*
X414032Y304028D01*
X414100Y304097D01*
X414171Y304163D01*
X414244Y304227D01*
X414320Y304287D01*
X414398Y304344D01*
X414479Y304399D01*
X414561Y304450D01*
X414645Y304498D01*
X414731Y304543D01*
X414819Y304585D01*
X414908Y304623D01*
X414998Y304657D01*
X415090Y304689D01*
X415183Y304716D01*
X415277Y304740D01*
X415372Y304761D01*
X415468Y304777D01*
X415564Y304790D01*
X415660Y304800D01*
X415757Y304805D01*
X415854Y304807D01*
X413681Y303565D02*
X411819Y300150D01*
X412129Y310240D02*
X412129Y313344D01*
X412130Y313344D02*
X412132Y313455D01*
X412138Y313565D01*
X412148Y313676D01*
X412162Y313786D01*
X412179Y313895D01*
X412201Y314004D01*
X412226Y314112D01*
X412256Y314218D01*
X412289Y314324D01*
X412326Y314429D01*
X412366Y314532D01*
X412411Y314633D01*
X412458Y314733D01*
X412510Y314832D01*
X412565Y314928D01*
X412623Y315022D01*
X412684Y315114D01*
X412749Y315204D01*
X412817Y315292D01*
X412888Y315377D01*
X412962Y315459D01*
X413039Y315539D01*
X413119Y315616D01*
X413201Y315690D01*
X413286Y315761D01*
X413374Y315829D01*
X413464Y315894D01*
X413556Y315955D01*
X413650Y316013D01*
X413746Y316068D01*
X413845Y316120D01*
X413945Y316167D01*
X414046Y316212D01*
X414149Y316252D01*
X414254Y316289D01*
X414360Y316322D01*
X414466Y316352D01*
X414574Y316377D01*
X414683Y316399D01*
X414792Y316416D01*
X414902Y316430D01*
X415013Y316440D01*
X415123Y316446D01*
X415234Y316448D01*
X415345Y316446D01*
X415455Y316440D01*
X415566Y316430D01*
X415676Y316416D01*
X415785Y316399D01*
X415894Y316377D01*
X416002Y316352D01*
X416108Y316322D01*
X416214Y316289D01*
X416319Y316252D01*
X416422Y316212D01*
X416523Y316167D01*
X416623Y316120D01*
X416722Y316068D01*
X416818Y316013D01*
X416912Y315955D01*
X417004Y315894D01*
X417094Y315829D01*
X417182Y315761D01*
X417267Y315690D01*
X417349Y315616D01*
X417429Y315539D01*
X417506Y315459D01*
X417580Y315377D01*
X417651Y315292D01*
X417719Y315204D01*
X417784Y315114D01*
X417845Y315022D01*
X417903Y314928D01*
X417958Y314832D01*
X418010Y314733D01*
X418057Y314633D01*
X418102Y314532D01*
X418142Y314429D01*
X418179Y314324D01*
X418212Y314218D01*
X418242Y314112D01*
X418267Y314004D01*
X418289Y313895D01*
X418306Y313786D01*
X418320Y313676D01*
X418330Y313565D01*
X418336Y313455D01*
X418338Y313344D01*
X418338Y310240D01*
X407162Y310240D01*
X407162Y313344D01*
X407164Y313443D01*
X407170Y313541D01*
X407180Y313640D01*
X407193Y313737D01*
X407211Y313835D01*
X407232Y313931D01*
X407258Y314027D01*
X407287Y314121D01*
X407319Y314214D01*
X407356Y314306D01*
X407396Y314396D01*
X407440Y314485D01*
X407487Y314572D01*
X407537Y314657D01*
X407591Y314739D01*
X407648Y314820D01*
X407708Y314898D01*
X407772Y314974D01*
X407838Y315047D01*
X407907Y315118D01*
X407979Y315186D01*
X408054Y315250D01*
X408131Y315312D01*
X408210Y315371D01*
X408292Y315426D01*
X408376Y315479D01*
X408461Y315527D01*
X408549Y315573D01*
X408639Y315615D01*
X408730Y315653D01*
X408822Y315687D01*
X408916Y315718D01*
X409011Y315745D01*
X409107Y315769D01*
X409204Y315788D01*
X409301Y315804D01*
X409399Y315816D01*
X409498Y315824D01*
X409597Y315828D01*
X409695Y315828D01*
X409794Y315824D01*
X409893Y315816D01*
X409991Y315804D01*
X410088Y315788D01*
X410185Y315769D01*
X410281Y315745D01*
X410376Y315718D01*
X410470Y315687D01*
X410562Y315653D01*
X410653Y315615D01*
X410743Y315573D01*
X410831Y315527D01*
X410916Y315479D01*
X411000Y315426D01*
X411082Y315371D01*
X411161Y315312D01*
X411238Y315250D01*
X411313Y315186D01*
X411385Y315118D01*
X411454Y315047D01*
X411520Y314974D01*
X411584Y314898D01*
X411644Y314820D01*
X411701Y314739D01*
X411755Y314657D01*
X411805Y314572D01*
X411852Y314485D01*
X411896Y314396D01*
X411936Y314306D01*
X411973Y314214D01*
X412005Y314121D01*
X412034Y314027D01*
X412060Y313931D01*
X412081Y313835D01*
X412099Y313737D01*
X412112Y313640D01*
X412122Y313541D01*
X412128Y313443D01*
X412130Y313344D01*
X202438Y259419D02*
X194987Y259419D01*
X194987Y263144D01*
X196229Y263144D01*
X202438Y268819D02*
X202438Y271923D01*
X202438Y268819D02*
X202436Y268733D01*
X202430Y268647D01*
X202420Y268562D01*
X202406Y268477D01*
X202389Y268392D01*
X202367Y268309D01*
X202341Y268227D01*
X202312Y268146D01*
X202279Y268067D01*
X202243Y267989D01*
X202203Y267912D01*
X202159Y267838D01*
X202112Y267766D01*
X202062Y267696D01*
X202008Y267629D01*
X201952Y267564D01*
X201892Y267502D01*
X201830Y267442D01*
X201765Y267386D01*
X201698Y267332D01*
X201628Y267282D01*
X201556Y267235D01*
X201482Y267191D01*
X201405Y267151D01*
X201328Y267115D01*
X201248Y267082D01*
X201167Y267053D01*
X201085Y267027D01*
X201002Y267005D01*
X200917Y266988D01*
X200832Y266974D01*
X200747Y266964D01*
X200661Y266958D01*
X200575Y266956D01*
X197471Y266956D01*
X197372Y266958D01*
X197274Y266964D01*
X197175Y266974D01*
X197078Y266987D01*
X196980Y267005D01*
X196884Y267026D01*
X196788Y267052D01*
X196694Y267081D01*
X196601Y267113D01*
X196509Y267150D01*
X196419Y267190D01*
X196330Y267234D01*
X196243Y267281D01*
X196158Y267331D01*
X196076Y267385D01*
X195995Y267442D01*
X195917Y267502D01*
X195841Y267566D01*
X195768Y267632D01*
X195697Y267701D01*
X195629Y267773D01*
X195565Y267848D01*
X195503Y267925D01*
X195444Y268004D01*
X195389Y268086D01*
X195336Y268170D01*
X195288Y268255D01*
X195242Y268343D01*
X195200Y268433D01*
X195162Y268524D01*
X195128Y268616D01*
X195097Y268710D01*
X195070Y268805D01*
X195046Y268901D01*
X195027Y268998D01*
X195011Y269095D01*
X194999Y269193D01*
X194991Y269292D01*
X194987Y269391D01*
X194987Y269489D01*
X194991Y269588D01*
X194999Y269687D01*
X195011Y269785D01*
X195027Y269882D01*
X195046Y269979D01*
X195070Y270075D01*
X195097Y270170D01*
X195128Y270264D01*
X195162Y270356D01*
X195200Y270447D01*
X195242Y270537D01*
X195288Y270625D01*
X195336Y270710D01*
X195389Y270794D01*
X195444Y270876D01*
X195503Y270955D01*
X195565Y271032D01*
X195629Y271107D01*
X195697Y271179D01*
X195768Y271248D01*
X195841Y271314D01*
X195917Y271378D01*
X195995Y271438D01*
X196076Y271495D01*
X196158Y271549D01*
X196243Y271599D01*
X196330Y271646D01*
X196419Y271690D01*
X196509Y271730D01*
X196601Y271767D01*
X196694Y271799D01*
X196788Y271828D01*
X196884Y271854D01*
X196980Y271875D01*
X197078Y271893D01*
X197175Y271906D01*
X197274Y271916D01*
X197372Y271922D01*
X197471Y271924D01*
X197471Y271923D02*
X198713Y271923D01*
X198713Y266956D01*
X198092Y277793D02*
X199334Y280898D01*
X198092Y277793D02*
X198061Y277721D01*
X198027Y277651D01*
X197989Y277582D01*
X197948Y277515D01*
X197904Y277450D01*
X197856Y277388D01*
X197806Y277328D01*
X197753Y277270D01*
X197697Y277215D01*
X197638Y277163D01*
X197577Y277114D01*
X197514Y277068D01*
X197449Y277025D01*
X197381Y276985D01*
X197312Y276948D01*
X197241Y276915D01*
X197168Y276886D01*
X197094Y276860D01*
X197019Y276837D01*
X196943Y276819D01*
X196866Y276804D01*
X196788Y276792D01*
X196710Y276785D01*
X196632Y276781D01*
X196554Y276782D01*
X196475Y276786D01*
X196397Y276793D01*
X196320Y276805D01*
X196243Y276820D01*
X196167Y276840D01*
X196092Y276862D01*
X196018Y276889D01*
X195946Y276919D01*
X195875Y276952D01*
X195806Y276989D01*
X195738Y277029D01*
X195673Y277073D01*
X195610Y277119D01*
X195549Y277169D01*
X195491Y277221D01*
X195435Y277276D01*
X195382Y277334D01*
X195332Y277395D01*
X195285Y277457D01*
X195242Y277522D01*
X195201Y277589D01*
X195163Y277658D01*
X195130Y277729D01*
X195099Y277801D01*
X195072Y277875D01*
X195049Y277949D01*
X195029Y278025D01*
X195013Y278102D01*
X195001Y278179D01*
X194993Y278257D01*
X194988Y278336D01*
X194987Y278414D01*
X194988Y278414D02*
X194992Y278583D01*
X195001Y278753D01*
X195013Y278922D01*
X195030Y279090D01*
X195051Y279259D01*
X195075Y279426D01*
X195104Y279593D01*
X195137Y279760D01*
X195174Y279925D01*
X195215Y280090D01*
X195259Y280253D01*
X195308Y280416D01*
X195360Y280577D01*
X195417Y280737D01*
X195477Y280895D01*
X195541Y281052D01*
X195609Y281208D01*
X199333Y280898D02*
X199364Y280970D01*
X199398Y281040D01*
X199436Y281109D01*
X199477Y281176D01*
X199521Y281241D01*
X199569Y281303D01*
X199619Y281363D01*
X199672Y281421D01*
X199728Y281476D01*
X199787Y281528D01*
X199848Y281577D01*
X199911Y281623D01*
X199976Y281666D01*
X200044Y281706D01*
X200113Y281743D01*
X200184Y281776D01*
X200257Y281805D01*
X200331Y281831D01*
X200406Y281854D01*
X200482Y281872D01*
X200559Y281887D01*
X200637Y281899D01*
X200715Y281906D01*
X200793Y281910D01*
X200871Y281909D01*
X200950Y281905D01*
X201028Y281898D01*
X201105Y281886D01*
X201182Y281871D01*
X201258Y281851D01*
X201333Y281829D01*
X201407Y281802D01*
X201479Y281772D01*
X201550Y281739D01*
X201619Y281702D01*
X201687Y281662D01*
X201752Y281618D01*
X201815Y281572D01*
X201876Y281522D01*
X201934Y281470D01*
X201990Y281415D01*
X202043Y281357D01*
X202093Y281296D01*
X202140Y281234D01*
X202183Y281169D01*
X202224Y281102D01*
X202262Y281033D01*
X202295Y280962D01*
X202326Y280890D01*
X202353Y280816D01*
X202376Y280742D01*
X202396Y280666D01*
X202412Y280589D01*
X202424Y280512D01*
X202432Y280434D01*
X202437Y280355D01*
X202438Y280277D01*
X202431Y280028D01*
X202419Y279780D01*
X202401Y279531D01*
X202377Y279283D01*
X202347Y279036D01*
X202311Y278790D01*
X202269Y278544D01*
X202222Y278300D01*
X202168Y278056D01*
X202110Y277814D01*
X202045Y277574D01*
X201975Y277335D01*
X201899Y277098D01*
X201817Y276863D01*
X202438Y288631D02*
X202438Y291735D01*
X202438Y288631D02*
X202436Y288545D01*
X202430Y288459D01*
X202420Y288374D01*
X202406Y288289D01*
X202389Y288204D01*
X202367Y288121D01*
X202341Y288039D01*
X202312Y287958D01*
X202279Y287879D01*
X202243Y287801D01*
X202203Y287724D01*
X202159Y287650D01*
X202112Y287578D01*
X202062Y287508D01*
X202008Y287441D01*
X201952Y287376D01*
X201892Y287314D01*
X201830Y287254D01*
X201765Y287198D01*
X201698Y287144D01*
X201628Y287094D01*
X201556Y287047D01*
X201482Y287003D01*
X201405Y286963D01*
X201328Y286927D01*
X201248Y286894D01*
X201167Y286865D01*
X201085Y286839D01*
X201002Y286817D01*
X200917Y286800D01*
X200832Y286786D01*
X200747Y286776D01*
X200661Y286770D01*
X200575Y286768D01*
X197471Y286768D01*
X197372Y286770D01*
X197274Y286776D01*
X197175Y286786D01*
X197078Y286799D01*
X196980Y286817D01*
X196884Y286838D01*
X196788Y286864D01*
X196694Y286893D01*
X196601Y286925D01*
X196509Y286962D01*
X196419Y287002D01*
X196330Y287046D01*
X196243Y287093D01*
X196158Y287143D01*
X196076Y287197D01*
X195995Y287254D01*
X195917Y287314D01*
X195841Y287378D01*
X195768Y287444D01*
X195697Y287513D01*
X195629Y287585D01*
X195565Y287660D01*
X195503Y287737D01*
X195444Y287816D01*
X195389Y287898D01*
X195336Y287982D01*
X195288Y288067D01*
X195242Y288155D01*
X195200Y288245D01*
X195162Y288336D01*
X195128Y288428D01*
X195097Y288522D01*
X195070Y288617D01*
X195046Y288713D01*
X195027Y288810D01*
X195011Y288907D01*
X194999Y289005D01*
X194991Y289104D01*
X194987Y289203D01*
X194987Y289301D01*
X194991Y289400D01*
X194999Y289499D01*
X195011Y289597D01*
X195027Y289694D01*
X195046Y289791D01*
X195070Y289887D01*
X195097Y289982D01*
X195128Y290076D01*
X195162Y290168D01*
X195200Y290259D01*
X195242Y290349D01*
X195288Y290437D01*
X195336Y290522D01*
X195389Y290606D01*
X195444Y290688D01*
X195503Y290767D01*
X195565Y290844D01*
X195629Y290919D01*
X195697Y290991D01*
X195768Y291060D01*
X195841Y291126D01*
X195917Y291190D01*
X195995Y291250D01*
X196076Y291307D01*
X196158Y291361D01*
X196243Y291411D01*
X196330Y291458D01*
X196419Y291502D01*
X196509Y291542D01*
X196601Y291579D01*
X196694Y291611D01*
X196788Y291640D01*
X196884Y291666D01*
X196980Y291687D01*
X197078Y291705D01*
X197175Y291718D01*
X197274Y291728D01*
X197372Y291734D01*
X197471Y291736D01*
X197471Y291735D02*
X198713Y291735D01*
X198713Y286768D01*
X194987Y295656D02*
X194987Y299381D01*
X191262Y296897D02*
X200575Y296897D01*
X200659Y296899D01*
X200742Y296905D01*
X200825Y296914D01*
X200908Y296927D01*
X200990Y296944D01*
X201071Y296964D01*
X201151Y296988D01*
X201230Y297016D01*
X201307Y297047D01*
X201383Y297081D01*
X201458Y297119D01*
X201531Y297161D01*
X201601Y297205D01*
X201670Y297253D01*
X201737Y297303D01*
X201801Y297357D01*
X201862Y297413D01*
X201922Y297473D01*
X201978Y297534D01*
X202032Y297598D01*
X202082Y297665D01*
X202130Y297734D01*
X202174Y297804D01*
X202216Y297877D01*
X202254Y297952D01*
X202288Y298028D01*
X202319Y298105D01*
X202347Y298184D01*
X202371Y298264D01*
X202391Y298345D01*
X202408Y298427D01*
X202421Y298510D01*
X202431Y298593D01*
X202436Y298676D01*
X202438Y298760D01*
X202438Y299381D01*
X375412Y364546D02*
X375412Y372618D01*
X375412Y364546D02*
X375414Y364435D01*
X375420Y364325D01*
X375430Y364214D01*
X375444Y364104D01*
X375461Y363995D01*
X375483Y363886D01*
X375508Y363778D01*
X375538Y363672D01*
X375571Y363566D01*
X375608Y363461D01*
X375648Y363358D01*
X375693Y363257D01*
X375740Y363157D01*
X375792Y363058D01*
X375847Y362962D01*
X375905Y362868D01*
X375966Y362776D01*
X376031Y362686D01*
X376099Y362598D01*
X376170Y362513D01*
X376244Y362431D01*
X376321Y362351D01*
X376401Y362274D01*
X376483Y362200D01*
X376568Y362129D01*
X376656Y362061D01*
X376746Y361996D01*
X376838Y361935D01*
X376932Y361877D01*
X377028Y361822D01*
X377127Y361770D01*
X377227Y361723D01*
X377328Y361678D01*
X377431Y361638D01*
X377536Y361601D01*
X377642Y361568D01*
X377748Y361538D01*
X377856Y361513D01*
X377965Y361491D01*
X378074Y361474D01*
X378184Y361460D01*
X378295Y361450D01*
X378405Y361444D01*
X378516Y361442D01*
X378627Y361444D01*
X378737Y361450D01*
X378848Y361460D01*
X378958Y361474D01*
X379067Y361491D01*
X379176Y361513D01*
X379284Y361538D01*
X379390Y361568D01*
X379496Y361601D01*
X379601Y361638D01*
X379704Y361678D01*
X379805Y361723D01*
X379905Y361770D01*
X380004Y361822D01*
X380100Y361877D01*
X380194Y361935D01*
X380286Y361996D01*
X380376Y362061D01*
X380464Y362129D01*
X380549Y362200D01*
X380631Y362274D01*
X380711Y362351D01*
X380788Y362431D01*
X380862Y362513D01*
X380933Y362598D01*
X381001Y362686D01*
X381066Y362776D01*
X381127Y362868D01*
X381185Y362962D01*
X381240Y363058D01*
X381292Y363157D01*
X381339Y363257D01*
X381384Y363358D01*
X381424Y363461D01*
X381461Y363566D01*
X381494Y363672D01*
X381524Y363778D01*
X381549Y363886D01*
X381571Y363995D01*
X381588Y364104D01*
X381602Y364214D01*
X381612Y364325D01*
X381618Y364435D01*
X381620Y364546D01*
X381621Y364546D02*
X381621Y372618D01*
X387223Y370134D02*
X390327Y372618D01*
X390327Y361442D01*
X387223Y361442D02*
X393432Y361442D01*
D146*
X150241Y187198D02*
X26289Y187198D01*
X150241Y187198D02*
X150241Y63246D01*
X26289Y63246D02*
X26289Y187198D01*
X26289Y63246D02*
X150241Y63246D01*
D10*
X7091Y76962D02*
X7091Y88138D01*
X10196Y88138D01*
X10307Y88136D01*
X10417Y88130D01*
X10528Y88120D01*
X10638Y88106D01*
X10747Y88089D01*
X10856Y88067D01*
X10964Y88042D01*
X11070Y88012D01*
X11176Y87979D01*
X11281Y87942D01*
X11384Y87902D01*
X11485Y87857D01*
X11585Y87810D01*
X11684Y87758D01*
X11780Y87703D01*
X11874Y87645D01*
X11966Y87584D01*
X12056Y87519D01*
X12144Y87451D01*
X12229Y87380D01*
X12311Y87306D01*
X12391Y87229D01*
X12468Y87149D01*
X12542Y87067D01*
X12613Y86982D01*
X12681Y86894D01*
X12746Y86804D01*
X12807Y86712D01*
X12865Y86618D01*
X12920Y86522D01*
X12972Y86423D01*
X13019Y86323D01*
X13064Y86222D01*
X13104Y86119D01*
X13141Y86014D01*
X13174Y85908D01*
X13204Y85802D01*
X13229Y85694D01*
X13251Y85585D01*
X13268Y85476D01*
X13282Y85366D01*
X13292Y85255D01*
X13298Y85145D01*
X13300Y85034D01*
X13298Y84923D01*
X13292Y84813D01*
X13282Y84702D01*
X13268Y84592D01*
X13251Y84483D01*
X13229Y84374D01*
X13204Y84266D01*
X13174Y84160D01*
X13141Y84054D01*
X13104Y83949D01*
X13064Y83846D01*
X13019Y83745D01*
X12972Y83645D01*
X12920Y83546D01*
X12865Y83450D01*
X12807Y83356D01*
X12746Y83264D01*
X12681Y83174D01*
X12613Y83086D01*
X12542Y83001D01*
X12468Y82919D01*
X12391Y82839D01*
X12311Y82762D01*
X12229Y82688D01*
X12144Y82617D01*
X12056Y82549D01*
X11966Y82484D01*
X11874Y82423D01*
X11780Y82365D01*
X11684Y82310D01*
X11585Y82258D01*
X11485Y82211D01*
X11384Y82166D01*
X11281Y82126D01*
X11176Y82089D01*
X11070Y82056D01*
X10964Y82026D01*
X10856Y82001D01*
X10747Y81979D01*
X10638Y81962D01*
X10528Y81948D01*
X10417Y81938D01*
X10307Y81932D01*
X10196Y81930D01*
X10196Y81929D02*
X7091Y81929D01*
X10816Y81929D02*
X13300Y76962D01*
X21844Y88138D02*
X21948Y88136D01*
X22053Y88130D01*
X22157Y88120D01*
X22260Y88107D01*
X22363Y88089D01*
X22466Y88068D01*
X22567Y88043D01*
X22668Y88014D01*
X22767Y87981D01*
X22865Y87945D01*
X22961Y87905D01*
X23056Y87861D01*
X23150Y87814D01*
X23241Y87764D01*
X23330Y87710D01*
X23418Y87653D01*
X23503Y87592D01*
X23586Y87528D01*
X23666Y87462D01*
X23744Y87392D01*
X23820Y87320D01*
X23892Y87244D01*
X23962Y87166D01*
X24028Y87086D01*
X24092Y87003D01*
X24153Y86918D01*
X24210Y86830D01*
X24264Y86741D01*
X24314Y86650D01*
X24361Y86556D01*
X24405Y86461D01*
X24445Y86365D01*
X24481Y86267D01*
X24514Y86168D01*
X24543Y86067D01*
X24568Y85966D01*
X24589Y85863D01*
X24607Y85760D01*
X24620Y85657D01*
X24630Y85553D01*
X24636Y85448D01*
X24638Y85344D01*
X21844Y88139D02*
X21725Y88137D01*
X21607Y88131D01*
X21488Y88121D01*
X21370Y88108D01*
X21253Y88090D01*
X21136Y88068D01*
X21020Y88043D01*
X20905Y88014D01*
X20790Y87981D01*
X20677Y87944D01*
X20566Y87904D01*
X20455Y87860D01*
X20347Y87812D01*
X20240Y87761D01*
X20134Y87706D01*
X20031Y87647D01*
X19929Y87586D01*
X19830Y87521D01*
X19732Y87452D01*
X19638Y87381D01*
X19545Y87306D01*
X19455Y87229D01*
X19368Y87148D01*
X19283Y87065D01*
X19201Y86979D01*
X19122Y86890D01*
X19046Y86799D01*
X18973Y86705D01*
X18904Y86609D01*
X18837Y86510D01*
X18774Y86410D01*
X18714Y86307D01*
X18657Y86203D01*
X18605Y86096D01*
X18555Y85988D01*
X18509Y85879D01*
X18467Y85767D01*
X18429Y85655D01*
X23707Y83171D02*
X23782Y83245D01*
X23854Y83322D01*
X23924Y83401D01*
X23991Y83483D01*
X24055Y83567D01*
X24116Y83653D01*
X24174Y83741D01*
X24229Y83832D01*
X24281Y83924D01*
X24329Y84018D01*
X24374Y84113D01*
X24416Y84211D01*
X24454Y84309D01*
X24489Y84409D01*
X24520Y84510D01*
X24547Y84612D01*
X24571Y84715D01*
X24592Y84818D01*
X24608Y84923D01*
X24621Y85028D01*
X24631Y85133D01*
X24636Y85238D01*
X24638Y85344D01*
X23707Y83171D02*
X18429Y76962D01*
X24638Y76962D01*
D147*
X250200Y63500D02*
X250200Y190500D01*
X250200Y63500D02*
X233000Y63500D01*
X198800Y63500D02*
X181600Y63500D01*
X181600Y190500D01*
X233000Y190500D02*
X250200Y190500D01*
X198800Y190500D02*
X181600Y190500D01*
D148*
X174900Y174000D02*
X174902Y174063D01*
X174908Y174125D01*
X174918Y174187D01*
X174931Y174249D01*
X174949Y174309D01*
X174970Y174368D01*
X174995Y174426D01*
X175024Y174482D01*
X175056Y174536D01*
X175091Y174588D01*
X175129Y174637D01*
X175171Y174685D01*
X175215Y174729D01*
X175263Y174771D01*
X175312Y174809D01*
X175364Y174844D01*
X175418Y174876D01*
X175474Y174905D01*
X175532Y174930D01*
X175591Y174951D01*
X175651Y174969D01*
X175713Y174982D01*
X175775Y174992D01*
X175837Y174998D01*
X175900Y175000D01*
X175963Y174998D01*
X176025Y174992D01*
X176087Y174982D01*
X176149Y174969D01*
X176209Y174951D01*
X176268Y174930D01*
X176326Y174905D01*
X176382Y174876D01*
X176436Y174844D01*
X176488Y174809D01*
X176537Y174771D01*
X176585Y174729D01*
X176629Y174685D01*
X176671Y174637D01*
X176709Y174588D01*
X176744Y174536D01*
X176776Y174482D01*
X176805Y174426D01*
X176830Y174368D01*
X176851Y174309D01*
X176869Y174249D01*
X176882Y174187D01*
X176892Y174125D01*
X176898Y174063D01*
X176900Y174000D01*
X176898Y173937D01*
X176892Y173875D01*
X176882Y173813D01*
X176869Y173751D01*
X176851Y173691D01*
X176830Y173632D01*
X176805Y173574D01*
X176776Y173518D01*
X176744Y173464D01*
X176709Y173412D01*
X176671Y173363D01*
X176629Y173315D01*
X176585Y173271D01*
X176537Y173229D01*
X176488Y173191D01*
X176436Y173156D01*
X176382Y173124D01*
X176326Y173095D01*
X176268Y173070D01*
X176209Y173049D01*
X176149Y173031D01*
X176087Y173018D01*
X176025Y173008D01*
X175963Y173002D01*
X175900Y173000D01*
X175837Y173002D01*
X175775Y173008D01*
X175713Y173018D01*
X175651Y173031D01*
X175591Y173049D01*
X175532Y173070D01*
X175474Y173095D01*
X175418Y173124D01*
X175364Y173156D01*
X175312Y173191D01*
X175263Y173229D01*
X175215Y173271D01*
X175171Y173315D01*
X175129Y173363D01*
X175091Y173412D01*
X175056Y173464D01*
X175024Y173518D01*
X174995Y173574D01*
X174970Y173632D01*
X174949Y173691D01*
X174931Y173751D01*
X174918Y173813D01*
X174908Y173875D01*
X174902Y173937D01*
X174900Y174000D01*
D10*
X213271Y54196D02*
X213269Y54098D01*
X213263Y54001D01*
X213254Y53904D01*
X213240Y53807D01*
X213223Y53711D01*
X213202Y53616D01*
X213178Y53522D01*
X213149Y53428D01*
X213117Y53336D01*
X213082Y53245D01*
X213043Y53156D01*
X213000Y53068D01*
X212954Y52982D01*
X212905Y52898D01*
X212852Y52816D01*
X212797Y52736D01*
X212738Y52658D01*
X212676Y52583D01*
X212611Y52510D01*
X212543Y52440D01*
X212473Y52372D01*
X212400Y52307D01*
X212325Y52245D01*
X212247Y52186D01*
X212167Y52131D01*
X212085Y52078D01*
X212001Y52029D01*
X211915Y51983D01*
X211827Y51940D01*
X211738Y51901D01*
X211647Y51866D01*
X211555Y51834D01*
X211461Y51805D01*
X211367Y51781D01*
X211272Y51760D01*
X211176Y51743D01*
X211079Y51729D01*
X210982Y51720D01*
X210884Y51714D01*
X210787Y51712D01*
X210644Y51714D01*
X210501Y51720D01*
X210359Y51729D01*
X210217Y51743D01*
X210075Y51761D01*
X209934Y51782D01*
X209793Y51807D01*
X209653Y51836D01*
X209514Y51869D01*
X209376Y51905D01*
X209239Y51946D01*
X209103Y51990D01*
X208968Y52037D01*
X208835Y52089D01*
X208703Y52144D01*
X208573Y52202D01*
X208444Y52264D01*
X208317Y52330D01*
X208192Y52399D01*
X208069Y52471D01*
X207948Y52547D01*
X207829Y52625D01*
X207712Y52708D01*
X207597Y52793D01*
X207485Y52881D01*
X207375Y52973D01*
X207268Y53067D01*
X207163Y53164D01*
X207061Y53264D01*
X207372Y60404D02*
X207374Y60502D01*
X207380Y60599D01*
X207389Y60696D01*
X207403Y60793D01*
X207420Y60889D01*
X207441Y60984D01*
X207465Y61078D01*
X207494Y61172D01*
X207526Y61264D01*
X207561Y61355D01*
X207600Y61444D01*
X207643Y61532D01*
X207689Y61618D01*
X207738Y61702D01*
X207791Y61784D01*
X207846Y61864D01*
X207905Y61942D01*
X207967Y62017D01*
X208032Y62090D01*
X208100Y62160D01*
X208170Y62228D01*
X208243Y62293D01*
X208318Y62355D01*
X208396Y62414D01*
X208476Y62469D01*
X208558Y62522D01*
X208642Y62571D01*
X208728Y62617D01*
X208816Y62660D01*
X208905Y62699D01*
X208996Y62734D01*
X209088Y62766D01*
X209182Y62795D01*
X209276Y62819D01*
X209371Y62840D01*
X209467Y62857D01*
X209564Y62871D01*
X209661Y62880D01*
X209758Y62886D01*
X209856Y62888D01*
X209986Y62886D01*
X210116Y62881D01*
X210246Y62872D01*
X210376Y62859D01*
X210505Y62843D01*
X210634Y62823D01*
X210762Y62799D01*
X210890Y62772D01*
X211016Y62741D01*
X211142Y62707D01*
X211267Y62669D01*
X211390Y62628D01*
X211513Y62583D01*
X211634Y62535D01*
X211754Y62484D01*
X211872Y62429D01*
X211988Y62371D01*
X212103Y62310D01*
X212217Y62245D01*
X212328Y62178D01*
X212437Y62107D01*
X212545Y62033D01*
X212650Y61957D01*
X208615Y58231D02*
X208532Y58282D01*
X208451Y58336D01*
X208373Y58393D01*
X208297Y58453D01*
X208223Y58516D01*
X208152Y58582D01*
X208083Y58650D01*
X208017Y58721D01*
X207953Y58794D01*
X207893Y58870D01*
X207836Y58948D01*
X207781Y59029D01*
X207730Y59111D01*
X207682Y59195D01*
X207637Y59281D01*
X207595Y59369D01*
X207557Y59458D01*
X207523Y59548D01*
X207491Y59640D01*
X207464Y59733D01*
X207440Y59827D01*
X207419Y59922D01*
X207403Y60018D01*
X207390Y60114D01*
X207380Y60210D01*
X207375Y60307D01*
X207373Y60404D01*
X212028Y56369D02*
X212111Y56318D01*
X212192Y56264D01*
X212270Y56207D01*
X212346Y56147D01*
X212420Y56084D01*
X212491Y56018D01*
X212560Y55950D01*
X212626Y55879D01*
X212690Y55806D01*
X212750Y55730D01*
X212807Y55652D01*
X212862Y55571D01*
X212913Y55489D01*
X212961Y55405D01*
X213006Y55319D01*
X213048Y55231D01*
X213086Y55142D01*
X213120Y55052D01*
X213152Y54960D01*
X213179Y54867D01*
X213203Y54773D01*
X213224Y54678D01*
X213240Y54582D01*
X213253Y54486D01*
X213263Y54390D01*
X213268Y54293D01*
X213270Y54196D01*
X212029Y56369D02*
X208614Y58231D01*
X218111Y60404D02*
X221215Y62888D01*
X221215Y51712D01*
X218111Y51712D02*
X224320Y51712D01*
D147*
X28500Y204400D02*
X28500Y354400D01*
X103500Y354400D01*
X103500Y204400D01*
X28500Y204400D01*
D10*
X36237Y365196D02*
X36237Y373888D01*
X36238Y365196D02*
X36236Y365098D01*
X36230Y365001D01*
X36221Y364904D01*
X36207Y364807D01*
X36190Y364711D01*
X36169Y364616D01*
X36145Y364522D01*
X36116Y364428D01*
X36084Y364336D01*
X36049Y364245D01*
X36010Y364156D01*
X35967Y364068D01*
X35921Y363982D01*
X35872Y363898D01*
X35819Y363816D01*
X35764Y363736D01*
X35705Y363658D01*
X35643Y363583D01*
X35578Y363510D01*
X35510Y363440D01*
X35440Y363372D01*
X35367Y363307D01*
X35292Y363245D01*
X35214Y363186D01*
X35134Y363131D01*
X35052Y363078D01*
X34968Y363029D01*
X34882Y362983D01*
X34794Y362940D01*
X34705Y362901D01*
X34614Y362866D01*
X34522Y362834D01*
X34428Y362805D01*
X34334Y362781D01*
X34239Y362760D01*
X34143Y362743D01*
X34046Y362729D01*
X33949Y362720D01*
X33851Y362714D01*
X33754Y362712D01*
X32512Y362712D01*
X41781Y371404D02*
X44886Y373888D01*
X44886Y362712D01*
X47990Y362712D02*
X41781Y362712D01*
D149*
X285300Y133350D02*
X285302Y133439D01*
X285308Y133528D01*
X285318Y133617D01*
X285332Y133705D01*
X285349Y133792D01*
X285371Y133878D01*
X285397Y133964D01*
X285426Y134048D01*
X285459Y134131D01*
X285495Y134212D01*
X285536Y134292D01*
X285579Y134369D01*
X285626Y134445D01*
X285677Y134518D01*
X285730Y134589D01*
X285787Y134658D01*
X285847Y134724D01*
X285910Y134788D01*
X285975Y134848D01*
X286043Y134906D01*
X286114Y134960D01*
X286187Y135011D01*
X286262Y135059D01*
X286339Y135104D01*
X286418Y135145D01*
X286499Y135182D01*
X286581Y135216D01*
X286665Y135247D01*
X286750Y135273D01*
X286836Y135296D01*
X286923Y135314D01*
X287011Y135329D01*
X287100Y135340D01*
X287189Y135347D01*
X287278Y135350D01*
X287367Y135349D01*
X287456Y135344D01*
X287544Y135335D01*
X287633Y135322D01*
X287720Y135305D01*
X287807Y135285D01*
X287893Y135260D01*
X287977Y135232D01*
X288060Y135200D01*
X288142Y135164D01*
X288222Y135125D01*
X288300Y135082D01*
X288376Y135036D01*
X288450Y134986D01*
X288522Y134933D01*
X288591Y134877D01*
X288658Y134818D01*
X288722Y134756D01*
X288783Y134692D01*
X288842Y134624D01*
X288897Y134554D01*
X288949Y134482D01*
X288998Y134407D01*
X289043Y134331D01*
X289085Y134252D01*
X289123Y134172D01*
X289158Y134090D01*
X289189Y134006D01*
X289217Y133921D01*
X289240Y133835D01*
X289260Y133748D01*
X289276Y133661D01*
X289288Y133572D01*
X289296Y133484D01*
X289300Y133395D01*
X289300Y133305D01*
X289296Y133216D01*
X289288Y133128D01*
X289276Y133039D01*
X289260Y132952D01*
X289240Y132865D01*
X289217Y132779D01*
X289189Y132694D01*
X289158Y132610D01*
X289123Y132528D01*
X289085Y132448D01*
X289043Y132369D01*
X288998Y132293D01*
X288949Y132218D01*
X288897Y132146D01*
X288842Y132076D01*
X288783Y132008D01*
X288722Y131944D01*
X288658Y131882D01*
X288591Y131823D01*
X288522Y131767D01*
X288450Y131714D01*
X288376Y131664D01*
X288300Y131618D01*
X288222Y131575D01*
X288142Y131536D01*
X288060Y131500D01*
X287977Y131468D01*
X287893Y131440D01*
X287807Y131415D01*
X287720Y131395D01*
X287633Y131378D01*
X287544Y131365D01*
X287456Y131356D01*
X287367Y131351D01*
X287278Y131350D01*
X287189Y131353D01*
X287100Y131360D01*
X287011Y131371D01*
X286923Y131386D01*
X286836Y131404D01*
X286750Y131427D01*
X286665Y131453D01*
X286581Y131484D01*
X286499Y131518D01*
X286418Y131555D01*
X286339Y131596D01*
X286262Y131641D01*
X286187Y131689D01*
X286114Y131740D01*
X286043Y131794D01*
X285975Y131852D01*
X285910Y131912D01*
X285847Y131976D01*
X285787Y132042D01*
X285730Y132111D01*
X285677Y132182D01*
X285626Y132255D01*
X285579Y132331D01*
X285536Y132408D01*
X285495Y132488D01*
X285459Y132569D01*
X285426Y132652D01*
X285397Y132736D01*
X285371Y132822D01*
X285349Y132908D01*
X285332Y132995D01*
X285318Y133083D01*
X285308Y133172D01*
X285302Y133261D01*
X285300Y133350D01*
D147*
X440300Y178350D02*
X440300Y88350D01*
X296300Y88350D01*
X296300Y178350D02*
X314800Y178350D01*
X296300Y117850D02*
X296300Y88350D01*
X350800Y178350D02*
X440300Y178350D01*
X296300Y178350D02*
X296300Y147850D01*
D10*
X300755Y185308D02*
X300755Y194001D01*
X300756Y185308D02*
X300754Y185210D01*
X300748Y185113D01*
X300739Y185016D01*
X300725Y184919D01*
X300708Y184823D01*
X300687Y184728D01*
X300663Y184634D01*
X300634Y184540D01*
X300602Y184448D01*
X300567Y184357D01*
X300528Y184268D01*
X300485Y184180D01*
X300439Y184094D01*
X300390Y184010D01*
X300337Y183928D01*
X300282Y183848D01*
X300223Y183770D01*
X300161Y183695D01*
X300096Y183622D01*
X300028Y183552D01*
X299958Y183484D01*
X299885Y183419D01*
X299810Y183357D01*
X299732Y183298D01*
X299652Y183243D01*
X299570Y183190D01*
X299486Y183141D01*
X299400Y183095D01*
X299312Y183052D01*
X299223Y183013D01*
X299132Y182978D01*
X299040Y182946D01*
X298946Y182917D01*
X298852Y182893D01*
X298757Y182872D01*
X298661Y182855D01*
X298564Y182841D01*
X298467Y182832D01*
X298369Y182826D01*
X298272Y182824D01*
X298272Y182825D02*
X297030Y182825D01*
X309714Y194001D02*
X309818Y193999D01*
X309923Y193993D01*
X310027Y193983D01*
X310130Y193970D01*
X310233Y193952D01*
X310336Y193931D01*
X310437Y193906D01*
X310538Y193877D01*
X310637Y193844D01*
X310735Y193808D01*
X310831Y193768D01*
X310926Y193724D01*
X311020Y193677D01*
X311111Y193627D01*
X311200Y193573D01*
X311288Y193516D01*
X311373Y193455D01*
X311456Y193391D01*
X311536Y193325D01*
X311614Y193255D01*
X311690Y193183D01*
X311762Y193107D01*
X311832Y193029D01*
X311898Y192949D01*
X311962Y192866D01*
X312023Y192781D01*
X312080Y192693D01*
X312134Y192604D01*
X312184Y192513D01*
X312231Y192419D01*
X312275Y192324D01*
X312315Y192228D01*
X312351Y192130D01*
X312384Y192031D01*
X312413Y191930D01*
X312438Y191829D01*
X312459Y191726D01*
X312477Y191623D01*
X312490Y191520D01*
X312500Y191416D01*
X312506Y191311D01*
X312508Y191207D01*
X309714Y194001D02*
X309595Y193999D01*
X309477Y193993D01*
X309358Y193983D01*
X309240Y193970D01*
X309123Y193952D01*
X309006Y193930D01*
X308890Y193905D01*
X308775Y193876D01*
X308660Y193843D01*
X308547Y193806D01*
X308436Y193766D01*
X308325Y193722D01*
X308217Y193674D01*
X308110Y193623D01*
X308004Y193568D01*
X307901Y193509D01*
X307799Y193448D01*
X307700Y193383D01*
X307602Y193314D01*
X307508Y193243D01*
X307415Y193168D01*
X307325Y193091D01*
X307238Y193010D01*
X307153Y192927D01*
X307071Y192841D01*
X306992Y192752D01*
X306916Y192661D01*
X306843Y192567D01*
X306774Y192471D01*
X306707Y192372D01*
X306644Y192272D01*
X306584Y192169D01*
X306527Y192065D01*
X306475Y191958D01*
X306425Y191850D01*
X306379Y191741D01*
X306337Y191629D01*
X306299Y191517D01*
X311577Y189034D02*
X311652Y189108D01*
X311724Y189185D01*
X311794Y189264D01*
X311861Y189346D01*
X311925Y189430D01*
X311986Y189516D01*
X312044Y189604D01*
X312099Y189695D01*
X312151Y189787D01*
X312199Y189881D01*
X312244Y189976D01*
X312286Y190074D01*
X312324Y190172D01*
X312359Y190272D01*
X312390Y190373D01*
X312417Y190475D01*
X312441Y190578D01*
X312462Y190681D01*
X312478Y190786D01*
X312491Y190891D01*
X312501Y190996D01*
X312506Y191101D01*
X312508Y191207D01*
X311577Y189034D02*
X306299Y182825D01*
X312508Y182825D01*
X186690Y49530D02*
X186590Y49528D01*
X186491Y49522D01*
X186391Y49512D01*
X186293Y49499D01*
X186194Y49481D01*
X186097Y49460D01*
X186001Y49435D01*
X185905Y49406D01*
X185811Y49373D01*
X185718Y49337D01*
X185627Y49297D01*
X185537Y49253D01*
X185449Y49206D01*
X185363Y49156D01*
X185279Y49102D01*
X185197Y49045D01*
X185118Y48985D01*
X185040Y48921D01*
X184966Y48855D01*
X184894Y48786D01*
X184825Y48714D01*
X184759Y48640D01*
X184695Y48562D01*
X184635Y48483D01*
X184578Y48401D01*
X184524Y48317D01*
X184474Y48231D01*
X184427Y48143D01*
X184383Y48053D01*
X184343Y47962D01*
X184307Y47869D01*
X184274Y47775D01*
X184245Y47679D01*
X184220Y47583D01*
X184199Y47486D01*
X184181Y47387D01*
X184168Y47289D01*
X184158Y47189D01*
X184152Y47090D01*
X184150Y46990D01*
X184150Y29210D02*
X184152Y29110D01*
X184158Y29011D01*
X184168Y28911D01*
X184181Y28813D01*
X184199Y28714D01*
X184220Y28617D01*
X184245Y28521D01*
X184274Y28425D01*
X184307Y28331D01*
X184343Y28238D01*
X184383Y28147D01*
X184427Y28057D01*
X184474Y27969D01*
X184524Y27883D01*
X184578Y27799D01*
X184635Y27717D01*
X184695Y27638D01*
X184759Y27560D01*
X184825Y27486D01*
X184894Y27414D01*
X184966Y27345D01*
X185040Y27279D01*
X185118Y27215D01*
X185197Y27155D01*
X185279Y27098D01*
X185363Y27044D01*
X185449Y26994D01*
X185537Y26947D01*
X185627Y26903D01*
X185718Y26863D01*
X185811Y26827D01*
X185905Y26794D01*
X186001Y26765D01*
X186097Y26740D01*
X186194Y26719D01*
X186293Y26701D01*
X186391Y26688D01*
X186491Y26678D01*
X186590Y26672D01*
X186690Y26670D01*
X245110Y26670D02*
X245210Y26672D01*
X245309Y26678D01*
X245409Y26688D01*
X245507Y26701D01*
X245606Y26719D01*
X245703Y26740D01*
X245799Y26765D01*
X245895Y26794D01*
X245989Y26827D01*
X246082Y26863D01*
X246173Y26903D01*
X246263Y26947D01*
X246351Y26994D01*
X246437Y27044D01*
X246521Y27098D01*
X246603Y27155D01*
X246682Y27215D01*
X246760Y27279D01*
X246834Y27345D01*
X246906Y27414D01*
X246975Y27486D01*
X247041Y27560D01*
X247105Y27638D01*
X247165Y27717D01*
X247222Y27799D01*
X247276Y27883D01*
X247326Y27969D01*
X247373Y28057D01*
X247417Y28147D01*
X247457Y28238D01*
X247493Y28331D01*
X247526Y28425D01*
X247555Y28521D01*
X247580Y28617D01*
X247601Y28714D01*
X247619Y28813D01*
X247632Y28911D01*
X247642Y29011D01*
X247648Y29110D01*
X247650Y29210D01*
X247650Y46990D02*
X247648Y47090D01*
X247642Y47189D01*
X247632Y47289D01*
X247619Y47387D01*
X247601Y47486D01*
X247580Y47583D01*
X247555Y47679D01*
X247526Y47775D01*
X247493Y47869D01*
X247457Y47962D01*
X247417Y48053D01*
X247373Y48143D01*
X247326Y48231D01*
X247276Y48317D01*
X247222Y48401D01*
X247165Y48483D01*
X247105Y48562D01*
X247041Y48640D01*
X246975Y48714D01*
X246906Y48786D01*
X246834Y48855D01*
X246760Y48921D01*
X246682Y48985D01*
X246603Y49045D01*
X246521Y49102D01*
X246437Y49156D01*
X246351Y49206D01*
X246263Y49253D01*
X246173Y49297D01*
X246082Y49337D01*
X245989Y49373D01*
X245895Y49406D01*
X245799Y49435D01*
X245703Y49460D01*
X245606Y49481D01*
X245507Y49499D01*
X245409Y49512D01*
X245309Y49522D01*
X245210Y49528D01*
X245110Y49530D01*
X184150Y46990D02*
X184150Y29210D01*
X186690Y49530D02*
X190500Y49530D01*
X191770Y48260D01*
X190500Y26670D02*
X186690Y26670D01*
X190500Y26670D02*
X191770Y27940D01*
X240030Y48260D02*
X241300Y49530D01*
X240030Y48260D02*
X191770Y48260D01*
X240030Y27940D02*
X241300Y26670D01*
X240030Y27940D02*
X191770Y27940D01*
X241300Y49530D02*
X245110Y49530D01*
X245110Y26670D02*
X241300Y26670D01*
X247650Y29210D02*
X247650Y46990D01*
D150*
X251968Y38100D03*
X179832Y38100D03*
D10*
X253492Y49022D02*
X253492Y60198D01*
X256596Y60198D01*
X256707Y60196D01*
X256817Y60190D01*
X256928Y60180D01*
X257038Y60166D01*
X257147Y60149D01*
X257256Y60127D01*
X257364Y60102D01*
X257470Y60072D01*
X257576Y60039D01*
X257681Y60002D01*
X257784Y59962D01*
X257885Y59917D01*
X257985Y59870D01*
X258084Y59818D01*
X258180Y59763D01*
X258274Y59705D01*
X258366Y59644D01*
X258456Y59579D01*
X258544Y59511D01*
X258629Y59440D01*
X258711Y59366D01*
X258791Y59289D01*
X258868Y59209D01*
X258942Y59127D01*
X259013Y59042D01*
X259081Y58954D01*
X259146Y58864D01*
X259207Y58772D01*
X259265Y58678D01*
X259320Y58582D01*
X259372Y58483D01*
X259419Y58383D01*
X259464Y58282D01*
X259504Y58179D01*
X259541Y58074D01*
X259574Y57968D01*
X259604Y57862D01*
X259629Y57754D01*
X259651Y57645D01*
X259668Y57536D01*
X259682Y57426D01*
X259692Y57315D01*
X259698Y57205D01*
X259700Y57094D01*
X259698Y56983D01*
X259692Y56873D01*
X259682Y56762D01*
X259668Y56652D01*
X259651Y56543D01*
X259629Y56434D01*
X259604Y56326D01*
X259574Y56220D01*
X259541Y56114D01*
X259504Y56009D01*
X259464Y55906D01*
X259419Y55805D01*
X259372Y55705D01*
X259320Y55606D01*
X259265Y55510D01*
X259207Y55416D01*
X259146Y55324D01*
X259081Y55234D01*
X259013Y55146D01*
X258942Y55061D01*
X258868Y54979D01*
X258791Y54899D01*
X258711Y54822D01*
X258629Y54748D01*
X258544Y54677D01*
X258456Y54609D01*
X258366Y54544D01*
X258274Y54483D01*
X258180Y54425D01*
X258084Y54370D01*
X257985Y54318D01*
X257885Y54271D01*
X257784Y54226D01*
X257681Y54186D01*
X257576Y54149D01*
X257470Y54116D01*
X257364Y54086D01*
X257256Y54061D01*
X257147Y54039D01*
X257038Y54022D01*
X256928Y54008D01*
X256817Y53998D01*
X256707Y53992D01*
X256596Y53990D01*
X256596Y53989D02*
X253492Y53989D01*
X257217Y53989D02*
X259701Y49022D01*
X264830Y57714D02*
X267934Y60198D01*
X267934Y49022D01*
X264830Y49022D02*
X271039Y49022D01*
M02*
