G04 EAGLE Gerber RS-274X export*
G75*
%MOMM*%
%FSLAX34Y34*%
%LPD*%
%INSoldermask Bottom*%
%IPPOS*%
%AMOC8*
5,1,8,0,0,1.08239X$1,22.5*%
G01*
%ADD10C,2.082800*%
%ADD11C,3.232400*%
%ADD12C,2.152400*%
%ADD13R,3.968400X3.968400*%
%ADD14R,2.742400X2.742400*%
%ADD15C,2.742400*%
%ADD16C,1.972400*%
%ADD17C,1.162294*%
%ADD18C,4.597400*%
%ADD19P,1.396628X8X22.500000*%


D10*
X342900Y342646D03*
X317500Y342646D03*
X292100Y342646D03*
X266700Y342646D03*
X241300Y342646D03*
X241300Y215900D03*
X266700Y215900D03*
X292100Y215900D03*
X317500Y215900D03*
X342900Y215900D03*
D11*
X203200Y336550D03*
X203200Y222250D03*
D12*
X50800Y25400D03*
X125730Y25400D03*
X88265Y25400D03*
D13*
X138811Y125222D03*
X37719Y125222D03*
D14*
X215900Y174000D03*
D15*
X215900Y127000D03*
X215900Y80000D03*
D16*
X63500Y229400D03*
X63500Y279400D03*
X63500Y329400D03*
D17*
X308251Y143301D02*
X308251Y123399D01*
X298349Y123399D01*
X298349Y143301D01*
X308251Y143301D01*
X308251Y134441D02*
X298349Y134441D01*
X368251Y143301D02*
X368251Y123399D01*
X358349Y123399D01*
X358349Y143301D01*
X368251Y143301D01*
X368251Y134441D02*
X358349Y134441D01*
X343251Y175399D02*
X323349Y175399D01*
X323349Y185301D01*
X343251Y185301D01*
X343251Y175399D01*
D18*
X133350Y330200D03*
X393700Y38100D03*
D19*
X165100Y38100D03*
X266700Y38100D03*
M02*
