G04 EAGLE Gerber RS-274X export*
G75*
%MOMM*%
%FSLAX34Y34*%
%LPD*%
%INSoldermask Top*%
%IPPOS*%
%AMOC8*
5,1,8,0,0,1.08239X$1,22.5*%
G01*
%ADD10C,2.082800*%
%ADD11C,3.232400*%
%ADD12C,2.152400*%
%ADD13R,3.968400X3.968400*%
%ADD14R,2.742400X2.742400*%
%ADD15C,2.742400*%
%ADD16C,1.972400*%
%ADD17C,1.162294*%
%ADD18C,4.597400*%
%ADD19C,0.609600*%
%ADD20C,1.168400*%
%ADD21P,1.396628X8X22.500000*%


D10*
X342900Y342646D03*
X317500Y342646D03*
X292100Y342646D03*
X266700Y342646D03*
X241300Y342646D03*
X241300Y215900D03*
X266700Y215900D03*
X292100Y215900D03*
X317500Y215900D03*
X342900Y215900D03*
D11*
X203200Y336550D03*
X203200Y222250D03*
D12*
X50800Y25400D03*
X125730Y25400D03*
X88265Y25400D03*
D13*
X138811Y125222D03*
X37719Y125222D03*
D14*
X215900Y174000D03*
D15*
X215900Y127000D03*
X215900Y80000D03*
D16*
X63500Y229400D03*
X63500Y279400D03*
X63500Y329400D03*
D17*
X308251Y143301D02*
X308251Y123399D01*
X298349Y123399D01*
X298349Y143301D01*
X308251Y143301D01*
X308251Y134441D02*
X298349Y134441D01*
X368251Y143301D02*
X368251Y123399D01*
X358349Y123399D01*
X358349Y143301D01*
X368251Y143301D01*
X368251Y134441D02*
X358349Y134441D01*
X343251Y185301D02*
X323349Y185301D01*
X343251Y185301D02*
X343251Y175399D01*
X323349Y175399D01*
X323349Y185301D01*
D18*
X133350Y330200D03*
X393700Y38100D03*
D19*
X5080Y50800D02*
X5082Y50987D01*
X5089Y51174D01*
X5101Y51361D01*
X5117Y51547D01*
X5137Y51733D01*
X5162Y51918D01*
X5192Y52103D01*
X5226Y52287D01*
X5265Y52470D01*
X5308Y52652D01*
X5356Y52832D01*
X5408Y53012D01*
X5465Y53190D01*
X5525Y53367D01*
X5591Y53542D01*
X5660Y53716D01*
X5734Y53888D01*
X5812Y54058D01*
X5894Y54226D01*
X5980Y54392D01*
X6070Y54556D01*
X6164Y54717D01*
X6262Y54877D01*
X6364Y55033D01*
X6470Y55188D01*
X6580Y55339D01*
X6693Y55488D01*
X6810Y55634D01*
X6930Y55777D01*
X7054Y55917D01*
X7181Y56054D01*
X7312Y56188D01*
X7446Y56319D01*
X7583Y56446D01*
X7723Y56570D01*
X7866Y56690D01*
X8012Y56807D01*
X8161Y56920D01*
X8312Y57030D01*
X8467Y57136D01*
X8623Y57238D01*
X8783Y57336D01*
X8944Y57430D01*
X9108Y57520D01*
X9274Y57606D01*
X9442Y57688D01*
X9612Y57766D01*
X9784Y57840D01*
X9958Y57909D01*
X10133Y57975D01*
X10310Y58035D01*
X10488Y58092D01*
X10668Y58144D01*
X10848Y58192D01*
X11030Y58235D01*
X11213Y58274D01*
X11397Y58308D01*
X11582Y58338D01*
X11767Y58363D01*
X11953Y58383D01*
X12139Y58399D01*
X12326Y58411D01*
X12513Y58418D01*
X12700Y58420D01*
X12887Y58418D01*
X13074Y58411D01*
X13261Y58399D01*
X13447Y58383D01*
X13633Y58363D01*
X13818Y58338D01*
X14003Y58308D01*
X14187Y58274D01*
X14370Y58235D01*
X14552Y58192D01*
X14732Y58144D01*
X14912Y58092D01*
X15090Y58035D01*
X15267Y57975D01*
X15442Y57909D01*
X15616Y57840D01*
X15788Y57766D01*
X15958Y57688D01*
X16126Y57606D01*
X16292Y57520D01*
X16456Y57430D01*
X16617Y57336D01*
X16777Y57238D01*
X16933Y57136D01*
X17088Y57030D01*
X17239Y56920D01*
X17388Y56807D01*
X17534Y56690D01*
X17677Y56570D01*
X17817Y56446D01*
X17954Y56319D01*
X18088Y56188D01*
X18219Y56054D01*
X18346Y55917D01*
X18470Y55777D01*
X18590Y55634D01*
X18707Y55488D01*
X18820Y55339D01*
X18930Y55188D01*
X19036Y55033D01*
X19138Y54877D01*
X19236Y54717D01*
X19330Y54556D01*
X19420Y54392D01*
X19506Y54226D01*
X19588Y54058D01*
X19666Y53888D01*
X19740Y53716D01*
X19809Y53542D01*
X19875Y53367D01*
X19935Y53190D01*
X19992Y53012D01*
X20044Y52832D01*
X20092Y52652D01*
X20135Y52470D01*
X20174Y52287D01*
X20208Y52103D01*
X20238Y51918D01*
X20263Y51733D01*
X20283Y51547D01*
X20299Y51361D01*
X20311Y51174D01*
X20318Y50987D01*
X20320Y50800D01*
X20318Y50613D01*
X20311Y50426D01*
X20299Y50239D01*
X20283Y50053D01*
X20263Y49867D01*
X20238Y49682D01*
X20208Y49497D01*
X20174Y49313D01*
X20135Y49130D01*
X20092Y48948D01*
X20044Y48768D01*
X19992Y48588D01*
X19935Y48410D01*
X19875Y48233D01*
X19809Y48058D01*
X19740Y47884D01*
X19666Y47712D01*
X19588Y47542D01*
X19506Y47374D01*
X19420Y47208D01*
X19330Y47044D01*
X19236Y46883D01*
X19138Y46723D01*
X19036Y46567D01*
X18930Y46412D01*
X18820Y46261D01*
X18707Y46112D01*
X18590Y45966D01*
X18470Y45823D01*
X18346Y45683D01*
X18219Y45546D01*
X18088Y45412D01*
X17954Y45281D01*
X17817Y45154D01*
X17677Y45030D01*
X17534Y44910D01*
X17388Y44793D01*
X17239Y44680D01*
X17088Y44570D01*
X16933Y44464D01*
X16777Y44362D01*
X16617Y44264D01*
X16456Y44170D01*
X16292Y44080D01*
X16126Y43994D01*
X15958Y43912D01*
X15788Y43834D01*
X15616Y43760D01*
X15442Y43691D01*
X15267Y43625D01*
X15090Y43565D01*
X14912Y43508D01*
X14732Y43456D01*
X14552Y43408D01*
X14370Y43365D01*
X14187Y43326D01*
X14003Y43292D01*
X13818Y43262D01*
X13633Y43237D01*
X13447Y43217D01*
X13261Y43201D01*
X13074Y43189D01*
X12887Y43182D01*
X12700Y43180D01*
X12513Y43182D01*
X12326Y43189D01*
X12139Y43201D01*
X11953Y43217D01*
X11767Y43237D01*
X11582Y43262D01*
X11397Y43292D01*
X11213Y43326D01*
X11030Y43365D01*
X10848Y43408D01*
X10668Y43456D01*
X10488Y43508D01*
X10310Y43565D01*
X10133Y43625D01*
X9958Y43691D01*
X9784Y43760D01*
X9612Y43834D01*
X9442Y43912D01*
X9274Y43994D01*
X9108Y44080D01*
X8944Y44170D01*
X8783Y44264D01*
X8623Y44362D01*
X8467Y44464D01*
X8312Y44570D01*
X8161Y44680D01*
X8012Y44793D01*
X7866Y44910D01*
X7723Y45030D01*
X7583Y45154D01*
X7446Y45281D01*
X7312Y45412D01*
X7181Y45546D01*
X7054Y45683D01*
X6930Y45823D01*
X6810Y45966D01*
X6693Y46112D01*
X6580Y46261D01*
X6470Y46412D01*
X6364Y46567D01*
X6262Y46723D01*
X6164Y46883D01*
X6070Y47044D01*
X5980Y47208D01*
X5894Y47374D01*
X5812Y47542D01*
X5734Y47712D01*
X5660Y47884D01*
X5591Y48058D01*
X5525Y48233D01*
X5465Y48410D01*
X5408Y48588D01*
X5356Y48768D01*
X5308Y48948D01*
X5265Y49130D01*
X5226Y49313D01*
X5192Y49497D01*
X5162Y49682D01*
X5137Y49867D01*
X5117Y50053D01*
X5101Y50239D01*
X5089Y50426D01*
X5082Y50613D01*
X5080Y50800D01*
D20*
X12700Y50800D03*
D19*
X335280Y50800D02*
X335282Y50987D01*
X335289Y51174D01*
X335301Y51361D01*
X335317Y51547D01*
X335337Y51733D01*
X335362Y51918D01*
X335392Y52103D01*
X335426Y52287D01*
X335465Y52470D01*
X335508Y52652D01*
X335556Y52832D01*
X335608Y53012D01*
X335665Y53190D01*
X335725Y53367D01*
X335791Y53542D01*
X335860Y53716D01*
X335934Y53888D01*
X336012Y54058D01*
X336094Y54226D01*
X336180Y54392D01*
X336270Y54556D01*
X336364Y54717D01*
X336462Y54877D01*
X336564Y55033D01*
X336670Y55188D01*
X336780Y55339D01*
X336893Y55488D01*
X337010Y55634D01*
X337130Y55777D01*
X337254Y55917D01*
X337381Y56054D01*
X337512Y56188D01*
X337646Y56319D01*
X337783Y56446D01*
X337923Y56570D01*
X338066Y56690D01*
X338212Y56807D01*
X338361Y56920D01*
X338512Y57030D01*
X338667Y57136D01*
X338823Y57238D01*
X338983Y57336D01*
X339144Y57430D01*
X339308Y57520D01*
X339474Y57606D01*
X339642Y57688D01*
X339812Y57766D01*
X339984Y57840D01*
X340158Y57909D01*
X340333Y57975D01*
X340510Y58035D01*
X340688Y58092D01*
X340868Y58144D01*
X341048Y58192D01*
X341230Y58235D01*
X341413Y58274D01*
X341597Y58308D01*
X341782Y58338D01*
X341967Y58363D01*
X342153Y58383D01*
X342339Y58399D01*
X342526Y58411D01*
X342713Y58418D01*
X342900Y58420D01*
X343087Y58418D01*
X343274Y58411D01*
X343461Y58399D01*
X343647Y58383D01*
X343833Y58363D01*
X344018Y58338D01*
X344203Y58308D01*
X344387Y58274D01*
X344570Y58235D01*
X344752Y58192D01*
X344932Y58144D01*
X345112Y58092D01*
X345290Y58035D01*
X345467Y57975D01*
X345642Y57909D01*
X345816Y57840D01*
X345988Y57766D01*
X346158Y57688D01*
X346326Y57606D01*
X346492Y57520D01*
X346656Y57430D01*
X346817Y57336D01*
X346977Y57238D01*
X347133Y57136D01*
X347288Y57030D01*
X347439Y56920D01*
X347588Y56807D01*
X347734Y56690D01*
X347877Y56570D01*
X348017Y56446D01*
X348154Y56319D01*
X348288Y56188D01*
X348419Y56054D01*
X348546Y55917D01*
X348670Y55777D01*
X348790Y55634D01*
X348907Y55488D01*
X349020Y55339D01*
X349130Y55188D01*
X349236Y55033D01*
X349338Y54877D01*
X349436Y54717D01*
X349530Y54556D01*
X349620Y54392D01*
X349706Y54226D01*
X349788Y54058D01*
X349866Y53888D01*
X349940Y53716D01*
X350009Y53542D01*
X350075Y53367D01*
X350135Y53190D01*
X350192Y53012D01*
X350244Y52832D01*
X350292Y52652D01*
X350335Y52470D01*
X350374Y52287D01*
X350408Y52103D01*
X350438Y51918D01*
X350463Y51733D01*
X350483Y51547D01*
X350499Y51361D01*
X350511Y51174D01*
X350518Y50987D01*
X350520Y50800D01*
X350518Y50613D01*
X350511Y50426D01*
X350499Y50239D01*
X350483Y50053D01*
X350463Y49867D01*
X350438Y49682D01*
X350408Y49497D01*
X350374Y49313D01*
X350335Y49130D01*
X350292Y48948D01*
X350244Y48768D01*
X350192Y48588D01*
X350135Y48410D01*
X350075Y48233D01*
X350009Y48058D01*
X349940Y47884D01*
X349866Y47712D01*
X349788Y47542D01*
X349706Y47374D01*
X349620Y47208D01*
X349530Y47044D01*
X349436Y46883D01*
X349338Y46723D01*
X349236Y46567D01*
X349130Y46412D01*
X349020Y46261D01*
X348907Y46112D01*
X348790Y45966D01*
X348670Y45823D01*
X348546Y45683D01*
X348419Y45546D01*
X348288Y45412D01*
X348154Y45281D01*
X348017Y45154D01*
X347877Y45030D01*
X347734Y44910D01*
X347588Y44793D01*
X347439Y44680D01*
X347288Y44570D01*
X347133Y44464D01*
X346977Y44362D01*
X346817Y44264D01*
X346656Y44170D01*
X346492Y44080D01*
X346326Y43994D01*
X346158Y43912D01*
X345988Y43834D01*
X345816Y43760D01*
X345642Y43691D01*
X345467Y43625D01*
X345290Y43565D01*
X345112Y43508D01*
X344932Y43456D01*
X344752Y43408D01*
X344570Y43365D01*
X344387Y43326D01*
X344203Y43292D01*
X344018Y43262D01*
X343833Y43237D01*
X343647Y43217D01*
X343461Y43201D01*
X343274Y43189D01*
X343087Y43182D01*
X342900Y43180D01*
X342713Y43182D01*
X342526Y43189D01*
X342339Y43201D01*
X342153Y43217D01*
X341967Y43237D01*
X341782Y43262D01*
X341597Y43292D01*
X341413Y43326D01*
X341230Y43365D01*
X341048Y43408D01*
X340868Y43456D01*
X340688Y43508D01*
X340510Y43565D01*
X340333Y43625D01*
X340158Y43691D01*
X339984Y43760D01*
X339812Y43834D01*
X339642Y43912D01*
X339474Y43994D01*
X339308Y44080D01*
X339144Y44170D01*
X338983Y44264D01*
X338823Y44362D01*
X338667Y44464D01*
X338512Y44570D01*
X338361Y44680D01*
X338212Y44793D01*
X338066Y44910D01*
X337923Y45030D01*
X337783Y45154D01*
X337646Y45281D01*
X337512Y45412D01*
X337381Y45546D01*
X337254Y45683D01*
X337130Y45823D01*
X337010Y45966D01*
X336893Y46112D01*
X336780Y46261D01*
X336670Y46412D01*
X336564Y46567D01*
X336462Y46723D01*
X336364Y46883D01*
X336270Y47044D01*
X336180Y47208D01*
X336094Y47374D01*
X336012Y47542D01*
X335934Y47712D01*
X335860Y47884D01*
X335791Y48058D01*
X335725Y48233D01*
X335665Y48410D01*
X335608Y48588D01*
X335556Y48768D01*
X335508Y48948D01*
X335465Y49130D01*
X335426Y49313D01*
X335392Y49497D01*
X335362Y49682D01*
X335337Y49867D01*
X335317Y50053D01*
X335301Y50239D01*
X335289Y50426D01*
X335282Y50613D01*
X335280Y50800D01*
D20*
X342900Y50800D03*
D19*
X335280Y279400D02*
X335282Y279587D01*
X335289Y279774D01*
X335301Y279961D01*
X335317Y280147D01*
X335337Y280333D01*
X335362Y280518D01*
X335392Y280703D01*
X335426Y280887D01*
X335465Y281070D01*
X335508Y281252D01*
X335556Y281432D01*
X335608Y281612D01*
X335665Y281790D01*
X335725Y281967D01*
X335791Y282142D01*
X335860Y282316D01*
X335934Y282488D01*
X336012Y282658D01*
X336094Y282826D01*
X336180Y282992D01*
X336270Y283156D01*
X336364Y283317D01*
X336462Y283477D01*
X336564Y283633D01*
X336670Y283788D01*
X336780Y283939D01*
X336893Y284088D01*
X337010Y284234D01*
X337130Y284377D01*
X337254Y284517D01*
X337381Y284654D01*
X337512Y284788D01*
X337646Y284919D01*
X337783Y285046D01*
X337923Y285170D01*
X338066Y285290D01*
X338212Y285407D01*
X338361Y285520D01*
X338512Y285630D01*
X338667Y285736D01*
X338823Y285838D01*
X338983Y285936D01*
X339144Y286030D01*
X339308Y286120D01*
X339474Y286206D01*
X339642Y286288D01*
X339812Y286366D01*
X339984Y286440D01*
X340158Y286509D01*
X340333Y286575D01*
X340510Y286635D01*
X340688Y286692D01*
X340868Y286744D01*
X341048Y286792D01*
X341230Y286835D01*
X341413Y286874D01*
X341597Y286908D01*
X341782Y286938D01*
X341967Y286963D01*
X342153Y286983D01*
X342339Y286999D01*
X342526Y287011D01*
X342713Y287018D01*
X342900Y287020D01*
X343087Y287018D01*
X343274Y287011D01*
X343461Y286999D01*
X343647Y286983D01*
X343833Y286963D01*
X344018Y286938D01*
X344203Y286908D01*
X344387Y286874D01*
X344570Y286835D01*
X344752Y286792D01*
X344932Y286744D01*
X345112Y286692D01*
X345290Y286635D01*
X345467Y286575D01*
X345642Y286509D01*
X345816Y286440D01*
X345988Y286366D01*
X346158Y286288D01*
X346326Y286206D01*
X346492Y286120D01*
X346656Y286030D01*
X346817Y285936D01*
X346977Y285838D01*
X347133Y285736D01*
X347288Y285630D01*
X347439Y285520D01*
X347588Y285407D01*
X347734Y285290D01*
X347877Y285170D01*
X348017Y285046D01*
X348154Y284919D01*
X348288Y284788D01*
X348419Y284654D01*
X348546Y284517D01*
X348670Y284377D01*
X348790Y284234D01*
X348907Y284088D01*
X349020Y283939D01*
X349130Y283788D01*
X349236Y283633D01*
X349338Y283477D01*
X349436Y283317D01*
X349530Y283156D01*
X349620Y282992D01*
X349706Y282826D01*
X349788Y282658D01*
X349866Y282488D01*
X349940Y282316D01*
X350009Y282142D01*
X350075Y281967D01*
X350135Y281790D01*
X350192Y281612D01*
X350244Y281432D01*
X350292Y281252D01*
X350335Y281070D01*
X350374Y280887D01*
X350408Y280703D01*
X350438Y280518D01*
X350463Y280333D01*
X350483Y280147D01*
X350499Y279961D01*
X350511Y279774D01*
X350518Y279587D01*
X350520Y279400D01*
X350518Y279213D01*
X350511Y279026D01*
X350499Y278839D01*
X350483Y278653D01*
X350463Y278467D01*
X350438Y278282D01*
X350408Y278097D01*
X350374Y277913D01*
X350335Y277730D01*
X350292Y277548D01*
X350244Y277368D01*
X350192Y277188D01*
X350135Y277010D01*
X350075Y276833D01*
X350009Y276658D01*
X349940Y276484D01*
X349866Y276312D01*
X349788Y276142D01*
X349706Y275974D01*
X349620Y275808D01*
X349530Y275644D01*
X349436Y275483D01*
X349338Y275323D01*
X349236Y275167D01*
X349130Y275012D01*
X349020Y274861D01*
X348907Y274712D01*
X348790Y274566D01*
X348670Y274423D01*
X348546Y274283D01*
X348419Y274146D01*
X348288Y274012D01*
X348154Y273881D01*
X348017Y273754D01*
X347877Y273630D01*
X347734Y273510D01*
X347588Y273393D01*
X347439Y273280D01*
X347288Y273170D01*
X347133Y273064D01*
X346977Y272962D01*
X346817Y272864D01*
X346656Y272770D01*
X346492Y272680D01*
X346326Y272594D01*
X346158Y272512D01*
X345988Y272434D01*
X345816Y272360D01*
X345642Y272291D01*
X345467Y272225D01*
X345290Y272165D01*
X345112Y272108D01*
X344932Y272056D01*
X344752Y272008D01*
X344570Y271965D01*
X344387Y271926D01*
X344203Y271892D01*
X344018Y271862D01*
X343833Y271837D01*
X343647Y271817D01*
X343461Y271801D01*
X343274Y271789D01*
X343087Y271782D01*
X342900Y271780D01*
X342713Y271782D01*
X342526Y271789D01*
X342339Y271801D01*
X342153Y271817D01*
X341967Y271837D01*
X341782Y271862D01*
X341597Y271892D01*
X341413Y271926D01*
X341230Y271965D01*
X341048Y272008D01*
X340868Y272056D01*
X340688Y272108D01*
X340510Y272165D01*
X340333Y272225D01*
X340158Y272291D01*
X339984Y272360D01*
X339812Y272434D01*
X339642Y272512D01*
X339474Y272594D01*
X339308Y272680D01*
X339144Y272770D01*
X338983Y272864D01*
X338823Y272962D01*
X338667Y273064D01*
X338512Y273170D01*
X338361Y273280D01*
X338212Y273393D01*
X338066Y273510D01*
X337923Y273630D01*
X337783Y273754D01*
X337646Y273881D01*
X337512Y274012D01*
X337381Y274146D01*
X337254Y274283D01*
X337130Y274423D01*
X337010Y274566D01*
X336893Y274712D01*
X336780Y274861D01*
X336670Y275012D01*
X336564Y275167D01*
X336462Y275323D01*
X336364Y275483D01*
X336270Y275644D01*
X336180Y275808D01*
X336094Y275974D01*
X336012Y276142D01*
X335934Y276312D01*
X335860Y276484D01*
X335791Y276658D01*
X335725Y276833D01*
X335665Y277010D01*
X335608Y277188D01*
X335556Y277368D01*
X335508Y277548D01*
X335465Y277730D01*
X335426Y277913D01*
X335392Y278097D01*
X335362Y278282D01*
X335337Y278467D01*
X335317Y278653D01*
X335301Y278839D01*
X335289Y279026D01*
X335282Y279213D01*
X335280Y279400D01*
D20*
X342900Y279400D03*
D21*
X165100Y38100D03*
X266700Y38100D03*
M02*
