M48
;GenerationSoftware,Autodesk,EAGLE,9.6.2*%
;CreationDate,2022-05-02T06:35:04Z*%
FMAT,2
ICI,OFF
METRIC,TZ,000.000
T8C0.350
T7C0.813
T6C1.000
T5C1.300
T4C1.850
T3C2.200
T2C2.800
T1C3.175
%
G90
M71
T1
X39370Y3810
X13335Y33020
T2
X3772Y12522
X13881Y12522
T3
X20320Y33655
X20320Y22225
T4
X21590Y8000
X21590Y12700
X21590Y17400
T5
X6350Y27940
X6350Y32940
X6350Y22940
T6
X26670Y21590
X5080Y2540
X12573Y2540
X8827Y2540
X34290Y34265
X29210Y34265
X26670Y34265
X24130Y34265
X24130Y21590
X31750Y34265
X29210Y21590
X31750Y21590
X34290Y21590
T7
X16510Y3810
X26670Y3810
T8
X40005Y12065
X38735Y12065
X38735Y13335
X38735Y14605
X32385Y7620
X31115Y7620
X29845Y7620
X29845Y8890
X31115Y8890
X32385Y8890
X32385Y10160
X40005Y14605
X31115Y10160
X29845Y10160
X40005Y13335
M30